<svg width="315" height="313" viewBox="0 0 315 313" fill="none" xmlns="http://www.w3.org/2000/svg">
<path d="M206.266 230.994C209.986 252.904 215.646 273.474 216.446 294.824C216.536 297.104 217.226 299.884 214.726 300.814C211.936 301.854 209.966 299.254 208.926 297.224C200.156 280.124 188.296 264.954 178.756 248.354C178.396 247.724 177.816 247.224 176.596 245.794C174.936 253.684 173.066 260.714 172.016 267.874C169.986 281.754 165.106 294.924 162.346 308.614C161.936 310.664 160.806 313.244 157.726 312.304C155.606 311.654 154.956 309.974 154.846 307.654C154.006 289.284 149.756 271.494 145.456 253.714C144.696 250.584 143.966 247.434 143.026 243.494C137.606 250.694 132.276 257.204 127.596 264.144C120.606 274.514 112.466 284.094 106.396 295.094C105.026 297.564 102.936 300.154 99.6556 298.604C96.3256 297.024 98.4856 294.334 98.8156 291.794C100.906 275.394 106.086 259.534 107.156 242.934C107.396 239.284 109.256 235.644 109.086 230.964C99.9256 236.224 91.0656 240.864 82.6856 246.244C73.1456 252.364 62.2856 256.084 53.1356 262.914C51.7756 263.934 48.9756 264.334 47.4756 262.464C46.1256 260.774 46.3956 258.954 47.7856 256.864C58.7356 240.394 69.4856 223.794 80.5556 206.844C75.6956 205.244 71.1956 207.054 66.8256 207.744C50.9356 210.254 34.9756 212.384 19.3456 216.414C17.7356 216.834 14.7156 217.564 13.8356 214.274C13.1656 211.764 14.8856 210.734 16.4756 209.654C25.9756 203.244 35.4256 196.774 45.0256 190.524C51.1956 186.504 56.7856 181.574 63.6456 178.604C64.5156 178.224 64.9856 176.924 65.6056 176.094C54.5856 173.884 43.8256 171.694 33.0556 169.564C25.1156 167.994 17.1556 166.504 9.19557 165.004C8.83557 164.934 8.39557 165.194 8.08557 165.064C5.12557 163.884 0.215565 164.504 0.00556521 160.564C-0.184435 156.864 4.53557 157.094 7.27557 156.344C26.0556 151.244 44.8856 146.374 63.6956 141.384C65.2556 140.974 66.7456 140.264 68.4856 139.624C50.5256 126.164 32.9456 112.944 13.9956 101.724C12.0956 100.594 11.0956 99.8339 11.4656 97.5939C11.9156 94.8339 14.0756 95.7139 15.4456 95.8639C25.4956 96.9539 35.5856 97.8839 45.5556 99.5339C58.1556 101.614 70.7756 103.364 84.3856 104.004C76.1256 93.5139 69.6856 82.5439 62.9556 71.7839C57.4356 62.9539 51.5856 54.3539 45.1956 46.1439C43.9556 44.5539 43.5156 42.6639 44.6756 41.6439C45.9856 40.4939 48.1856 40.5839 49.9556 41.6739C53.9156 44.1239 57.8556 46.6139 61.8456 49.0139C76.0656 57.5539 90.3156 66.0539 104.536 74.5939C107.436 76.3339 108.486 75.0739 108.096 72.2739C106.586 61.3339 105.046 50.3939 103.266 39.4939C101.706 29.9339 99.6856 20.4339 98.1556 10.8639C97.9256 9.40394 96.6256 6.97394 99.3056 5.97394C102.416 4.81394 104.466 6.58394 105.946 8.91394C110.156 15.5139 114.016 22.3339 118.356 28.8439C125.266 39.2039 131.986 49.7139 140.396 60.1139C143.036 47.9639 145.396 36.5739 148.016 25.2439C149.716 17.8939 151.906 10.6539 153.656 3.31394C154.196 1.06394 155.196 -0.0760617 157.446 0.00393831C159.556 0.0839383 160.196 1.51394 160.556 3.38394C162.396 12.9139 164.366 22.4239 166.216 31.9539C168.116 41.7439 169.916 51.5439 171.896 62.0439C177.576 56.7039 180.496 50.3939 184.226 44.8039C192.886 31.8139 202.286 19.3839 211.266 6.64394C212.876 4.36394 214.496 4.32394 216.376 4.67394C218.776 5.11394 218.876 7.29394 218.646 9.22394C217.926 15.3739 217.486 21.5839 216.216 27.6239C214.106 37.6139 215.006 47.9139 212.896 57.8339C211.526 64.2939 212.726 70.9139 210.346 78.3239C219.646 72.3339 227.946 66.9339 236.296 61.6339C245.596 55.7339 255.046 50.0739 264.206 43.9739C266.346 42.5539 268.016 41.3739 270.056 43.2139C272.586 45.4839 270.686 47.7739 269.416 49.7639C261.666 61.9139 253.796 73.9839 246.046 86.1339C242.466 91.7439 239.056 97.4639 234.936 104.174C240.596 103.174 245.196 102.274 249.826 101.554C262.236 99.6239 274.656 97.7839 287.076 95.8639C290.536 95.3339 294.056 94.9339 297.396 93.9539C300.526 93.0339 302.786 93.9839 303.966 96.5839C305.256 99.4239 303.276 100.874 300.776 102.074C282.796 110.694 266.186 121.774 248.746 131.374C248.506 131.504 248.486 132.034 248.156 132.994C257.866 134.674 267.486 136.214 277.056 138.014C288.376 140.144 299.866 141.364 310.946 144.724C312.786 145.284 314.496 145.864 314.316 147.774C314.126 149.884 312.716 151.314 310.216 151.554C292.186 153.314 275.396 160.124 257.986 164.424C255.016 165.154 252.136 166.204 248.326 167.384C256.096 172.844 263.306 177.634 270.216 182.834C280.866 190.834 291.296 199.114 301.836 207.254C303.426 208.484 304.936 209.924 303.926 211.994C302.906 214.084 300.286 214.784 298.516 214.284C289.246 211.664 279.836 209.914 270.356 208.234C261.746 206.704 253.056 206.114 244.416 205.334C240.976 205.024 237.716 202.094 233.756 204.724C240.616 215.054 247.576 225.574 254.566 236.064C259.956 244.154 265.316 252.254 270.856 260.234C272.186 262.144 273.116 263.954 271.526 265.794C269.956 267.614 268.086 267.074 266.016 265.864C256.406 260.234 246.626 254.904 237.006 249.304C226.916 243.434 216.936 237.384 206.226 231.004L206.266 230.994ZM257.426 55.8739C256.936 56.1439 256.446 56.4239 255.966 56.6939C241.536 64.9839 227.676 74.1639 214.156 83.8539C212.476 85.0539 210.566 86.7339 208.576 85.0239C206.836 83.5339 204.386 82.1939 204.956 79.0839C205.426 76.4839 205.746 73.8639 206.016 71.2339C207.766 54.1139 209.486 36.9939 211.216 19.8739C211.326 19.1839 211.746 18.0539 211.496 17.8839C210.616 17.2739 210.586 18.4939 210.096 18.8339C197.866 35.2039 186.196 51.9539 175.806 69.5739C174.746 71.3739 173.846 74.0039 170.816 73.3639C168.226 72.8239 167.946 70.3039 167.556 68.4739C165.786 60.1639 164.366 51.7839 162.756 43.4339C161.026 34.4939 159.226 25.5639 157.466 16.6239C156.986 16.6239 156.496 16.6139 156.016 16.6039C152.566 33.1239 149.126 49.6539 145.636 66.1639C145.186 68.2839 145.546 71.1139 142.896 71.9039C139.876 72.8039 139.166 69.8239 138.076 68.0539C128.856 53.0439 117.536 39.4339 108.736 24.1539C108.406 23.5739 108.036 22.8239 106.966 23.1939C107.016 24.0939 106.986 25.0439 107.126 25.9739C109.706 42.9839 112.376 59.9839 114.816 77.0039C115.156 79.3939 116.596 82.5939 113.516 84.2439C110.806 85.7039 108.516 83.7539 106.266 82.3039C92.1156 73.1839 77.5556 64.7439 62.8156 56.6239C62.2356 55.7239 61.2356 55.5439 60.6256 56.1539C60.0056 56.7739 60.9956 57.2139 61.4356 57.6439C70.8256 73.3839 80.9356 88.6639 91.3456 103.754C92.3156 105.164 93.9556 106.564 92.4156 108.794C91.0856 110.724 89.3256 110.824 87.4156 110.604C78.3956 109.604 69.3756 108.624 60.3656 107.484C50.5256 106.234 40.7056 104.814 30.8856 103.474C31.1156 104.994 31.7756 105.594 32.4956 106.094C46.1156 115.664 59.7456 125.204 73.3656 134.784C75.5456 136.314 77.7556 137.834 77.4256 141.084C77.0756 144.474 74.3256 144.364 72.0356 145.004C60.9556 148.094 49.8956 151.224 38.8056 154.264C31.7956 156.184 24.7356 157.974 16.7356 160.074C35.8556 163.794 53.7956 167.334 71.7556 170.734C74.0856 171.174 76.4556 171.264 77.1056 173.994C77.7956 176.884 75.3756 177.824 73.4956 179.084C60.1856 188.074 46.8956 197.094 33.6056 206.104C33.0356 206.454 32.4756 206.794 31.9056 207.144C32.7456 207.774 33.5956 207.594 34.4656 207.204C51.5356 204.324 68.5956 201.384 85.6856 198.654C87.4756 198.364 89.9456 197.194 91.2856 199.764C92.5356 202.164 90.5056 203.644 89.4056 205.244C79.1356 220.124 68.8756 235.004 59.9756 250.764C59.4356 250.924 58.9356 251.224 59.3456 251.794C59.4856 251.984 60.2356 251.734 60.7056 251.684C77.6756 242.984 94.1456 233.414 110.156 223.054C111.636 222.104 112.616 219.804 114.916 221.014C117.286 222.264 116.666 224.274 116.296 226.454C113.236 244.304 110.316 262.174 107.346 280.034C107.016 280.824 106.586 281.624 107.596 282.254C107.826 281.774 108.056 281.284 108.286 280.804C118.806 266.474 129.386 252.184 139.826 237.794C143.616 232.574 144.996 232.534 147.776 238.174C148.356 239.354 148.836 240.624 149.086 241.904C152.346 258.744 157.426 275.194 159.796 292.984C160.496 291.374 160.986 290.554 161.226 289.674C165.816 272.704 168.846 255.414 171.836 238.124C172.136 236.424 171.936 234.564 173.966 233.914C176.246 233.194 177.496 234.774 178.576 236.394C179.626 237.964 180.496 239.654 181.506 241.244C190.626 255.494 199.766 269.734 209.386 284.724C209.386 281.994 209.646 280.274 209.346 278.654C206.226 262.134 203.056 245.624 199.806 229.134C199.356 226.854 198.516 224.694 200.786 222.924C203.076 221.134 205.106 222.204 206.966 223.604C213.346 228.404 220.466 231.984 227.306 236.024C237.476 242.014 247.496 248.294 258.366 253.454C258.836 251.264 257.426 250.314 256.656 249.174C246.746 234.404 236.796 219.674 226.816 204.954C223.516 200.094 224.296 198.084 230.096 197.174C231.386 196.974 232.776 197.004 234.076 197.234C242.286 198.704 250.586 199.314 258.856 200.244C268.336 201.304 277.736 203.044 287.146 204.484C287.426 202.994 286.346 202.634 285.676 202.124C271.736 191.684 258.676 180.054 243.406 171.434C241.536 170.374 238.956 169.454 239.306 166.564C239.676 163.534 242.406 162.934 244.716 162.284C261.986 157.364 279.286 152.544 296.886 147.604C295.006 147.064 293.416 146.394 291.766 146.154C274.546 143.694 257.566 139.744 240.206 138.204C235.856 137.814 235.026 135.824 237.426 132.284C238.546 130.644 240.276 129.844 241.906 128.884C255.276 121.044 268.646 113.194 281.996 105.324C283.016 104.724 284.636 104.594 284.246 102.234C268.266 105.294 252.006 106.374 236.186 110.324C233.646 110.954 230.436 112.604 228.306 109.514C226.196 106.444 228.176 103.904 229.856 101.264C239.076 86.7239 248.166 72.1039 257.306 57.5139C257.606 57.1839 257.916 56.8439 258.216 56.5139C258.286 56.0739 258.526 55.3239 258.386 55.2339C257.806 54.8839 257.546 55.3639 257.416 55.8939L257.426 55.8739Z" fill="#9E9E9E"/>
</svg>
