<svg width="416" height="358" viewBox="0 0 416 358" fill="none" xmlns="http://www.w3.org/2000/svg">
<path d="M205.424 357.711C167.644 358.201 134.514 348.371 103.714 329.101C87.3838 318.891 74.1938 305.861 61.3038 291.841C47.8038 277.161 38.1638 260.351 29.1438 242.941C27.8138 240.371 26.7538 237.601 26.0038 234.811C25.0038 231.111 26.4938 229.711 30.5438 229.321C36.2938 228.761 41.7338 226.741 45.0238 221.301C47.9138 216.531 50.4538 216.361 53.5838 221.311C56.1338 225.361 59.6538 227.641 64.0338 228.691C70.9838 230.341 77.6038 229.851 81.9038 223.221C85.0138 218.421 87.5138 219.761 90.6138 223.041C97.2738 230.111 105.254 233.221 114.914 230.341C118.174 229.371 120.534 227.041 122.834 224.591C127.324 219.811 131.654 219.781 136.324 224.261C144.444 232.041 158.814 232.331 166.914 224.831C169.654 222.291 172.334 221.221 175.894 223.561C188.484 231.841 193.274 232.231 204.924 223.371C210.244 219.331 213.464 221.071 217.494 224.211C223.464 228.881 229.354 233.031 237.864 230.031C241.774 228.651 244.214 226.191 245.914 223.181C248.764 218.151 251.304 219.101 254.414 222.531C257.894 226.361 262.254 228.941 267.024 230.651C276.654 234.101 285.664 231.091 291.254 222.061C293.634 218.221 295.394 218.291 297.724 221.361C306.124 232.461 315.174 233.701 326.254 223.991C331.234 219.631 333.804 218.271 337.814 224.891C343.134 233.691 358.024 231.661 363.664 225.121C364.334 224.351 364.834 223.431 365.494 222.651C367.524 220.241 371.144 220.611 371.844 222.321C374.284 228.341 389.024 220.281 384.374 232.721C375.794 255.701 363.854 276.791 348.344 296.081C328.184 321.161 302.654 337.351 272.384 347.181C258.864 351.571 245.224 354.511 231.144 356.331C222.044 357.501 212.994 357.241 205.434 357.691L205.424 357.711ZM33.7238 236.451C42.4838 253.641 52.0638 270.131 64.3838 285.251C85.0838 310.661 110.664 328.641 141.084 339.931C177.054 353.281 213.884 354.581 251.184 346.341C275.804 340.901 298.884 331.891 318.964 316.251C345.664 295.441 362.874 267.761 375.874 237.101C376.594 235.401 378.904 232.711 376.784 231.901C374.014 230.841 371.114 228.001 367.184 231.561C358.684 239.261 344.114 239.271 335.564 231.861C332.654 229.331 331.114 229.781 328.164 231.531C321.324 235.581 314.054 237.981 305.724 235.951C301.224 234.851 297.584 229.761 294.504 230.331C290.924 231.001 287.924 235.821 283.514 237.171C270.994 241.011 260.804 236.101 251.234 228.681C240.214 240.021 227.574 241.011 215.224 230.741C211.834 227.921 209.954 228.051 207.034 230.691C200.414 236.681 192.764 237.651 184.524 234.681C181.354 233.541 178.144 232.421 175.154 230.901C173.434 230.021 172.534 229.851 170.754 231.091C158.284 239.741 142.204 238.321 130.084 227.771C118.804 242.151 100.864 239.781 86.5038 229.351C79.1738 236.051 72.6138 236.971 62.4938 235.071C57.0638 234.051 53.6338 227.211 48.4838 229.301C43.5738 231.301 38.8538 234.251 33.7238 236.461V236.451Z" fill="#B9B9B9" fill-opacity="0.15"/>
<path d="M343.384 257.832C336.124 253.902 327.684 254.652 318.684 258.562C313.964 260.612 308.114 258.472 303.564 255.452C301.314 253.962 299.954 253.522 297.594 255.382C290.464 261.032 283.184 259.312 276.554 254.482C273.834 252.512 272.184 251.602 269.064 253.772C262.514 258.332 255.564 256.162 249.084 253.432C246.254 252.242 244.714 252.012 242.044 253.962C234.604 259.392 226.534 258.542 218.654 254.692C216.734 253.752 215.554 252.872 213.234 254.562C205.694 260.052 197.684 259.502 190.164 254.502C187.464 252.702 186.094 253.282 183.684 254.862C173.454 261.562 166.364 260.312 155.144 254.592C153.354 253.682 151.954 252.242 153.204 250.022C154.354 247.972 156.044 247.862 158.074 248.972C167.614 254.172 176.494 254.562 184.394 245.682C186.454 243.372 188.774 244.392 190.984 246.422C199.214 253.952 204.604 253.902 211.964 246.172C214.354 243.662 216.114 244.172 218.424 246.112C227.264 253.542 233.484 253.242 241.204 245.002C243.514 242.532 245.414 243.242 247.794 244.922C256.894 251.322 260.934 251.352 270.094 245.122C272.484 243.502 274.104 242.892 276.574 245.472C285.204 254.482 288.514 254.552 297.514 246.362C299.784 244.302 301.404 244.532 303.524 246.392C313.204 254.902 318.424 254.892 326.984 246.152C329.314 243.772 331.014 244.732 333.014 246.272C339.294 251.112 345.614 254.352 352.634 247.302C353.704 246.222 355.734 245.452 357.224 247.102C358.614 248.632 357.814 250.122 356.904 251.692C354.234 256.322 349.894 257.522 343.394 257.842L343.384 257.832Z" fill="#B9B9B9" fill-opacity="0.15"/>
<path d="M328.754 282.762C323.014 279.552 316.324 280.572 308.864 283.892C303.504 286.282 297.214 280.032 292.344 280.352C287.444 280.682 282.674 286.782 276.234 285.782C267.014 284.352 258.194 282.372 248.554 285.722C242.114 287.962 234.724 284.952 228.794 280.872C226.284 279.142 224.564 279.182 222.054 280.772C215.714 284.782 208.864 284.812 201.954 282.302C199.664 281.472 197.464 280.222 198.424 277.252C199.414 274.182 202.054 275.362 203.764 276.082C210.894 279.062 217.064 277.452 222.474 272.452C225.394 269.762 227.044 270.292 229.704 273.132C237.314 281.262 249.334 281.602 257.794 274.302C260.114 272.302 261.644 272.932 263.784 274.742C271.584 281.352 280.514 280.982 287.954 273.812C290.514 271.342 292.474 270.772 295.554 273.272C303.404 279.642 307.204 279.432 314.624 272.752C316.914 270.682 319.074 270.402 321.314 272.502C326.974 277.812 332.704 276.942 338.574 272.942C339.614 272.232 340.734 271.622 341.834 271.002C344.454 269.512 347.424 268.692 348.864 272.002C350.344 275.392 347.164 275.632 344.844 276.832C340.164 279.242 336.024 282.742 328.754 282.762Z" fill="#B9B9B9" fill-opacity="0.15"/>
<path d="M113.514 191.681C113.274 190.291 115.074 188.351 112.104 187.731C99.8545 185.201 87.6245 182.561 75.4045 179.901C73.8345 179.561 72.2945 179.011 70.8045 178.411C68.6745 177.561 66.4045 176.701 67.1245 173.641C67.9945 169.941 70.9445 170.671 73.2745 171.171C84.7145 173.621 96.2445 175.851 107.474 179.081C112.994 180.671 115.794 180.511 118.314 174.671C122.784 164.291 123.234 164.431 112.884 158.421C94.3945 147.681 75.9945 136.761 57.3045 126.371C47.4245 120.871 36.5645 117.201 27.2945 110.521C25.2545 109.051 22.3845 107.651 24.0645 104.701C25.8445 101.571 28.6845 102.921 31.2445 104.241C61.8645 120.101 92.3545 136.211 121.594 154.551C122.634 155.201 123.734 155.761 124.854 156.261C126.874 157.151 128.174 155.861 129.024 154.411C130.084 152.621 129.004 152.011 127.344 150.831C112.594 140.381 98.0445 129.651 83.4745 118.961C77.2845 114.411 71.0745 109.871 65.0945 105.051C63.0245 103.381 59.1945 101.501 61.5645 98.0709C64.0445 94.4709 67.3645 96.9309 69.7945 98.7509C85.1045 110.161 100.254 121.771 115.554 133.191C121.074 137.311 126.984 140.901 132.464 145.081C135.034 147.041 136.674 147.021 138.904 144.731C143.354 140.181 148.024 135.841 152.644 131.471C154.184 130.011 154.714 129.111 153.254 126.791C139.214 104.471 128.434 80.3909 116.084 57.1509C115.214 55.5109 114.034 54.0409 113.224 52.3809C112.194 50.2609 111.414 47.5709 113.984 46.3909C116.244 45.3509 118.764 45.6509 120.244 48.7909C123.624 55.9609 127.254 63.0209 130.994 70.0109C140.034 86.9009 148.004 104.371 158.174 120.651C159.284 122.431 159.684 125.911 163.604 123.811C166.904 122.041 167.264 119.831 165.824 116.881C158.244 101.421 152.334 85.2509 146.544 69.1109C140.914 53.4209 134.624 38.0209 128.614 22.4909C127.864 20.5509 126.594 18.8109 125.714 16.9009C124.814 14.9409 123.884 12.7109 126.434 11.3109C129.004 9.90092 131.114 11.2009 132.254 13.4709C134.964 18.8809 137.674 24.3309 139.914 29.9409C150.804 57.2409 160.084 85.1709 171.844 112.131C172.814 114.361 171.634 119.271 177.614 118.231C183.704 117.171 183.774 115.391 182.214 109.781C177.674 93.4509 173.254 77.0309 170.854 60.1809C170.414 57.1109 167.894 54.5809 168.754 51.1609C169.284 49.0809 168.114 46.1809 171.544 45.6609C175.294 45.1009 175.754 48.5309 176.134 50.5509C177.704 58.9109 179.984 67.1309 181.554 75.4609C183.974 88.3609 187.994 100.841 190.774 113.641C190.904 114.251 190.894 115.231 191.254 115.391C195.504 117.361 199.804 115.221 204.094 115.271C205.984 115.291 207.564 113.861 207.504 111.051C207.124 93.0309 210.544 75.2609 210.974 57.2309C211.394 39.3009 215.404 21.5309 215.174 3.46092C215.154 1.94092 215.144 -0.0490762 217.744 0.00092379C220.004 0.0409238 221.374 0.920924 221.594 3.26092C221.834 5.77092 222.404 8.31092 222.234 10.8009C220.204 41.0909 218.054 71.3809 215.994 101.661C215.794 104.571 215.864 107.511 216.094 110.421C216.284 112.771 214.544 115.871 219.344 116.421C223.774 116.931 226.014 115.511 226.494 111.461C227.454 103.341 227.904 95.1609 228.954 87.0609C230.364 76.1809 232.774 65.3909 233.534 54.4809C234.094 46.5309 236.734 38.8209 235.984 30.7809C235.674 27.4309 236.404 24.4209 240.144 24.3609C243.834 24.3009 243.904 27.3809 243.644 30.3409C242.064 48.2109 239.994 66.0109 236.944 83.7109C235.084 94.5109 234.174 105.481 232.904 116.391C232.704 118.151 233.834 119.111 235.534 119.331C242.344 120.191 248.174 123.611 254.134 126.601C256.354 127.721 258.274 128.381 259.364 125.851C263.604 116.061 269.464 107.171 274.564 97.8709C283.374 81.8109 292.114 65.6809 302.864 50.7809C304.374 48.6909 305.304 45.2209 308.854 47.3409C312.694 49.6309 310.274 52.6509 308.794 54.9309C295.034 76.1309 282.824 98.2309 270.574 120.301C268.584 123.881 266.924 127.641 265.124 131.301C267.514 132.871 268.514 131.091 269.664 129.991C288.504 111.981 306.944 93.6309 323.834 73.7109C330.014 66.4209 336.574 59.4009 342.664 52.0209C345.114 49.0509 348.274 48.1209 350.734 50.1709C353.124 52.1709 350.454 54.4409 348.864 56.4709C336.874 71.7609 323.634 85.9709 310.514 100.251C298.604 113.201 285.774 125.311 272.354 138.791C273.034 139.061 273.894 139.221 274.544 139.681C282.114 145.101 281.124 143.911 288.924 137.511C299.514 128.831 308.514 118.501 319.604 110.301C328.094 104.021 336.014 96.7909 344.194 90.0109C346.604 88.0109 349.824 87.4309 351.824 84.6309C352.704 83.4009 355.174 83.8109 356.634 85.7909C358.204 87.9309 357.384 89.2809 355.774 90.5909C347.554 97.2609 339.234 103.801 331.104 110.571C316.424 122.801 302.074 135.401 288.124 148.471C286.164 150.301 286.504 151.311 288.074 153.041C290.184 155.361 292.784 157.261 293.964 160.431C294.944 163.071 297.154 162.691 299.044 161.461C310.464 154.011 323.344 149.721 335.574 144.011C353.844 135.471 371.434 125.461 389.324 116.101C392.334 114.531 395.274 112.731 398.454 111.641C400.764 110.851 403.944 110.471 405.074 113.481C406.124 116.311 403.434 117.371 401.364 118.461C373.374 133.181 345.574 148.251 316.454 160.701C312.044 162.591 307.854 165.051 303.694 167.451C300.804 169.121 300.874 170.981 302.434 174.221C304.254 177.991 306.104 176.491 308.064 175.501C321.914 168.521 336.924 164.591 351.224 158.821C354.074 157.671 355.954 158.901 356.944 161.001C358.314 163.901 355.654 165.051 353.624 165.821C343.124 169.821 332.564 173.651 322.044 177.571C319.094 178.671 316.174 179.851 313.274 181.061C307.684 183.391 306.154 186.961 308.094 192.661C308.864 194.921 310.344 194.351 312.084 194.291C344.334 193.181 376.594 192.481 408.864 193.401C409.504 193.421 410.144 193.471 410.774 193.471C413.094 193.441 415.284 193.961 415.134 196.761C414.984 199.441 412.794 199.931 410.474 199.921C402.614 199.901 394.714 200.241 386.894 199.981C371.814 199.481 356.754 199.911 341.704 200.121C324.894 200.361 308.114 202.181 291.304 202.901C272.884 203.691 254.454 203.001 236.024 202.991C206.064 202.971 176.144 201.161 146.164 201.591C126.854 201.871 107.514 199.981 88.1945 200.011C62.4245 200.051 36.6545 201.001 10.8845 201.551C8.55446 201.601 6.22446 201.601 3.89446 201.701C0.66446 201.841 -0.0655395 199.791 0.00446048 197.201C0.0744605 194.351 1.97446 193.931 4.37446 194.011C13.4845 194.311 22.5845 194.131 31.6945 193.961C57.7545 193.471 83.8345 192.151 109.914 193.661C110.744 193.711 111.584 193.451 112.424 193.341C113.474 194.131 114.584 193.751 115.684 193.481C114.974 192.881 114.264 192.281 113.564 191.681H113.514ZM193.034 194.681C198.134 194.871 203.224 195.071 208.324 195.231C237.434 196.181 266.544 197.101 295.674 195.711C301.054 195.451 302.554 193.901 300.524 188.921C299.104 185.411 298.334 181.591 296.604 178.271C271.674 130.411 227.064 116.131 178.514 125.671C167.694 127.801 159.974 136.421 151.484 143.001C136.284 154.781 125.764 169.751 121.234 188.721C120.334 192.471 120.884 193.431 124.784 193.481C147.534 193.771 170.254 195.501 193.034 194.671V194.681Z" fill="#B9B9B9" fill-opacity="0.15"/>
</svg>
