<svg width="384" height="384" viewBox="0 0 384 384" fill="none" xmlns="http://www.w3.org/2000/svg">
<path fill-rule="evenodd" clip-rule="evenodd" d="M168.881 1.40614C145.243 4.33414 128.059 9.55915 106.381 20.4111C68.0319 39.6091 39.7919 67.8171 20.3069 106.386C-9.9171 166.21 -6.2081 237.416 30.1309 294.991C58.7759 340.378 104.329 370.701 159.39 381.037C175.096 383.985 207.04 384.256 221.881 381.567C272.962 372.312 314.327 347.616 344.082 308.609C411.446 220.298 390.558 94.0381 298.381 32.3681C260.4 6.95714 213.875 -4.16586 168.881 1.40614ZM203.881 88.0011C210.191 90.7791 217.223 98.0651 220.557 105.279C223.295 111.202 223.381 111.894 223.381 127.889C223.381 143.666 223.264 144.638 220.721 150.064C208.664 175.784 177.332 177.251 164.772 152.684C161.215 145.726 159.905 139.053 159.905 127.889C159.905 116.758 161.215 110.051 164.735 103.167C172.672 87.6421 188.837 81.3801 203.881 88.0011ZM116.263 130.948C123.758 136.084 127.681 146.774 126.457 158.724C125.439 168.663 121.44 175.541 114.671 178.995C106.373 183.231 96.2489 180.33 90.4229 172.048C87.5519 167.967 87.3619 167.106 87.0389 156.691C86.7789 148.275 87.0829 144.649 88.3199 141.409C90.2769 136.284 96.1159 130.2 100.317 128.907C105.223 127.397 112.426 128.32 116.263 130.948ZM282.982 129.023C287.492 130.528 292.69 135.451 294.981 140.389C297.335 145.463 297.644 162.82 295.472 168.017C290.782 179.239 278.982 184.042 268.828 178.862C252.885 170.728 252.859 138.569 268.788 130.204C273.651 127.65 277.825 127.303 282.982 129.023ZM228.125 193.824C246.811 198.603 261.59 210.471 269.922 227.389C275.475 238.666 276.885 245.162 276.859 259.349C276.835 272.709 275.554 277.119 270.257 282.086C263.884 288.062 266.225 287.889 191.881 287.889C117.534 287.889 119.833 288.059 113.539 282.086C107.897 276.731 106.881 273.232 106.881 259.159C106.881 244.655 108.845 235.489 114.04 225.741C122.262 210.315 138.668 197.554 155.519 193.474C159.855 192.425 169.085 192.034 190.971 191.972C217.129 191.899 221.438 192.113 228.125 193.824ZM106.881 203.296C106.881 203.52 104.851 206.782 102.37 210.546C92.6679 225.263 88.4249 242.177 89.0519 263.639L89.4379 276.889H77.5609C63.6169 276.889 60.0979 275.689 56.0419 269.549C53.5669 265.802 53.3859 264.783 53.4549 254.955C53.5429 242.351 55.9059 234.074 62.0399 224.889C68.6499 214.99 80.5019 206.579 91.4659 204.008C95.4339 203.078 106.881 202.549 106.881 203.296ZM291.881 203.974C303.317 206.608 314.968 214.774 321.722 224.889C327.856 234.074 330.219 242.351 330.307 254.955C330.376 264.783 330.195 265.802 327.72 269.549C323.664 275.689 320.145 276.889 306.201 276.889H294.324L294.71 263.639C295.337 242.173 290.941 224.915 281.057 210.034C278.76 206.577 276.881 203.554 276.881 203.318C276.881 202.488 287.432 202.95 291.881 203.974Z" fill="#2F2F2F" fill-opacity="0.9"/>
</svg>
