<svg class="w-6 md:w-8 md:h-8" viewBox="0 0 512 410" fill="none" xmlns="http://www.w3.org/2000/svg">
<path fill-rule="evenodd" clip-rule="evenodd" d="M71.3114 0.4892L38.3114 1.0872L30.4404 4.8452C19.9844 9.8382 9.56538 20.0842 4.77338 30.0872L1.41938 37.0872L0.559378 61.0872C0.0863776 74.2872 -0.129622 148.762 0.0803775 226.587L0.461378 368.087L2.64038 374.006C5.62138 382.102 9.78638 388.307 16.5784 394.771C23.4474 401.308 29.2444 404.8 37.3114 407.258C43.0434 409.005 52.8174 409.087 256.311 409.087H469.311L475.698 406.78C487.641 402.467 496.789 395.147 503.966 384.161C511.753 372.243 511.146 385.216 511.549 222.087C511.747 141.787 511.52 67.3122 511.044 56.5872C510.19 37.3482 510.134 36.9932 506.84 30.0872C500.688 17.1862 486.076 4.9662 472.696 1.5322C467.828 0.2832 131.009 -0.5928 71.3114 0.4892ZM168.461 104.52L255.788 158.453L343.187 104.492L430.587 50.5322L445.449 50.8102L460.311 51.0872V204.587V358.087L435.094 358.354L409.877 358.621L409.594 247.187C409.438 185.898 408.997 135.439 408.614 135.056C408.23 134.673 403.055 137.405 397.114 141.128C391.172 144.851 359.761 164.624 327.311 185.069C294.861 205.514 265.515 223.948 262.098 226.034L255.884 229.826L245.598 223.514C239.94 220.043 207.411 199.606 173.311 178.098C98.7154 131.05 103.863 134.202 103.008 135.056C102.625 135.439 102.18 185.898 102.02 247.187L101.729 358.621L76.5204 358.354L51.3114 358.087L51.0584 205.148C50.8564 83.4572 51.0614 52.0462 52.0584 51.4132C52.7474 50.9762 59.5714 50.6112 67.2224 50.6022L81.1334 50.5872L168.461 104.52Z" style= 'fill: var(--dark-gray)'/>
</svg>
