<svg width="1434" height="798" viewBox="0 0 1434 798" fill="none" xmlns="http://www.w3.org/2000/svg">
<path d="M408.152 447.761C366.544 462.853 325.68 478.788 284.182 492.387C246.735 504.652 208.584 514.312 170.785 525.314C160.234 528.397 151.827 525.97 145.712 515.812C139.244 505.079 146.579 496.514 151.671 490.472C192.263 442.601 224.355 387.553 263 338.069C268.556 330.957 273.298 323.115 279.748 313.63C239.724 306.246 201.652 299.556 163.688 292.1C130.301 285.532 97.0581 277.969 63.7074 271.057C55.76 269.397 50.3079 263.72 47.9122 256.708C44.495 246.631 52.782 240.595 58.7945 235.475C89.4265 209.45 120.553 184.116 151.327 158.322C172.103 140.935 192.526 123.011 213.267 105.624C223.442 97.0642 225.197 91.0553 210.977 85.2102C173.672 69.8668 136.224 54.9827 99.85 36.8457C75.8132 24.8567 49.1677 33.1201 23.7556 31.238C13.7115 30.4931 -0.177962 34.1451 0.0779172 17.6415C0.3331 1.4059 14.205 4.53161 24.2156 4.51066C179.558 4.32021 334.929 6.69537 490.208 3.4797C687.449 -0.6206 884.609 -0.776899 1081.76 3.73846C1190.45 6.22427 1299.1 7.52299 1407.84 7.3284C1412.66 7.33676 1417.49 7.61316 1422.32 7.46836C1432.83 7.18022 1432.67 15.3362 1433.78 23.2647C1435.45 34.9468 1427.54 32.8271 1421.79 33.5064C1348.25 42.4926 1278.22 67.07 1207.73 89.6171C1204.11 90.7979 1199.5 89.1816 1198.7 95.1922C1197.83 101.892 1204.26 99.8735 1206.42 102.519C1241.13 145.046 1287.99 173.464 1321.38 217.52C1328.88 227.45 1341.76 230.153 1349.3 241.041C1354.32 248.287 1360.58 255.306 1356.83 263.877C1352.8 273.06 1345.44 278.37 1334.15 278.886C1273.65 281.692 1214.16 292.694 1151.5 306.6C1162.93 320.597 1171.06 334.971 1182.75 344.104C1226.82 378.529 1259.64 425.341 1299.55 464.201C1312.4 476.706 1316.24 489.35 1307.47 504.69C1297.91 521.407 1284.3 511.581 1273.2 507.349C1202.88 480.537 1132.45 454.147 1060.55 432.234C1047.6 428.305 1036.72 434.911 1024.35 430.563C1015.37 427.407 1017.68 441.158 1018.34 445.716C1028.57 513.933 1016.89 583.107 1026.54 651.476C1029.3 670.857 1025.97 692.41 1020.99 711.624C1016.47 729.001 1002.43 720.897 993.291 715.138C962.032 695.439 936.795 667.365 909.17 642.619C878.465 615.072 846.262 589.781 813.917 564.605C801.553 554.972 796.922 561.283 793.7 571.654C773.653 636.449 747.471 698.514 723.416 761.578C720.807 768.39 717.985 775.431 714.738 781.705C703.642 803.36 690.011 803.106 679.029 780.686C651.168 723.888 632.44 663.315 616.698 601.522C612.551 585.202 606.558 569.377 603.051 552.905C598.807 533.024 591.453 535.347 581.268 547.66C554.881 579.473 528.883 611.632 502.001 642.909C481.42 666.845 455.177 684.222 435.127 709.078C428.147 717.72 417.231 724.479 405.497 718.255C394.65 712.492 393.082 701.04 394.036 689.133C398.622 631.702 403.741 574.349 407.618 516.878C409.131 494.518 407.983 471.962 408.046 447.646L408.152 447.761ZM1195.12 406.083C1197.11 406.546 1200.62 407.854 1200.87 407.357C1202.44 404.066 1199.85 403.717 1197.69 403.331C1195.63 400.647 1193.62 397.924 1191.57 395.24C1119.77 320.445 1048.01 245.651 974.264 168.823C970.286 182.984 968.099 191.328 965.628 199.557C952.272 243.991 952.379 243.8 988.632 267.604C1054.97 311.22 1121.13 355.103 1187.37 398.833C1189.95 401.249 1192.54 403.628 1195.16 406.045L1195.12 406.083ZM242.256 424.804C310.594 382.763 374.796 333.859 439.74 286.183C449.236 279.192 447.263 273.636 441.746 265.508C426.399 242.889 412.118 219.506 401.579 190.653C359.547 245.875 326.984 304.827 284.502 355.606C267.481 375.987 250.246 396.635 239.99 422.465C237.682 422.805 235.692 423.606 237.175 426.557C237.317 426.864 240.515 425.414 242.292 424.805L242.256 424.804ZM1185.34 443.057C1187.82 444.44 1190.33 446.052 1192.68 442.802C1191.16 441.727 1189.67 440.614 1188.15 439.539C1111.02 380.741 1029.86 328.944 948.529 277.338C938.641 271.079 935.506 275.247 930.372 284.008C914.576 310.9 899.984 339.096 870.572 359.953C979.778 382.696 1084.41 405.126 1185.34 443.057ZM771.114 28.933C771.11 30.1967 771.107 31.4986 771.104 32.7622C658.467 32.5672 545.83 32.7167 433.231 31.7558C418.854 31.616 412.881 35.2818 412.52 51.096C410.871 125.572 425.428 192.801 467.26 255.75C527.479 346.263 604.876 383.349 705.837 368.398C736.058 363.932 766.279 359.504 796.639 356.187C831.934 352.342 862.11 337.843 883.135 306.748C934.913 230.291 963.141 145.713 957.392 49.589C956.474 34.0789 952.441 28.711 937.673 28.9152C882.151 29.6614 826.633 29.0674 771.113 28.9713L771.114 28.933ZM992.919 680.635C993.072 621.971 993.961 566.564 993.04 511.191C992.577 484.5 987.889 457.955 986.574 431.263C985.901 417.094 978.884 412.448 967.955 410.63C933.182 404.902 899.128 395.078 864.067 390.614C851.931 389.061 848.654 393.153 845.648 402.797C834.694 437.931 824.13 473.218 812.538 508.083C809.031 518.607 809.118 526.228 818.154 532.562C879.986 575.863 935.049 628.687 992.919 680.635ZM1014.24 154.494C1043.22 189.506 1073.97 225.784 1103.77 263.056C1114.52 276.515 1126.37 279.599 1141.89 277.06C1197.75 267.852 1252.99 254.2 1314.45 250.707C1263.42 200.953 1216.83 152.854 1165.29 110.643C1161 107.151 1157.1 105.919 1152.06 107.633C1103.49 124.206 1054.88 140.703 1014.24 154.494ZM385.183 161.791C340.68 143.18 296.816 124.877 253.059 106.459C248.626 104.613 245.537 104.952 243.323 109.888C234.005 130.435 215.129 140.32 199.865 153.964C165.529 184.616 130.238 214.001 93.3795 245.529C160.208 265.021 225.892 274.44 291.179 286.002C301.079 287.742 305.959 281.241 310.734 274.089C335.075 237.485 359.345 200.843 385.218 161.829L385.183 161.791ZM423.102 678.117C464.918 637.79 500.941 599.713 533.956 558.415C549.698 538.721 572.675 521.376 579.088 498.603C585.753 474.873 566.828 448.84 561.5 423.06C560.448 418.003 559.431 412.947 558.628 407.853C556.706 396.055 551.996 391.873 540.41 397.023C521.93 405.185 503.269 414.496 483.877 418.215C448.325 425.047 435.213 443.787 435.783 483.919C436.649 546.72 423.495 609.114 423.102 678.117ZM823.762 382.694C789.955 387.384 759.166 391.849 728.272 395.778C719.146 396.949 714.454 399.2 715.026 411.378C717.378 462.541 713.021 513.54 710.581 564.618C708.068 616.538 702.679 668.453 704.799 726.853C753.66 611.984 787.466 498.16 823.762 382.656L823.762 382.694ZM580.081 389.701C612.5 495.789 643.264 596.475 674.063 697.161C678.873 663.319 680.448 630.697 681.882 598.074C684.484 539.184 687.229 480.334 689.334 421.443C689.64 413.211 692.933 402.533 678.027 401.282C647.044 398.624 615.841 398.417 580.081 389.739L580.081 389.701ZM526.879 372.032C509.928 351.785 493.399 332.878 477.831 313.092C470.083 303.237 464.831 302.309 454.267 310.371C412.972 341.814 370.898 372.184 328.577 402.017C291.52 428.145 253.755 453.046 216.274 478.484C323.019 450.6 424.764 407.391 526.844 372.032L526.879 372.032ZM1267.61 36.3027C1267.48 34.4261 1267.34 32.5496 1267.2 30.673C1180.66 30.5231 1094.11 30.7561 1007.57 29.8787C991.842 29.7365 984.097 32.1739 985.217 52.0496C986.847 80.4272 987.305 109.109 981.309 135.061C1076.89 102.104 1172.25 69.184 1267.61 36.2644L1267.61 36.3027ZM160.566 31.8962C238.636 69.4433 311.647 100.548 385.87 129.473C385.938 103.358 384.441 78.1585 386.6 53.3486C388.173 35.4305 383.109 30.8266 367.558 31.7569C301.094 35.7774 234.577 33.02 160.566 31.8962Z" fill="#B9B9B9" fill-opacity="0.2"/>
</svg>
