<svg width="230" height="419" viewBox="0 0 230 419" fill="none" xmlns="http://www.w3.org/2000/svg">
<path d="M16.8346 331.751C19.9046 323.061 21.2746 313.961 23.3646 305.041C25.1346 297.491 26.7046 289.901 28.3846 282.241C29.1346 282.541 29.5546 282.581 29.6546 282.771C36.6746 296.971 44.8946 310.571 51.1146 325.171C51.9846 327.201 53.0646 328.831 55.3646 327.901C57.4646 327.051 58.3046 325.291 57.6846 322.771C57.0246 320.081 56.8346 317.261 56.5346 314.491C55.4446 304.551 54.4246 294.611 53.3246 284.671C52.9146 280.961 52.3646 277.271 51.7746 272.741C56.9646 276.261 61.3946 279.171 65.7246 282.211C75.1046 288.801 84.4246 295.491 93.8146 302.071C95.3546 303.151 97.1046 304.741 99.0046 302.811C100.535 301.251 99.6646 299.881 98.6046 298.131C94.0846 290.631 89.9146 282.911 85.5546 275.311C81.6346 268.481 77.6346 261.701 73.2046 254.091C79.0146 256.251 84.3146 255.521 89.4046 256.841C97.2246 258.871 105.435 258.521 113.305 260.551C118.055 261.771 122.985 262.351 127.845 263.131C129.365 263.381 131.105 263.381 131.545 261.491C131.885 260.011 131.915 258.721 130.155 257.361C120.345 249.771 110.785 241.861 100.765 234.511C96.4546 231.351 91.5346 228.801 87.4946 224.091C95.9146 222.891 103.775 221.801 111.615 220.641C119.255 219.511 126.885 218.281 134.525 217.151C136.015 216.931 137.185 216.471 137.315 214.791C137.465 213.011 136.585 212.171 134.815 211.661C129.045 210.011 123.365 208.021 117.585 206.401C108.665 203.911 99.6946 201.641 90.1246 199.111C98.6946 192.791 107.285 187.821 115.765 182.691C121.095 179.471 126.655 176.641 132.055 173.531C133.955 172.431 135.435 170.871 134.625 168.351C133.925 166.191 131.945 167.131 130.775 167.271C123.115 168.151 115.495 169.411 107.835 170.321C99.1046 171.351 90.3546 172.181 81.6046 173.001C79.3646 173.211 78.4046 172.331 79.8846 170.091C87.1746 159.081 94.4346 148.061 101.735 137.051C103.785 133.961 105.905 130.921 107.985 127.851C108.915 126.481 109.065 124.741 108.195 123.661C107.425 122.701 105.915 122.991 104.605 123.921C97.8446 128.711 90.8046 133.051 83.5946 137.131C74.7946 142.101 65.8546 146.831 57.2246 153.031C58.2146 142.231 60.0546 132.261 62.1546 122.311C63.8146 114.441 64.9146 106.461 66.1346 98.501C66.3046 97.421 67.0746 95.731 64.8946 95.271C63.1246 94.901 62.4846 95.661 61.5246 97.131C51.9246 111.801 40.7946 125.311 29.4646 139.111C29.0146 137.711 28.5046 136.501 28.2346 135.241C24.9346 120.111 21.7246 104.961 18.3346 89.851C17.8346 87.641 18.1846 83.901 15.2346 83.921C12.1046 83.941 12.4146 87.871 11.3746 90.181C11.2646 90.421 11.4546 90.791 11.3746 91.071C9.89461 97.341 8.43462 103.621 6.90462 109.881C4.83462 118.371 2.71462 126.851 0.564621 135.531C0.534621 135.511 0.504615 135.481 0.464615 135.461L1.39462 144.821C1.53462 144.821 1.68462 144.791 1.84462 144.761C4.03462 144.341 4.19462 142.461 4.62462 140.621C7.95462 126.461 11.4046 112.331 15.0446 97.251C16.4346 103.691 17.6046 109.361 18.8846 115.001C20.9046 123.921 23.0046 132.831 25.0746 141.751C25.5046 143.591 25.3146 145.771 27.9946 146.171C30.5646 146.551 31.8546 144.851 33.1446 143.171C41.2346 132.681 49.3146 122.181 57.4046 111.691C57.8346 111.141 58.3246 110.631 59.5446 110.501C58.1246 118.271 56.6546 126.021 55.3146 133.801C54.0846 140.921 52.9946 148.061 51.8746 155.191C51.6346 156.701 51.6546 158.101 53.1346 159.231C54.8546 160.531 56.0146 159.281 57.1746 158.561C69.5346 150.821 82.0446 143.321 94.8946 136.411C95.2546 136.071 95.6346 135.301 96.1046 135.821C96.5746 136.331 96.3946 137.111 95.6546 137.541C88.6846 148.981 81.4546 160.261 73.7046 171.181C72.4746 172.921 70.8346 174.661 71.9046 176.871C73.1146 179.371 75.7046 178.341 77.6146 178.161C91.2446 176.821 104.845 175.301 118.465 173.851C119.205 173.771 119.965 173.831 120.675 173.821C120.935 174.691 120.325 174.951 119.855 175.201C107.385 181.661 96.1746 190.181 83.9146 196.971C82.4646 197.771 80.0746 198.241 80.6846 200.671C81.2246 202.811 83.4846 202.621 85.1546 203.051C98.1646 206.411 111.175 209.731 124.195 213.061C124.175 213.451 124.155 213.831 124.125 214.211C116.955 215.301 109.795 216.411 102.625 217.471C95.9346 218.461 89.2146 219.291 82.5446 220.401C81.0646 220.651 79.0646 220.781 78.5346 222.821C77.9246 225.201 79.9746 226.011 81.3746 226.921C95.0146 235.801 107.925 245.671 120.505 255.971C120.755 256.371 121.735 256.441 121.215 257.111C121.065 257.301 120.185 256.931 119.645 256.821C106.095 254.841 92.5446 252.871 78.9946 250.871C76.9146 250.561 74.8346 250.221 72.7946 249.751C70.3446 249.191 69.1946 251.091 67.9446 252.421C66.5146 253.941 67.7846 255.531 68.6746 256.901C75.9046 267.991 82.7146 279.331 88.7946 291.101C88.9946 291.501 89.1946 291.901 89.3946 292.291C89.8046 292.411 90.1846 292.641 89.8846 293.081C89.8046 293.191 89.2246 292.971 88.8746 292.901C88.6146 292.651 88.3646 292.391 88.1046 292.141C76.8246 284.361 65.5246 276.611 54.2946 268.771C52.2546 267.341 50.3046 265.671 47.7846 267.241C45.2546 268.821 46.4446 271.441 46.8646 273.471C49.4446 286.191 49.7246 299.151 51.5946 311.971C49.7046 312.201 49.6646 310.901 49.2146 310.071C43.4346 299.171 37.6646 288.271 31.9046 277.361C31.2046 276.031 30.6246 274.621 29.3646 273.681C26.6346 271.641 25.0146 272.241 24.5546 275.681C22.7146 289.431 18.9746 302.801 16.4046 316.401C16.1546 317.701 15.5746 318.941 15.0746 320.421C11.7646 306.261 8.54461 292.331 5.24461 278.421C4.80461 276.561 4.42462 274.371 2.03462 273.971C2.02462 273.971 2.01462 273.971 2.00462 273.971L0.944626 281.261C0.944626 281.261 1.01463 281.171 1.05463 281.121C1.85463 284.191 2.58462 286.521 3.06462 288.911C5.86462 302.901 10.6846 316.501 11.4446 330.891C11.5546 332.891 12.6346 334.061 14.3046 334.291C15.8146 334.501 16.3446 333.161 16.8546 331.721L16.8346 331.751Z" fill="#B9B9B9" fill-opacity="0.15"/>
<path d="M20.1044 78.151C15.5144 77.361 13.0245 73.831 13.7945 69.211C14.5245 64.811 17.6445 62.491 21.7945 63.251C26.2145 64.061 29.2145 67.871 28.5845 71.891C27.8845 76.341 24.4245 78.901 20.1145 78.161L20.1044 78.151Z" fill="#B9B9B9" fill-opacity="0.15"/>
<path d="M25.0947 40.0011C29.2547 40.7311 32.2747 41.9511 31.6647 46.4811C31.1147 50.5711 26.9447 53.6711 23.0547 53.0011C19.0447 52.3111 17.1047 48.5911 17.8247 43.7411C18.6347 38.3311 22.4447 40.0011 25.0847 40.0011H25.0947Z" fill="#B9B9B9" fill-opacity="0.15"/>
<path d="M25.7553 29.8216C21.8553 28.7716 21.1853 25.8916 21.2853 22.3716C21.3953 18.3616 24.7153 18.2316 27.1353 17.9216C29.7553 17.5816 32.7953 22.0716 32.2853 24.8016C31.6253 28.3516 29.5253 30.1216 25.7553 29.8316V29.8216Z" fill="#B9B9B9" fill-opacity="0.15"/>
<path d="M33.9549 4.98111C33.2949 7.47111 32.1249 9.88111 29.3249 9.04111C27.1749 8.39111 25.9149 6.37111 26.2249 3.53111C26.6249 -0.168888 29.8749 0.661112 31.5149 0.541112C33.2249 0.411112 34.3149 2.85111 33.9649 4.98111H33.9549Z" fill="#B9B9B9" fill-opacity="0.15"/>
<path d="M65.4042 88.6709C61.1242 86.8409 59.5042 82.8309 61.3242 78.5109C63.0542 74.4009 66.6142 72.8509 70.4842 74.5509C74.6042 76.3609 76.6342 80.7609 75.0942 84.5209C73.3942 88.6909 69.4242 90.3809 65.4042 88.6609V88.6709Z" fill="#B9B9B9" fill-opacity="0.15"/>
<path d="M79.0543 52.7006C82.9343 54.3706 85.5942 56.2506 83.9542 60.5206C82.4742 64.3706 77.7042 66.4306 74.0742 64.8806C70.3242 63.2906 69.3042 59.2206 71.1242 54.6606C73.1542 49.5806 76.4843 52.0906 79.0543 52.7006Z" fill="#B9B9B9" fill-opacity="0.15"/>
<path d="M82.0538 42.9505C78.5038 41.0305 78.5138 38.0805 79.4238 34.6705C80.4538 30.8005 83.7138 31.4405 86.1438 31.6905C88.7738 31.9605 90.6938 37.0405 89.5638 39.5705C88.1038 42.8705 85.6538 44.1105 82.0538 42.9505Z" fill="#B9B9B9" fill-opacity="0.15"/>
<path d="M95.7643 20.6709C94.5443 22.9409 92.8543 25.0109 90.3243 23.5509C88.3743 22.4209 87.6243 20.1709 88.5743 17.4809C89.8143 13.9709 92.7943 15.5309 94.4043 15.7909C96.1043 16.0609 96.5943 18.6909 95.7643 20.6809V20.6709Z" fill="#B9B9B9" fill-opacity="0.15"/>
<path d="M108.414 118.171C105.504 114.531 105.974 110.241 109.614 107.291C113.084 104.481 116.954 104.811 119.554 108.131C122.324 111.671 122.044 116.501 118.904 119.091C115.434 121.961 111.144 121.581 108.404 118.171H108.414Z" fill="#B9B9B9" fill-opacity="0.15"/>
<path d="M137.445 92.9214C140.075 96.2314 141.535 99.1414 138.075 102.131C134.955 104.821 129.775 104.391 127.305 101.301C124.755 98.1214 125.775 94.0614 129.535 90.9014C133.725 87.3914 135.475 91.1714 137.445 92.9214Z" fill="#B9B9B9" fill-opacity="0.15"/>
<path d="M144.685 85.7408C142.455 82.3708 143.865 79.7707 146.275 77.2007C149.015 74.2707 151.585 76.3808 153.605 77.7508C155.795 79.2308 155.085 84.6107 152.905 86.3108C150.055 88.5308 147.305 88.4608 144.685 85.7408Z" fill="#B9B9B9" fill-opacity="0.15"/>
<path d="M167.304 72.581C165.154 74.011 162.684 75.031 161.144 72.541C159.964 70.631 160.354 68.281 162.474 66.361C165.224 63.851 167.114 66.641 168.414 67.621C169.784 68.661 168.974 71.211 167.304 72.571V72.581Z" fill="#B9B9B9" fill-opacity="0.15"/>
<path d="M146.275 164.801C145.055 160.301 147.205 156.561 151.725 155.301C156.025 154.111 159.445 155.951 160.505 160.041C161.635 164.391 159.445 168.711 155.535 169.841C151.215 171.081 147.425 169.021 146.275 164.801Z" fill="#B9B9B9" fill-opacity="0.15"/>
<path d="M182.965 153.231C184.065 157.311 184.225 160.571 179.865 161.921C175.925 163.141 171.355 160.681 170.315 156.861C169.245 152.931 171.795 149.611 176.505 148.221C181.745 146.671 181.845 150.831 182.955 153.231H182.965Z" fill="#B9B9B9" fill-opacity="0.15"/>
<path d="M192.475 149.541C191.775 145.561 194.105 143.741 197.345 142.341C201.025 140.751 202.545 143.711 203.845 145.771C205.255 148.001 202.465 152.651 199.785 153.341C196.285 154.241 193.795 153.081 192.475 149.541Z" fill="#B9B9B9" fill-opacity="0.15"/>
<path d="M218.455 146.501C215.915 146.951 213.245 146.901 212.825 144.011C212.505 141.781 213.805 139.791 216.505 138.871C220.035 137.671 220.645 140.971 221.445 142.401C222.285 143.901 220.525 145.921 218.455 146.501Z" fill="#B9B9B9" fill-opacity="0.15"/>
<path d="M152.186 213.911C152.956 209.321 156.486 206.811 161.106 207.571C165.516 208.291 167.846 211.391 167.096 215.551C166.296 219.981 162.506 222.981 158.486 222.371C154.036 221.691 151.456 218.231 152.186 213.921V213.911Z" fill="#B9B9B9" fill-opacity="0.15"/>
<path d="M190.355 218.771C189.645 222.941 188.435 225.961 183.905 225.371C179.815 224.831 176.695 220.681 177.355 216.781C178.025 212.761 181.735 210.811 186.595 211.521C192.005 212.311 190.345 216.131 190.355 218.771Z" fill="#B9B9B9" fill-opacity="0.15"/>
<path d="M200.535 219.401C201.565 215.501 204.445 214.821 207.975 214.901C211.985 215.001 212.125 218.321 212.445 220.741C212.795 223.361 208.315 226.411 205.585 225.911C202.035 225.261 200.255 223.171 200.535 219.401Z" fill="#B9B9B9" fill-opacity="0.15"/>
<path d="M225.405 227.511C222.905 226.861 220.505 225.691 221.335 222.891C221.975 220.731 223.985 219.471 226.825 219.771C230.535 220.161 229.705 223.411 229.835 225.041C229.975 226.751 227.535 227.851 225.405 227.511Z" fill="#B9B9B9" fill-opacity="0.15"/>
<path d="M140.645 263.181C142.765 259.031 146.885 257.711 151.065 259.821C155.045 261.831 156.335 265.501 154.375 269.231C152.285 273.211 147.755 274.931 144.105 273.131C140.065 271.141 138.655 267.071 140.645 263.181Z" fill="#B9B9B9" fill-opacity="0.15"/>
<path d="M175.575 279.311C173.635 283.071 171.575 285.591 167.435 283.661C163.695 281.911 161.975 277.021 163.775 273.501C165.625 269.871 169.755 269.131 174.175 271.271C179.095 273.651 176.365 276.791 175.575 279.321V279.311Z" fill="#B9B9B9" fill-opacity="0.15"/>
<path d="M185.085 282.981C187.245 279.571 190.195 279.791 193.535 280.931C197.325 282.231 196.455 285.441 196.035 287.851C195.585 290.451 190.385 292.011 187.935 290.721C184.745 289.031 183.675 286.501 185.085 282.991V282.981Z" fill="#B9B9B9" fill-opacity="0.15"/>
<path d="M206.365 298.211C204.185 296.841 202.235 295.001 203.875 292.581C205.135 290.721 207.435 290.121 210.055 291.261C213.475 292.741 211.705 295.601 211.335 297.201C210.955 298.881 208.295 299.191 206.365 298.221V298.211Z" fill="#B9B9B9" fill-opacity="0.15"/>
<path d="M102.495 306.231C106.065 303.231 110.365 303.611 113.395 307.181C116.285 310.581 116.045 314.461 112.785 317.141C109.315 320.001 104.475 319.821 101.805 316.751C98.855 313.351 99.135 309.051 102.485 306.231H102.495Z" fill="#B9B9B9" fill-opacity="0.15"/>
<path d="M128.415 334.661C125.175 337.371 122.295 338.891 119.225 335.501C116.455 332.441 116.775 327.261 119.795 324.711C122.915 322.091 127.005 323.011 130.245 326.701C133.855 330.811 130.115 332.641 128.415 334.661Z" fill="#B9B9B9" fill-opacity="0.15"/>
<path d="M135.765 341.74C139.085 339.44 141.715 340.78 144.345 343.13C147.335 345.8 145.285 348.42 143.965 350.47C142.535 352.69 137.145 352.11 135.395 349.97C133.115 347.17 133.115 344.43 135.775 341.74H135.765Z" fill="#B9B9B9" fill-opacity="0.15"/>
<path d="M149.445 364.041C147.965 361.931 146.885 359.481 149.335 357.881C151.215 356.651 153.575 357.001 155.545 359.061C158.115 361.761 155.375 363.701 154.425 365.031C153.415 366.421 150.845 365.681 149.445 364.041Z" fill="#B9B9B9" fill-opacity="0.15"/>
<path d="M57.3553 336.841C61.8853 335.741 65.5753 337.991 66.7053 342.541C67.7853 346.871 65.8453 350.241 61.7353 351.191C57.3553 352.201 53.0953 349.901 52.0753 345.961C50.9453 341.601 53.1053 337.871 57.3553 336.841Z" fill="#B9B9B9" fill-opacity="0.15"/>
<path d="M67.9445 373.831C63.8345 374.821 60.5745 374.901 59.3345 370.501C58.2145 366.531 60.8045 362.031 64.6445 361.091C68.6045 360.131 71.8545 362.771 73.1245 367.511C74.5345 372.791 70.3745 372.781 67.9445 373.821V373.831Z" fill="#B9B9B9" fill-opacity="0.15"/>
<path d="M71.3853 383.442C75.3753 382.852 77.1353 385.232 78.4553 388.502C79.9453 392.222 76.9453 393.662 74.8553 394.912C72.5853 396.262 68.0153 393.352 67.3953 390.652C66.5953 387.132 67.8153 384.672 71.3853 383.442Z" fill="#B9B9B9" fill-opacity="0.15"/>
<path d="M73.7249 409.491C73.3349 406.941 73.4649 404.271 76.3649 403.931C78.5949 403.671 80.5549 405.021 81.4049 407.751C82.5149 411.311 79.1949 411.831 77.7449 412.601C76.2249 413.401 74.2549 411.591 73.7249 409.501V409.491Z" fill="#B9B9B9" fill-opacity="0.15"/>
<path d="M14.175 340.411C18.825 340.701 21.685 343.941 21.415 348.621C21.165 353.081 18.315 355.721 14.105 355.411C9.62503 355.081 6.23503 351.621 6.42503 347.561C6.63503 343.061 9.80504 340.141 14.165 340.411H14.175Z" fill="#B9B9B9" fill-opacity="0.15"/>
<path d="M13.3452 378.871C9.12523 378.601 5.99523 377.711 6.10523 373.141C6.21523 369.021 10.0152 365.481 13.9552 365.721C18.0152 365.971 20.3452 369.461 20.1552 374.361C19.9352 379.821 15.9652 378.581 13.3352 378.861L13.3452 378.871Z" fill="#B9B9B9" fill-opacity="0.15"/>
<path d="M13.785 389.061C17.775 389.681 18.755 392.471 19.035 395.981C19.355 399.971 16.065 400.461 13.695 401.041C11.125 401.661 7.62496 397.521 7.83496 394.761C8.11496 391.161 10.005 389.171 13.785 389.061Z" fill="#B9B9B9" fill-opacity="0.15"/>
<path d="M8.3248 414.651C8.7048 412.101 9.6148 409.581 12.4948 410.121C14.7048 410.531 16.1748 412.401 16.1748 415.261C16.1748 418.991 12.8548 418.511 11.2448 418.811C9.5548 419.131 8.2048 416.811 8.3248 414.661V414.651Z" fill="#B9B9B9" fill-opacity="0.15"/>
</svg>
