<svg width="230" height="419" viewBox="0 0 230 419" fill="none" xmlns="http://www.w3.org/2000/svg">
<path d="M213.471 87.626C210.401 96.316 209.031 105.416 206.941 114.336C205.171 121.886 203.601 129.476 201.921 137.136C201.171 136.836 200.751 136.796 200.651 136.606C193.631 122.406 185.411 108.806 179.191 94.206C178.321 92.176 177.241 90.546 174.941 91.476C172.841 92.326 172.001 94.086 172.621 96.606C173.281 99.296 173.471 102.116 173.771 104.886C174.861 114.826 175.881 124.766 176.981 134.706C177.391 138.416 177.941 142.106 178.531 146.636C173.341 143.116 168.911 140.206 164.581 137.166C155.201 130.576 145.881 123.886 136.491 117.306C134.951 116.226 133.201 114.636 131.301 116.566C129.771 118.126 130.641 119.496 131.701 121.246C136.221 128.746 140.391 136.466 144.751 144.066C148.671 150.896 152.671 157.676 157.101 165.286C151.291 163.126 145.991 163.856 140.901 162.536C133.081 160.506 124.871 160.856 117.001 158.826C112.251 157.606 107.321 157.026 102.461 156.246C100.941 155.996 99.2011 155.996 98.7611 157.886C98.4211 159.366 98.3911 160.656 100.151 162.016C109.961 169.606 119.521 177.516 129.541 184.866C133.851 188.026 138.771 190.576 142.811 195.286C134.391 196.486 126.531 197.576 118.691 198.736C111.051 199.866 103.421 201.096 95.781 202.226C94.291 202.446 93.121 202.906 92.991 204.586C92.841 206.366 93.721 207.206 95.491 207.716C101.261 209.366 106.941 211.356 112.721 212.976C121.641 215.466 130.611 217.736 140.181 220.266C131.611 226.586 123.021 231.556 114.541 236.686C109.211 239.906 103.651 242.736 98.251 245.846C96.351 246.946 94.871 248.506 95.681 251.026C96.381 253.186 98.361 252.246 99.531 252.106C107.191 251.226 114.811 249.966 122.471 249.056C131.201 248.026 139.951 247.196 148.701 246.376C150.941 246.166 151.901 247.046 150.421 249.286C143.131 260.296 135.871 271.316 128.571 282.326C126.521 285.416 124.401 288.456 122.321 291.526C121.391 292.896 121.241 294.636 122.111 295.716C122.881 296.676 124.391 296.386 125.701 295.456C132.461 290.666 139.501 286.326 146.711 282.246C155.511 277.276 164.451 272.546 173.081 266.346C172.091 277.146 170.251 287.116 168.151 297.066C166.491 304.936 165.391 312.916 164.171 320.876C164.001 321.956 163.231 323.646 165.411 324.106C167.181 324.476 167.821 323.716 168.781 322.246C178.381 307.576 189.511 294.066 200.841 280.266C201.291 281.666 201.801 282.876 202.071 284.136C205.371 299.266 208.581 314.416 211.971 329.526C212.471 331.736 212.121 335.476 215.071 335.456C218.201 335.436 217.891 331.506 218.931 329.196C219.041 328.956 218.851 328.586 218.931 328.306C220.411 322.036 221.871 315.756 223.401 309.496C225.471 301.006 227.591 292.526 229.741 283.846C229.771 283.866 229.801 283.896 229.841 283.916L228.911 274.556C228.771 274.556 228.621 274.586 228.461 274.616C226.271 275.036 226.111 276.916 225.681 278.756C222.351 292.916 218.901 307.046 215.261 322.126C213.871 315.686 212.701 310.016 211.421 304.376C209.401 295.456 207.301 286.546 205.231 277.626C204.801 275.786 204.991 273.606 202.311 273.206C199.741 272.826 198.451 274.526 197.161 276.206C189.071 286.696 180.991 297.196 172.901 307.686C172.471 308.236 171.981 308.746 170.761 308.876C172.181 301.106 173.651 293.356 174.991 285.576C176.221 278.456 177.311 271.316 178.431 264.186C178.671 262.676 178.651 261.276 177.171 260.146C175.451 258.846 174.291 260.096 173.131 260.816C160.771 268.556 148.261 276.056 135.411 282.966C135.051 283.306 134.671 284.076 134.201 283.556C133.731 283.046 133.911 282.266 134.651 281.836C141.621 270.396 148.851 259.116 156.601 248.196C157.831 246.456 159.471 244.716 158.401 242.506C157.191 240.006 154.601 241.036 152.691 241.216C139.061 242.556 125.461 244.076 111.841 245.526C111.101 245.606 110.341 245.546 109.631 245.556C109.371 244.686 109.981 244.426 110.451 244.176C122.921 237.716 134.131 229.196 146.391 222.406C147.841 221.606 150.231 221.136 149.621 218.706C149.081 216.566 146.821 216.756 145.151 216.326C132.141 212.966 119.131 209.646 106.111 206.316C106.131 205.926 106.151 205.546 106.181 205.166C113.351 204.076 120.511 202.966 127.681 201.906C134.371 200.916 141.091 200.086 147.761 198.976C149.241 198.726 151.241 198.596 151.771 196.556C152.381 194.176 150.331 193.366 148.931 192.456C135.291 183.576 122.381 173.706 109.801 163.406C109.551 163.006 108.571 162.936 109.091 162.266C109.241 162.076 110.121 162.446 110.661 162.556C124.211 164.536 137.761 166.506 151.311 168.506C153.391 168.816 155.471 169.156 157.511 169.626C159.961 170.186 161.111 168.286 162.361 166.956C163.791 165.436 162.521 163.846 161.631 162.476C154.401 151.386 147.591 140.046 141.511 128.276C141.311 127.876 141.111 127.476 140.911 127.086C140.501 126.966 140.121 126.736 140.421 126.296C140.501 126.186 141.081 126.406 141.431 126.476C141.691 126.726 141.941 126.986 142.201 127.236C153.481 135.016 164.781 142.766 176.011 150.606C178.051 152.036 180.001 153.706 182.521 152.136C185.051 150.556 183.861 147.936 183.441 145.906C180.861 133.186 180.581 120.226 178.711 107.406C180.601 107.176 180.641 108.476 181.091 109.306C186.871 120.206 192.641 131.106 198.401 142.016C199.101 143.346 199.681 144.756 200.941 145.696C203.671 147.736 205.291 147.136 205.751 143.696C207.591 129.946 211.331 116.576 213.901 102.976C214.151 101.676 214.731 100.436 215.231 98.956C218.541 113.116 221.761 127.046 225.061 140.956C225.501 142.816 225.881 145.006 228.271 145.406C228.281 145.406 228.291 145.406 228.301 145.406L229.361 138.116C229.361 138.116 229.291 138.206 229.251 138.256C228.451 135.186 227.721 132.856 227.241 130.466C224.441 116.476 219.621 102.876 218.861 88.486C218.751 86.486 217.671 85.316 216.001 85.086C214.491 84.876 213.961 86.216 213.451 87.656L213.471 87.626Z" fill="#B9B9B9" fill-opacity="0.15"/>
<path d="M210.201 341.226C214.791 342.016 217.281 345.546 216.511 350.166C215.781 354.566 212.661 356.886 208.511 356.126C204.091 355.316 201.091 351.506 201.721 347.486C202.421 343.036 205.881 340.476 210.191 341.216L210.201 341.226Z" fill="#B9B9B9" fill-opacity="0.15"/>
<path d="M205.211 379.376C201.051 378.646 198.031 377.426 198.641 372.896C199.191 368.806 203.361 365.706 207.251 366.376C211.261 367.066 213.201 370.786 212.481 375.636C211.671 381.046 207.861 379.376 205.221 379.376H205.211Z" fill="#B9B9B9" fill-opacity="0.15"/>
<path d="M204.55 389.555C208.45 390.605 209.12 393.485 209.02 397.005C208.91 401.015 205.59 401.145 203.17 401.455C200.55 401.795 197.51 397.305 198.02 394.575C198.68 391.025 200.78 389.255 204.55 389.545V389.555Z" fill="#B9B9B9" fill-opacity="0.15"/>
<path d="M196.351 414.396C197.011 411.906 198.181 409.496 200.981 410.336C203.131 410.986 204.391 413.006 204.081 415.846C203.681 419.546 200.431 418.716 198.791 418.836C197.081 418.966 195.991 416.526 196.341 414.396H196.351Z" fill="#B9B9B9" fill-opacity="0.15"/>
<path d="M164.901 330.706C169.181 332.536 170.801 336.546 168.981 340.866C167.251 344.976 163.691 346.526 159.821 344.826C155.701 343.016 153.671 338.616 155.211 334.856C156.911 330.686 160.881 328.996 164.901 330.716V330.706Z" fill="#B9B9B9" fill-opacity="0.15"/>
<path d="M151.251 366.676C147.371 365.006 144.711 363.126 146.351 358.856C147.831 355.006 152.601 352.946 156.231 354.496C159.981 356.086 161.001 360.156 159.181 364.716C157.151 369.796 153.821 367.286 151.251 366.676Z" fill="#B9B9B9" fill-opacity="0.15"/>
<path d="M148.252 376.426C151.802 378.346 151.792 381.296 150.882 384.706C149.852 388.576 146.592 387.936 144.162 387.686C141.532 387.416 139.612 382.336 140.742 379.806C142.202 376.506 144.652 375.266 148.252 376.426Z" fill="#B9B9B9" fill-opacity="0.15"/>
<path d="M134.541 398.706C135.761 396.436 137.451 394.366 139.981 395.826C141.931 396.956 142.681 399.206 141.731 401.896C140.491 405.406 137.511 403.846 135.901 403.586C134.201 403.316 133.711 400.686 134.541 398.696V398.706Z" fill="#B9B9B9" fill-opacity="0.15"/>
<path d="M121.892 301.206C124.802 304.846 124.332 309.136 120.692 312.086C117.222 314.896 113.352 314.566 110.752 311.246C107.982 307.706 108.262 302.876 111.402 300.286C114.872 297.416 119.162 297.796 121.902 301.206H121.892Z" fill="#B9B9B9" fill-opacity="0.15"/>
<path d="M92.8611 326.456C90.2311 323.146 88.7711 320.236 92.2311 317.246C95.3511 314.556 100.531 314.986 103.001 318.076C105.551 321.256 104.531 325.316 100.771 328.476C96.5811 331.986 94.8311 328.206 92.8611 326.456Z" fill="#B9B9B9" fill-opacity="0.15"/>
<path d="M85.6208 333.636C87.8508 337.006 86.4408 339.606 84.0308 342.176C81.2908 345.106 78.7208 342.996 76.7008 341.626C74.5108 340.146 75.2208 334.766 77.4008 333.066C80.2508 330.846 83.0008 330.916 85.6208 333.636Z" fill="#B9B9B9" fill-opacity="0.15"/>
<path d="M63.0012 346.796C65.1512 345.366 67.6212 344.346 69.1612 346.836C70.3412 348.746 69.9512 351.096 67.8312 353.016C65.0812 355.526 63.1912 352.736 61.8912 351.756C60.5212 350.716 61.3312 348.166 63.0012 346.806V346.796Z" fill="#B9B9B9" fill-opacity="0.15"/>
<path d="M84.0308 254.576C85.2508 259.076 83.1008 262.816 78.5808 264.076C74.2808 265.266 70.8608 263.426 69.8008 259.336C68.6708 254.986 70.8608 250.666 74.7708 249.536C79.0908 248.296 82.8808 250.356 84.0308 254.576Z" fill="#B9B9B9" fill-opacity="0.15"/>
<path d="M47.3406 266.146C46.2406 262.066 46.0806 258.806 50.4406 257.456C54.3806 256.236 58.9506 258.696 59.9906 262.516C61.0606 266.446 58.5106 269.766 53.8006 271.156C48.5606 272.706 48.4606 268.546 47.3506 266.146H47.3406Z" fill="#B9B9B9" fill-opacity="0.15"/>
<path d="M37.8306 269.836C38.5306 273.816 36.2006 275.636 32.9606 277.036C29.2806 278.626 27.7606 275.666 26.4606 273.606C25.0506 271.376 27.8406 266.726 30.5206 266.036C34.0206 265.136 36.5106 266.296 37.8306 269.836Z" fill="#B9B9B9" fill-opacity="0.15"/>
<path d="M11.8509 272.876C14.3909 272.426 17.0609 272.476 17.4809 275.366C17.8009 277.596 16.5009 279.586 13.8009 280.506C10.2709 281.706 9.66088 278.406 8.86088 276.976C8.02088 275.476 9.78088 273.456 11.8509 272.876Z" fill="#B9B9B9" fill-opacity="0.15"/>
<path d="M78.1201 205.466C77.3501 210.056 73.8201 212.566 69.2001 211.806C64.7901 211.086 62.4601 207.986 63.2101 203.826C64.0101 199.396 67.8001 196.396 71.8201 197.006C76.2701 197.686 78.8501 201.146 78.1201 205.456V205.466Z" fill="#B9B9B9" fill-opacity="0.15"/>
<path d="M39.9502 200.606C40.6602 196.436 41.8702 193.416 46.4002 194.006C50.4902 194.546 53.6102 198.696 52.9502 202.596C52.2802 206.616 48.5702 208.566 43.7102 207.856C38.3002 207.066 39.9602 203.246 39.9502 200.606Z" fill="#B9B9B9" fill-opacity="0.15"/>
<path d="M29.7702 199.976C28.7402 203.876 25.8602 204.556 22.3302 204.476C18.3202 204.376 18.1802 201.056 17.8602 198.636C17.5102 196.016 21.9902 192.966 24.7202 193.466C28.2702 194.116 30.0502 196.206 29.7702 199.976Z" fill="#B9B9B9" fill-opacity="0.15"/>
<path d="M4.9006 191.866C7.4006 192.516 9.8006 193.686 8.9706 196.486C8.3306 198.646 6.3206 199.906 3.4806 199.606C-0.229399 199.216 0.6006 195.966 0.470601 194.336C0.330601 192.626 2.7706 191.526 4.9006 191.866Z" fill="#B9B9B9" fill-opacity="0.15"/>
<path d="M89.6608 156.196C87.5408 160.346 83.4208 161.666 79.2408 159.556C75.2608 157.546 73.9708 153.876 75.9308 150.146C78.0208 146.166 82.5508 144.446 86.2008 146.246C90.2408 148.236 91.6508 152.306 89.6608 156.196Z" fill="#B9B9B9" fill-opacity="0.15"/>
<path d="M54.7304 140.066C56.6704 136.306 58.7304 133.786 62.8704 135.716C66.6104 137.466 68.3304 142.356 66.5304 145.876C64.6804 149.506 60.5504 150.246 56.1304 148.106C51.2104 145.726 53.9404 142.586 54.7304 140.056V140.066Z" fill="#B9B9B9" fill-opacity="0.15"/>
<path d="M45.2206 136.396C43.0606 139.806 40.1106 139.586 36.7706 138.446C32.9806 137.146 33.8506 133.936 34.2706 131.526C34.7206 128.926 39.9206 127.366 42.3706 128.656C45.5606 130.346 46.6306 132.876 45.2206 136.386V136.396Z" fill="#B9B9B9" fill-opacity="0.15"/>
<path d="M23.9406 121.166C26.1206 122.536 28.0706 124.376 26.4306 126.796C25.1706 128.656 22.8706 129.256 20.2506 128.116C16.8306 126.636 18.6006 123.776 18.9706 122.176C19.3506 120.496 22.0106 120.186 23.9406 121.156V121.166Z" fill="#B9B9B9" fill-opacity="0.15"/>
<path d="M127.811 113.146C124.241 116.146 119.941 115.766 116.911 112.196C114.021 108.796 114.261 104.916 117.521 102.236C120.991 99.3762 125.831 99.5562 128.501 102.626C131.451 106.026 131.171 110.326 127.821 113.146H127.811Z" fill="#B9B9B9" fill-opacity="0.15"/>
<path d="M101.89 84.7162C105.13 82.0062 108.01 80.4862 111.08 83.8762C113.85 86.9362 113.53 92.1162 110.51 94.6662C107.39 97.2862 103.3 96.3662 100.06 92.6762C96.4504 88.5662 100.19 86.7362 101.89 84.7162Z" fill="#B9B9B9" fill-opacity="0.15"/>
<path d="M94.5408 77.6365C91.2208 79.9365 88.5908 78.5965 85.9608 76.2465C82.9708 73.5765 85.0208 70.9565 86.3408 68.9065C87.7708 66.6865 93.1608 67.2665 94.9108 69.4065C97.1908 72.2065 97.1908 74.9465 94.5308 77.6365H94.5408Z" fill="#B9B9B9" fill-opacity="0.15"/>
<path d="M80.8606 55.3364C82.3406 57.4464 83.4206 59.8964 80.9706 61.4964C79.0906 62.7264 76.7306 62.3764 74.7606 60.3164C72.1906 57.6164 74.9306 55.6764 75.8806 54.3464C76.8906 52.9564 79.4606 53.6964 80.8606 55.3364Z" fill="#B9B9B9" fill-opacity="0.15"/>
<path d="M172.95 82.5358C168.42 83.6358 164.73 81.3858 163.6 76.8358C162.52 72.5058 164.46 69.1358 168.57 68.1858C172.95 67.1758 177.21 69.4758 178.23 73.4158C179.36 77.7758 177.2 81.5058 172.95 82.5358Z" fill="#B9B9B9" fill-opacity="0.15"/>
<path d="M162.361 45.5457C166.471 44.5557 169.731 44.4757 170.971 48.8757C172.091 52.8457 169.501 57.3457 165.661 58.2857C161.701 59.2457 158.451 56.6057 157.181 51.8657C155.771 46.5857 159.931 46.5957 162.361 45.5557V45.5457Z" fill="#B9B9B9" fill-opacity="0.15"/>
<path d="M158.92 35.9353C154.93 36.5253 153.17 34.1453 151.85 30.8753C150.36 27.1553 153.36 25.7153 155.45 24.4653C157.72 23.1153 162.29 26.0253 162.91 28.7253C163.71 32.2453 162.49 34.7053 158.92 35.9353Z" fill="#B9B9B9" fill-opacity="0.15"/>
<path d="M156.581 9.88593C156.971 12.4359 156.841 15.1059 153.941 15.4459C151.711 15.7059 149.751 14.3559 148.901 11.6259C147.791 8.06592 151.111 7.54591 152.561 6.77591C154.081 5.97591 156.051 7.78592 156.581 9.87592V9.88593Z" fill="#B9B9B9" fill-opacity="0.15"/>
<path d="M216.131 78.9661C211.481 78.6761 208.621 75.4361 208.891 70.7561C209.141 66.2961 211.991 63.6561 216.201 63.9661C220.681 64.2961 224.071 67.7561 223.881 71.8161C223.671 76.3161 220.501 79.2361 216.141 78.9661H216.131Z" fill="#B9B9B9" fill-opacity="0.15"/>
<path d="M216.96 40.5064C221.18 40.7764 224.31 41.6665 224.2 46.2365C224.09 50.3565 220.29 53.8964 216.35 53.6564C212.29 53.4064 209.96 49.9165 210.15 45.0165C210.37 39.5565 214.34 40.7965 216.97 40.5165L216.96 40.5064Z" fill="#B9B9B9" fill-opacity="0.15"/>
<path d="M216.521 30.3164C212.531 29.6964 211.551 26.9064 211.271 23.3964C210.951 19.4064 214.241 18.9164 216.611 18.3364C219.181 17.7164 222.681 21.8564 222.471 24.6164C222.191 28.2164 220.301 30.2064 216.521 30.3164Z" fill="#B9B9B9" fill-opacity="0.15"/>
<path d="M221.981 4.72638C221.601 7.27638 220.691 9.79638 217.811 9.25638C215.601 8.84638 214.131 6.97636 214.131 4.11636C214.131 0.386362 217.451 0.866374 219.061 0.566374C220.751 0.246374 222.101 2.56637 221.981 4.71637V4.72638Z" fill="#B9B9B9" fill-opacity="0.15"/>
</svg>
