<svg width="450" height="227" viewBox="0 0 450 227" fill="none" xmlns="http://www.w3.org/2000/svg">
<path d="M196.737 10.2058C199.527 38.8558 202.787 65.7958 206.987 92.6158C207.547 96.2158 206.857 97.9658 202.767 98.6058C197.867 99.3858 198.537 95.3258 198.457 93.5558C197.827 80.7458 195.417 68.1858 193.867 55.5158C191.767 38.3458 191.517 20.9558 188.177 3.90576C187.867 2.34576 187.637 0.485756 190.167 0.085756C192.107 -0.224244 193.587 0.275756 194.297 2.08576C195.527 5.22576 196.727 8.39576 196.747 10.1958L196.737 10.2058Z" fill="#7D7D7D" fill-opacity="0.4"/>
<path d="M222.047 30.2262C222.747 45.3762 224.977 62.0862 224.687 78.9362C224.607 83.7762 226.127 88.4362 225.687 93.4362C225.327 97.5062 222.867 96.3762 220.937 96.6462C217.867 97.0762 217.557 94.7362 217.557 92.5362C217.557 80.1662 216.717 67.8662 215.777 55.5362C214.987 45.2162 214.907 34.8462 213.397 24.5662C212.987 21.7562 214.597 19.9362 217.117 19.7262C219.287 19.5462 221.047 20.7762 221.057 23.5362C221.057 25.2162 221.537 26.8862 222.047 30.2062V30.2262Z" fill="#7D7D7D" fill-opacity="0.4"/>
<path d="M331.307 26.9558C330.537 30.7758 327.847 34.6258 325.537 38.4758C311.217 62.4058 297.657 86.8258 281.147 109.406C279.467 111.706 277.737 111.916 275.877 111.596C273.457 111.176 271.187 110.376 273.637 106.776C283.437 92.3858 293.237 77.9758 302.427 63.2058C309.297 52.1658 315.207 40.5258 321.587 29.1858C323.097 26.4958 324.447 23.6158 328.377 23.6358C330.307 23.6358 331.107 24.3358 331.287 26.9658L331.307 26.9558Z" fill="#7D7D7D" fill-opacity="0.4"/>
<path d="M156.147 117.596C145.787 102.576 136.777 86.6862 127.267 71.1162C119.857 58.9862 111.677 47.3362 103.877 35.4462C102.447 33.2662 99.667 30.6962 102.837 28.4062C105.957 26.1562 108.047 28.7462 109.977 31.3362C124.347 50.6262 136.037 71.6262 148.757 91.9562C151.947 97.0662 154.667 102.556 158.457 107.176C162.447 112.046 161.277 114.896 156.147 117.596Z" fill="#7D7D7D" fill-opacity="0.4"/>
<path d="M259.097 101.505C259.227 101.145 259.597 100.205 259.907 99.2354C267.187 77.2054 273.917 54.9754 283.297 33.6954C284.307 31.4054 284.687 27.8554 288.617 29.3454C292.367 30.7654 291.047 33.8554 290.057 36.2654C281.127 58.0354 274.027 80.4554 266.407 102.685C266.067 103.675 266.597 106.885 263.647 105.525C261.957 104.745 259.237 105.145 259.087 101.505H259.097Z" fill="#7D7D7D" fill-opacity="0.4"/>
<path d="M256.477 44.816C255.967 48.616 255.437 53.386 254.657 58.116C252.587 70.646 250.167 83.116 248.417 95.686C247.887 99.526 245.937 99.126 243.507 98.956C240.377 98.726 240.467 97.446 240.867 94.396C243.047 77.816 246.067 61.396 248.797 44.916C249.267 42.106 249.807 39.896 252.887 39.666C255.677 39.456 256.357 41.526 256.477 44.816Z" fill="#7D7D7D" fill-opacity="0.4"/>
<path d="M152.956 53.666C157.026 52.976 158.046 55.766 158.756 57.556C164.456 72.026 170.806 86.216 177.426 100.276C179.186 104.006 177.426 105.606 174.646 106.756C171.376 108.116 171.136 105.086 170.276 103.186C164.316 89.926 158.206 76.736 152.596 63.336C151.336 60.336 149.476 56.246 152.956 53.656V53.666Z" fill="#7D7D7D" fill-opacity="0.4"/>
<path d="M344.077 59.7155C344.087 61.6455 342.867 62.9454 341.777 64.1754C328.737 78.9054 316.297 94.1255 304.477 109.855C301.687 113.575 298.657 117.105 295.947 120.885C294.267 123.225 293.057 123.685 290.437 121.785C287.487 119.645 289.047 118.385 290.317 116.465C298.947 103.435 308.877 91.3955 318.617 79.2255C324.407 71.9955 331.147 65.5355 337.167 58.4655C338.417 56.9955 339.567 56.9855 340.917 56.9955C342.617 57.0055 343.007 58.8255 344.077 59.7255V59.7155Z" fill="#7D7D7D" fill-opacity="0.4"/>
<path d="M149.177 124.666C143.117 129.686 143.397 129.476 138.347 122.936C125.287 105.996 111.907 89.2963 98.817 72.3863C97.327 70.4663 93.517 68.0363 97.277 65.2563C100.677 62.7363 102.967 65.6063 104.997 68.1963C119.707 87.0363 134.447 105.846 149.177 124.676V124.666Z" fill="#7D7D7D" fill-opacity="0.4"/>
<path d="M390.907 74.7861C392.937 74.0661 394.787 74.3861 395.567 76.0461C396.667 78.3761 395.007 79.8061 393.207 81.2261C379.777 91.8261 366.267 102.356 353.077 113.256C341.827 122.546 329.397 130.156 317.787 138.936C315.827 140.416 313.937 142.276 311.477 139.006C309.147 135.906 310.387 134.346 312.957 132.686C338.627 116.156 361.877 96.4261 385.767 77.5361C387.317 76.3161 388.707 74.4461 390.897 74.7861H390.907Z" fill="#7D7D7D" fill-opacity="0.4"/>
<path d="M132.907 142.555C131.877 144.245 131.187 145.865 130.057 147.095C128.807 148.455 127.907 146.785 126.907 146.255C118.237 141.665 111.977 134.145 104.747 127.835C93.377 117.925 82.517 107.445 71.427 97.2254C68.967 94.9654 66.507 92.6954 63.877 90.6554C61.177 88.5654 58.467 85.5954 60.677 82.8554C62.997 79.9754 66.437 82.1754 68.927 84.4654C78.997 93.7054 89.027 102.985 99.167 112.145C108.707 120.765 118.377 129.235 127.977 137.795C129.677 139.315 131.267 140.965 132.917 142.555H132.907Z" fill="#7D7D7D" fill-opacity="0.4"/>
<path d="M205.127 122.766C193.337 124.666 183.157 126.856 173.707 131.666C169.837 133.636 167.057 136.666 164.177 139.686C151.827 152.676 139.467 165.616 134.607 183.716C131.767 194.306 129.597 204.846 131.987 215.826C132.617 218.716 132.987 221.256 128.587 221.396C124.227 221.536 124.087 218.806 123.697 215.696C121.547 198.886 125.757 183.056 133.027 168.426C145.207 143.916 162.507 125.206 190.967 118.376C207.057 114.516 223.097 112.866 239.127 114.336C249.627 115.296 259.907 119.866 269.727 124.586C281.677 130.336 291.597 138.836 300.947 147.806C309.077 155.606 314.097 165.856 317.137 176.796C320.407 188.586 323.297 200.436 321.677 212.906C321.367 215.326 322.077 217.586 318.537 217.776C314.607 217.986 315.087 214.476 315.237 212.916C316.067 204.576 313.917 196.656 312.557 188.616C310.167 174.496 303.897 162.536 293.927 152.076C280.857 138.366 265.077 129.386 247.207 124.296C232.977 120.246 218.277 119.756 205.127 122.766Z" fill="#7D7D7D" fill-opacity="0.4"/>
<path d="M59.577 123.856C60.547 124.216 62.527 124.786 64.367 125.656C83.457 134.756 101.987 145.036 121.557 153.136C124.347 154.296 125.957 155.736 124.447 159.326C122.807 163.226 120.197 161.296 118.477 160.476C98.657 151.066 78.917 141.506 59.237 131.806C57.337 130.866 54.707 129.756 54.937 126.836C55.087 124.886 56.627 124.056 59.577 123.846V123.856Z" fill="#7D7D7D" fill-opacity="0.4"/>
<path d="M358.147 132.736C357.517 134.796 356.427 136.246 354.417 137.436C344.607 143.276 334.827 149.196 325.257 155.426C322.567 157.176 321.657 155.266 320.897 153.986C319.297 151.276 320.147 149.126 323.067 147.466C332.367 142.166 341.547 136.666 350.767 131.236C351.457 130.836 352.057 130.096 352.777 129.976C355.137 129.566 356.747 130.876 358.137 132.746L358.147 132.736Z" fill="#7D7D7D" fill-opacity="0.4"/>
<path d="M120.066 169.206C120.716 172.806 117.356 174.906 113.176 173.526C99.9665 169.146 86.7765 164.716 73.6465 160.116C60.4665 155.506 46.9365 152.096 33.5265 148.296C29.9965 147.296 26.4865 146.086 23.1765 144.526C21.2665 143.626 18.4165 142.456 19.8665 139.396C21.0365 136.916 23.2865 136.886 25.8165 137.636C37.5465 141.106 49.4265 144.126 61.0665 147.896C78.7665 153.626 96.3265 159.786 113.886 165.916C116.106 166.686 118.806 167.016 120.066 169.196V169.206Z" fill="#7D7D7D" fill-opacity="0.4"/>
<path d="M329.316 175.196C327.846 172.206 328.686 171.366 331.016 170.456C346.536 164.386 361.896 157.946 377.826 152.956C389.116 149.416 400.326 145.596 411.486 141.656C414.526 140.586 417.426 140.736 418.656 143.336C419.916 145.986 417.586 147.766 414.906 148.626C408.016 150.846 401.246 153.526 394.256 155.336C379.556 159.146 365.626 164.996 351.526 170.436C345.166 172.896 338.706 175.106 332.416 177.716C328.336 179.406 329.956 175.666 329.316 175.186V175.196Z" fill="#7D7D7D" fill-opacity="0.4"/>
<path d="M115.887 184.356C115.187 188.076 115.137 191.336 110.197 190.026C98.0468 186.816 85.8068 183.996 73.6268 180.916C54.9368 176.186 36.2968 171.316 17.5968 166.646C14.4268 165.856 11.8368 164.896 13.1268 161.086C14.3368 157.516 17.2468 159.146 19.5468 159.706C50.5768 167.376 81.5968 175.096 112.607 182.836C113.837 183.146 114.957 183.906 115.897 184.346L115.887 184.356Z" fill="#7D7D7D" fill-opacity="0.4"/>
<path d="M331.276 189.046C350.676 184.706 370.616 183.596 390.386 181.306C396.716 180.576 403.046 179.976 409.276 178.596C411.906 178.006 414.996 176.856 415.966 180.616C416.986 184.596 413.706 184.996 410.946 185.426C395.526 187.816 380.146 190.356 364.526 191.386C356.716 191.906 348.926 193.366 341.236 194.956C336.086 196.016 332.096 196.156 331.286 189.046H331.276Z" fill="#7D7D7D" fill-opacity="0.4"/>
<path d="M107.197 204.196C98.007 203.866 88.807 203.616 79.617 203.156C77.337 203.046 75.007 202.316 75.137 199.186C75.297 195.416 78.307 195.556 80.697 195.596C89.647 195.756 98.607 195.986 107.517 196.696C109.017 196.816 112.437 195.056 112.647 199.016C112.867 202.946 110.847 204.336 107.187 204.186L107.197 204.196Z" fill="#7D7D7D" fill-opacity="0.4"/>
<path d="M439.806 215.776C427.096 217.296 414.416 215.326 401.716 215.606C391.406 215.836 381.097 215.796 370.787 215.796C359.667 215.796 348.547 215.736 337.427 215.636C333.907 215.606 334.427 212.426 334.267 210.516C333.997 207.416 337.107 208.396 338.547 208.356C347.717 208.116 356.906 208.176 366.086 208.216C381.306 208.266 396.536 208.386 411.757 208.456C422.587 208.506 433.427 208.616 444.257 208.516C446.947 208.486 449.026 208.886 449.306 211.886C449.626 215.286 446.666 214.486 444.836 214.956C443.196 215.376 441.486 215.516 439.806 215.776Z" fill="#7D7D7D" fill-opacity="0.4"/>
<path d="M96.5165 221.396C79.9765 223.536 63.3465 223.566 46.7165 223.986C33.2465 224.326 19.7665 225.256 6.34654 226.476C2.57654 226.816 0.836543 224.626 0.176543 222.506C-0.793457 219.386 2.44654 219.036 4.70654 218.876C15.8565 218.106 27.0165 217.326 38.1865 216.816C50.5565 216.256 62.9565 215.566 75.3265 215.726C86.1665 215.866 96.6165 212.476 107.467 213.086C109.527 213.206 111.137 212.636 111.307 215.556C111.437 217.846 111.007 219.216 108.487 219.546C104.477 220.076 100.497 220.766 96.4965 221.386L96.5165 221.396Z" fill="#7D7D7D" fill-opacity="0.4"/>
</svg>
