<svg width="446" height="288" viewBox="0 0 446 288" fill="none" xmlns="http://www.w3.org/2000/svg">
<path d="M213.585 142.534C248.055 141.644 280.455 168.764 288.755 200.804C298.225 237.354 273.905 270.804 241.905 283.034C222.745 290.354 205.305 286.894 187.285 278.924C173.935 273.024 163.375 263.864 154.475 253.334C144.205 241.174 140.615 226.064 142.745 209.754C144.185 198.704 146.755 188.094 152.345 178.534C161.735 162.484 176.505 153.174 193.735 147.404C200.555 145.114 207.065 141.344 213.595 142.554L213.585 142.534ZM283.035 214.134C281.545 200.044 277.405 183.734 264.375 171.454C253.945 161.624 241.105 155.294 227.495 151.364C220.595 149.374 212.895 148.744 205.595 151.674C195.345 155.774 185.185 159.744 175.705 165.794C151.365 181.354 142.555 221.104 159.295 245.534C174.035 267.044 196.075 278.374 222.535 279.054C240.215 279.504 253.945 269.854 265.785 258.274C276.995 247.314 283.705 233.604 283.025 214.124L283.035 214.134Z" fill="#7D7D7D" fill-opacity="0.4"/>
<path d="M445.265 152.404C445.035 155.254 443.295 155.554 441.585 156.424C429.755 162.384 416.505 163.704 404.185 168.134C380.595 176.604 356.735 184.354 332.965 192.304C329.025 193.624 325.475 195.574 321.885 197.554C319.085 199.094 316.295 199.184 314.375 195.864C312.075 191.884 315.815 191.224 317.795 190.154C332.785 182.074 349.475 178.554 365.375 172.944C385.325 165.904 405.435 159.304 425.615 152.994C429.855 151.664 434.235 150.534 438.555 149.364C441.695 148.524 444.525 149.064 445.265 152.414V152.404Z" fill="#7D7D7D" fill-opacity="0.4"/>
<path d="M148.655 155.914C148.685 157.544 147.865 158.774 146.555 159.294C144.625 160.064 142.645 159.934 140.925 158.454C122.885 142.924 106.525 125.564 88.5849 110.004C76.8649 99.8343 65.8349 88.9943 54.3749 78.5843C51.8149 76.2643 49.5949 74.0343 52.8949 71.0843C55.8049 68.4843 57.9149 71.2743 59.8949 73.0643C83.4049 94.4043 107.745 114.824 130.195 137.324C135.115 142.254 140.425 146.784 145.525 151.524C146.875 152.774 148.335 153.994 148.675 155.914H148.655Z" fill="#7D7D7D" fill-opacity="0.4"/>
<path d="M189.955 123.224C189.955 125.824 189.245 127.454 187.055 127.854C184.895 128.244 183.255 127.944 182.385 125.274C176.425 107.064 168.495 89.6036 163.465 70.9836C158.215 51.5536 151.745 32.3835 143.985 13.7435C142.735 10.7435 141.865 8.51355 145.135 7.22355C148.245 5.99355 150.755 7.40355 152.035 10.7335C153.895 15.6035 156.195 20.3335 157.775 25.2935C167.985 57.3335 177.755 89.5135 189.235 121.134C189.545 121.984 189.835 122.834 189.975 123.214L189.955 123.224Z" fill="#7D7D7D" fill-opacity="0.4"/>
<path d="M6.4255 170.504C11.8955 171.624 18.3955 172.884 24.8755 174.294C54.9355 180.864 85.0055 187.374 115.016 194.174C118.806 195.034 125.746 194.654 124.306 200.654C123.016 206.054 117.176 203.434 113.146 202.464C85.0655 195.704 56.9655 188.994 28.5755 183.594C20.1955 182.004 11.8755 180.044 3.5855 178.024C1.5755 177.534 -0.354497 176.144 0.0555033 173.544C0.535503 170.504 2.9855 170.414 6.4255 170.484V170.504Z" fill="#7D7D7D" fill-opacity="0.4"/>
<path d="M366.875 55.9741C366.995 58.5741 365.285 60.0041 363.815 61.3941C349.965 74.3941 337.615 88.7341 325.385 103.254C313.155 117.774 299.865 131.414 287.005 145.414C285.785 146.744 284.495 148.324 282.915 148.924C281.335 149.524 278.815 149.994 277.695 148.494C276.485 146.884 276.725 144.734 278.425 142.904C290.465 129.824 301.545 115.844 314.555 103.704C319.985 98.6341 324.015 92.5041 328.605 86.8941C337.975 75.4141 348.785 65.3541 358.465 54.2341C360.075 52.3841 361.735 52.0341 363.905 52.9441C365.445 53.5841 367.025 54.0741 366.885 55.9941L366.875 55.9741Z" fill="#7D7D7D" fill-opacity="0.4"/>
<path d="M232.295 117.453C230.735 116.683 227.925 115.913 229.235 111.653C235.965 89.7835 242.975 67.9835 249.025 45.9235C252.905 31.7435 257.645 17.9035 262.375 4.02347C263.405 0.993472 264.655 -0.606528 267.585 0.213472C271.155 1.21347 270.955 3.84347 269.865 6.85347C259.575 35.5035 252.785 65.2335 242.995 94.0435C241.035 99.8035 240.055 105.883 238.375 111.743C237.645 114.283 237.275 117.463 232.285 117.453H232.295Z" fill="#7D7D7D" fill-opacity="0.4"/>
<path d="M330.435 210.664C338.355 210.514 343.115 214.824 343.415 222.444C343.695 229.684 338.115 235.634 330.965 235.694C323.995 235.754 318.645 231.034 318.465 224.664C318.195 215.414 322.115 210.834 330.445 210.674L330.435 210.664Z" fill="#7D7D7D" fill-opacity="0.4"/>
<path d="M261.375 136.604C254.565 137.024 249.315 132.204 248.615 124.914C248.095 119.424 254.455 112.374 260.305 111.974C266.825 111.534 273.325 116.834 273.745 122.934C274.315 131.174 269.865 136.074 261.365 136.594L261.375 136.604Z" fill="#7D7D7D" fill-opacity="0.4"/>
<path d="M309.315 173.574C302.755 173.724 295.865 168.194 295.765 162.684C295.635 155.944 301.625 150.004 308.755 149.804C316.115 149.594 321.685 154.924 321.965 162.444C322.225 169.234 317.495 173.384 309.315 173.574Z" fill="#7D7D7D" fill-opacity="0.4"/>
<path d="M156.935 142.694C150.195 142.754 147.245 140.044 147.195 133.734C147.135 127.254 152.775 121.734 159.565 121.624C165.625 121.524 170.685 126.444 170.565 132.304C170.435 138.694 165.285 142.624 156.935 142.694Z" fill="#7D7D7D" fill-opacity="0.4"/>
<path d="M126.965 222.854C127.065 229.794 122.585 234.414 115.605 234.554C108.955 234.684 104.705 230.764 104.675 224.474C104.645 217.774 109.405 212.344 115.455 212.164C122.155 211.964 126.865 216.334 126.955 222.844L126.965 222.854Z" fill="#7D7D7D" fill-opacity="0.4"/>
<path d="M197.965 110.104C197.795 102.214 201.375 98.0343 208.335 97.9943C214.185 97.9643 219.955 103.444 220.125 109.184C220.265 114.084 214.275 119.974 208.935 120.154C202.755 120.364 198.085 116.094 197.965 110.104Z" fill="#7D7D7D" fill-opacity="0.4"/>
<path d="M125.155 183.914C119.495 184.144 114.715 179.544 114.535 173.694C114.335 167.164 118.475 162.114 124.305 161.774C130.175 161.424 136.175 166.954 136.235 172.754C136.285 178.284 130.925 183.694 125.155 183.924V183.914Z" fill="#7D7D7D" fill-opacity="0.4"/>
<path d="M194.375 78.1343C194.315 71.0743 197.975 66.5743 204.005 66.3143C210.535 66.0343 216.165 69.8343 216.345 74.6343C216.565 80.4743 209.645 87.9343 204.025 87.9043C198.575 87.8743 194.425 83.6743 194.375 78.1243V78.1343Z" fill="#7D7D7D" fill-opacity="0.4"/>
<path d="M368.095 232.054C362.345 232.244 356.485 227.524 356.315 222.564C356.085 216.034 360.135 211.314 366.145 211.114C373.025 210.894 378.085 215.164 378.285 221.364C378.465 226.954 373.795 231.864 368.095 232.054Z" fill="#7D7D7D" fill-opacity="0.4"/>
<path d="M277.905 103.164C272.975 103.294 268.905 98.7839 268.725 92.9739C268.555 87.4839 273.375 82.1939 278.565 82.1739C284.585 82.1539 289.535 86.4439 289.695 91.8239C289.895 98.4839 285.245 102.964 277.915 103.164H277.905Z" fill="#7D7D7D" fill-opacity="0.4"/>
<path d="M141.205 96.9744C148.755 96.7944 151.705 99.1444 151.785 105.394C151.855 111.354 147.595 116.054 141.915 116.284C136.135 116.514 129.475 110.884 129.485 105.754C129.485 101.514 135.365 97.1144 141.215 96.9744H141.205Z" fill="#7D7D7D" fill-opacity="0.4"/>
<path d="M95.855 167.944C89.615 167.924 84.775 163.494 84.695 157.714C84.625 152.534 89.945 147.044 94.825 147.254C100.955 147.524 105.595 152.224 105.705 158.284C105.805 164.104 101.865 167.964 95.855 167.944Z" fill="#7D7D7D" fill-opacity="0.4"/>
<path d="M69.7348 226.023C69.6548 219.723 70.6148 214.963 77.4148 214.623C83.5548 214.313 89.2348 219.553 89.3248 225.443C89.4248 231.513 84.5048 235.363 77.1948 235.633C69.0548 235.933 70.4548 229.893 69.7348 226.023Z" fill="#7D7D7D" fill-opacity="0.4"/>
<path d="M344.115 144.224C343.935 150.994 340.755 154.544 334.845 154.574C329.255 154.604 324.095 149.034 324.585 143.494C325.025 138.494 330.245 133.564 334.915 133.744C340.755 133.974 344.285 137.984 344.115 144.224Z" fill="#7D7D7D" fill-opacity="0.4"/>
<path d="M122.165 86.3542C116.695 86.4542 110.945 81.9942 110.525 77.6942C110.115 73.4142 115.895 68.2942 121.235 68.2142C126.725 68.1342 129.925 71.8142 130.135 78.2442C130.335 84.1442 127.686 86.9342 122.156 86.3542H122.165Z" fill="#7D7D7D" fill-opacity="0.4"/>
<path d="M412.235 218.934C412.595 223.964 408.915 228.114 403.925 228.324C397.835 228.584 393.855 225.304 393.715 219.904C393.595 215.104 398.255 210.234 403.265 210.494C408.355 210.764 411.865 213.264 412.235 218.934Z" fill="#7D7D7D" fill-opacity="0.4"/>
<path d="M54.6452 227.844C54.1852 233.844 50.1452 235.614 44.9652 236.434C39.0652 237.374 37.9652 232.544 36.8452 229.084C35.6252 225.344 41.3752 219.664 45.4952 219.654C50.8752 219.654 54.0452 222.234 54.6452 227.834V227.844Z" fill="#7D7D7D" fill-opacity="0.4"/>
<path d="M193.505 44.6342C193.145 38.9842 196.025 36.7942 201.435 36.6642C206.765 36.5342 209.505 39.5842 209.405 44.1142C209.305 48.5142 207.255 52.8242 201.845 53.3942C197.135 53.8942 193.565 49.9542 193.505 44.6342Z" fill="#7D7D7D" fill-opacity="0.4"/>
<path d="M294.786 71.9639C288.806 73.3339 287.726 66.9439 288.076 64.9539C288.756 61.0939 290.056 55.4739 295.946 55.5139C301.296 55.5539 304.526 58.8539 304.216 64.2439C303.896 69.7039 300.406 72.3239 294.796 71.9639H294.786Z" fill="#7D7D7D" fill-opacity="0.4"/>
<path d="M74.6748 144.074C74.8348 150.234 71.9148 152.024 67.3148 152.044C63.3948 152.064 57.3448 146.934 57.9448 143.354C58.6348 139.234 61.4748 136.664 66.0748 136.664C71.7648 136.664 74.3048 139.764 74.6848 144.074H74.6748Z" fill="#7D7D7D" fill-opacity="0.4"/>
<path d="M361.115 131.664C356.405 132.734 354.815 129.804 354.845 125.534C354.885 120.474 356.945 116.544 362.555 116.444C367.805 116.354 370.145 119.584 370.175 124.754C370.205 130.844 366.365 131.874 361.115 131.654V131.664Z" fill="#7D7D7D" fill-opacity="0.4"/>
<path d="M433.415 226.154C429.105 226.314 427.375 223.994 427.265 219.954C427.165 216.304 429.295 214.024 432.485 214.214C435.955 214.424 440.145 215.234 439.685 220.454C439.355 224.174 437.345 226.284 433.415 226.154Z" fill="#7D7D7D" fill-opacity="0.4"/>
<path d="M16.015 222.654C19.845 222.934 23.685 223.994 23.225 228.324C22.865 231.654 20.255 234.054 16.015 234.384C10.485 234.814 10.815 229.824 10.185 227.464C9.52505 224.994 12.805 222.724 16.015 222.654Z" fill="#7D7D7D" fill-opacity="0.4"/>
<path d="M391.115 109.884C387.405 110.664 385.235 108.454 385.145 105.364C385.045 102.074 387.555 100.424 391.045 100.084C395.065 99.7037 396.825 102.494 397.055 105.214C397.325 108.524 394.895 110.584 391.115 109.884Z" fill="#7D7D7D" fill-opacity="0.4"/>
<path d="M106.826 47.8139C109.236 48.4439 111.306 49.9939 111.356 53.6539C111.416 57.6839 109.206 58.6639 105.706 58.7539C101.666 58.8539 100.196 55.2739 100.536 53.1639C100.836 51.2739 102.286 47.5739 106.826 47.8139Z" fill="#7D7D7D" fill-opacity="0.4"/>
<path d="M38.0551 123.284C40.9051 124.284 43.5351 124.874 43.5351 128.644C43.5351 131.974 41.8551 132.804 38.9151 133.324C34.7051 134.064 33.1851 130.574 32.7351 128.414C32.0751 125.294 35.9951 124.814 38.0551 123.284Z" fill="#7D7D7D" fill-opacity="0.4"/>
</svg>
