<svg width="396" height="309" viewBox="0 0 396 309" fill="none" xmlns="http://www.w3.org/2000/svg">
<path d="M232.103 208.809C215.293 208.809 198.443 209.519 181.673 208.619C162.963 207.619 144.293 206.779 125.563 207.319C121.503 207.439 117.393 207.319 113.413 207.949C108.783 208.679 107.333 205.949 107.263 202.509C106.983 188.449 106.523 174.479 111.343 160.739C115.203 149.729 121.773 140.589 128.443 131.429C134.953 122.479 143.063 114.929 153.123 110.249C169.353 102.699 186.333 96.9291 204.523 99.1991C224.213 101.659 242.663 107.579 258.413 120.779C276.223 135.719 286.103 154.809 289.833 177.219C291.273 185.899 290.333 194.869 289.913 203.699C289.683 208.459 285.793 208.669 282.353 208.719C274.523 208.819 266.683 208.639 258.853 208.609C249.943 208.579 241.023 208.609 232.113 208.609C232.113 208.669 232.113 208.739 232.113 208.799L232.103 208.809ZM234.673 204.069C238.833 204.069 242.733 204.049 246.643 204.069C258.373 204.149 270.113 204.209 281.843 204.379C284.533 204.419 285.773 203.709 285.683 200.719C285.513 195.359 285.823 189.989 285.763 184.629C285.553 166.929 279.003 151.339 268.523 137.589C257.483 123.119 242.853 113.579 225.303 107.939C197.543 99.0092 172.053 103.889 148.093 119.099C138.303 125.319 131.923 134.979 125.263 144.299C113.253 161.099 110.503 179.979 111.733 199.909C111.893 202.509 113.013 203.579 115.843 203.459C125.253 203.049 134.673 202.749 144.093 202.699C174.383 202.529 204.623 205.699 234.683 204.059L234.673 204.069Z" fill="#7D7D7D" fill-opacity="0.4"/>
<path d="M124.663 122.559C123.473 122.819 122.653 122.059 121.833 121.179C112.843 111.569 104.063 101.759 95.213 92.019C90.953 87.339 86.783 82.479 82.523 77.819C77.663 72.499 73.043 66.689 68.853 60.699C66.973 58.019 64.253 56.109 62.543 53.199C61.573 51.539 59.943 50.309 61.693 48.479C63.373 46.729 64.973 48.239 66.223 49.259C73.453 55.149 80.743 60.969 87.743 67.119C103.633 81.089 118.433 96.279 135.573 108.809C136.443 109.449 136.863 110.249 136.783 111.399C136.523 115.189 128.553 122.659 124.653 122.569L124.663 122.559ZM82.433 68.189C82.163 68.449 81.893 68.719 81.623 68.979C83.363 71.019 85.113 73.039 86.833 75.099C98.433 88.999 110.763 102.249 123.013 115.569C126.653 119.529 128.173 115.789 130.183 114.209C133.103 111.909 130.383 110.619 128.883 109.329C122.973 104.229 116.913 99.279 111.083 94.089C101.463 85.529 91.973 76.829 82.433 68.179V68.189Z" fill="#7D7D7D" fill-opacity="0.4"/>
<path d="M264.893 112.309C264.823 110.629 265.393 109.299 266.603 108.059C273.943 100.489 282.473 94.349 290.513 87.619C295.083 83.789 299.653 79.959 304.003 75.899C313.163 67.359 322.473 59.009 332.333 51.279C334.143 49.859 335.773 49.699 337.213 51.049C338.833 52.569 337.043 53.939 336.193 54.989C329.523 63.249 322.763 71.439 316.003 79.629C304.833 93.159 293.593 106.639 282.473 120.209C278.053 125.609 277.983 125.949 271.393 121.369C268.373 119.269 264.963 116.809 264.883 112.309H264.893ZM316.163 72.029C316.603 71.859 317.043 71.689 317.483 71.519C317.503 71.279 317.573 70.829 317.523 70.819C317.063 70.669 317.013 70.799 317.383 71.139C317.463 71.219 317.453 71.399 317.473 71.539C316.803 71.209 316.043 70.699 316.233 72.149C315.523 71.359 315.293 72.179 314.923 72.539C312.423 74.729 309.943 76.939 307.423 79.109C295.793 89.119 284.093 99.049 272.543 109.159C268.623 112.589 269.093 113.509 273.363 116.879C276.553 119.389 278.283 119.129 280.753 115.779C285.643 109.149 291.213 103.019 296.293 96.519C302.513 88.559 309.773 81.449 315.383 72.999C315.973 72.949 316.203 72.609 316.153 72.039L316.163 72.029Z" fill="#7D7D7D" fill-opacity="0.4"/>
<path d="M314.493 180.709C328.923 181.529 344.523 183.099 360.153 184.179C368.483 184.759 376.873 185.659 385.273 185.289C387.443 185.189 389.633 185.239 391.793 185.449C393.623 185.629 395.113 186.829 395.163 188.639C395.203 190.259 394.003 191.069 392.113 191.499C384.763 193.179 377.253 193.729 369.833 194.839C354.653 197.109 339.303 197.369 324.033 198.529C317.833 198.999 311.563 199.659 305.383 200.679C302.673 201.119 299.013 196.569 298.783 192.309C298.663 190.159 298.523 187.949 298.823 185.839C299.243 182.909 300.173 180.319 304.133 180.669C307.153 180.939 310.213 180.719 314.493 180.719V180.709ZM370.883 189.179C363.443 188.629 355.993 188.099 348.553 187.509C334.553 186.409 320.573 184.919 306.503 185.149C305.673 185.159 304.553 184.789 304.143 185.699C302.953 188.359 303.413 191.079 304.393 193.699C305.213 195.909 307.033 195.949 309.033 195.749C321.853 194.479 334.683 193.389 347.543 192.689C355.383 192.259 363.233 191.619 370.883 189.179Z" fill="#7D7D7D" fill-opacity="0.4"/>
<path d="M81.6833 202.679C71.7533 203.119 61.8433 202.049 51.9533 201.619C35.8033 200.909 19.7233 198.479 3.5033 198.439C2.0933 198.439 0.423296 198.509 0.0632958 196.639C-0.356704 194.439 1.3933 193.879 2.9533 193.679C9.5133 192.839 16.0933 192.189 22.6633 191.379C41.3933 189.069 60.3533 189.269 79.0333 186.299C82.5733 185.739 86.2833 185.879 89.7033 184.939C94.0033 183.749 95.9233 184.689 96.9633 189.229C97.6633 192.289 97.7233 195.259 97.4033 198.159C97.1133 200.769 95.4433 202.859 92.1233 202.709C88.6433 202.549 85.1633 202.669 81.6733 202.669L81.6833 202.679ZM32.1433 195.449C51.0633 196.659 69.3733 197.979 87.7233 198.189C93.6733 198.259 93.9133 197.859 93.2033 191.859C92.9633 189.789 92.4733 189.069 89.9533 189.389C76.6533 191.069 63.3633 192.809 49.9333 193.459C44.2633 193.739 38.3733 193.209 32.1433 195.439V195.449Z" fill="#7D7D7D" fill-opacity="0.4"/>
<path d="M191.643 82.4889C191.743 72.3889 193.383 62.4189 194.113 52.3889C194.933 41.0689 197.033 29.8789 197.093 18.4489C197.113 13.6789 197.933 8.78892 197.663 3.93892C197.553 1.84892 198.713 0.108923 200.113 0.00892299C202.153 -0.141077 203.893 1.61892 203.763 3.86892C203.533 7.80892 204.443 11.5989 204.713 15.4689C205.803 31.2389 207.003 47.0089 208.063 62.7889C208.523 69.5489 208.743 76.3189 209.063 83.0889C209.103 83.9589 209.023 84.8289 209.073 85.6989C209.543 92.6389 208.693 93.5889 201.723 93.8489C194.956 94.0956 191.596 90.8889 191.643 84.2289C191.643 83.6489 191.643 83.0689 191.643 82.4889ZM201.643 33.1489C201.353 33.1489 201.073 33.1589 200.783 33.1689C200.203 38.7989 199.593 44.4289 199.043 50.0589C197.843 62.1489 196.273 74.2089 196.033 86.3889C195.933 91.2889 199.433 89.0989 201.513 89.3789C203.583 89.6589 204.963 89.5089 204.913 86.1889C204.713 73.5589 202.973 61.0389 202.793 48.4189C202.723 43.3189 202.053 38.2289 201.653 33.1389L201.643 33.1489Z" fill="#7D7D7D" fill-opacity="0.4"/>
<path d="M273.333 228.229C268.053 228.799 264.013 231.909 259.883 234.829C246.563 244.219 233.493 247.519 216.803 235.259C206.353 227.579 194.233 226.119 182.083 232.929C177.673 235.399 173.023 237.489 168.363 239.469C159.983 243.029 151.923 242.569 143.233 239.169C133.813 235.479 124.893 230.029 113.973 230.309C107.653 230.469 102.723 233.239 97.5129 235.649C86.5129 240.729 75.073 243.089 63.563 239.059C52.3029 235.119 40.993 233.819 29.253 234.319C27.273 234.399 24.203 235.589 24.293 231.499C24.373 228.049 26.823 228.119 29.173 228.019C41.213 227.489 53.333 227.329 64.683 231.939C74.783 236.039 84.3929 234.929 93.2329 229.729C108.353 220.839 123.563 221.559 138.023 229.589C151.113 236.859 162.613 236.209 175.113 228.699C191.443 218.889 207.523 220.809 222.963 231.659C234.063 239.469 241.873 238.719 255.833 229.279C271.283 218.829 283.263 218.919 298.643 229.649C304.973 234.069 310.963 239.209 319.493 238.499C326.613 237.909 333.013 235.459 339.143 231.839C345.383 228.159 351.563 224.099 359.053 223.329C366.063 222.609 372.873 223.429 379.223 226.709C381.363 227.819 383.493 229.119 382.003 232.039C380.653 234.679 378.323 233.709 376.453 232.949C365.613 228.539 355.633 229.539 345.663 236.009C338.543 240.629 330.773 243.979 321.843 244.769C310.633 245.759 301.743 241.519 293.763 234.649C289.233 230.749 284.203 228.819 278.443 228.249C276.733 228.249 275.033 228.239 273.323 228.229H273.333Z" fill="#7D7D7D" fill-opacity="0.4"/>
<path d="M42.493 293.029C51.583 293.279 60.053 296.089 68.443 299.349C77.123 302.719 85.493 302.049 93.643 297.339C108.053 289.009 122.903 287.849 138.133 295.149C144.493 298.199 151.103 300.669 158.053 301.819C162.623 302.579 167.253 302.119 171.583 299.789C176.043 297.389 180.693 295.299 185.323 293.229C198.733 287.229 210.973 292.889 223.033 297.659C232.863 301.549 241.513 301.639 251.023 296.069C266.333 287.089 282.023 285.299 298.423 295.279C310.573 302.669 324.203 302.849 336.623 295.359C350.093 287.249 363.583 288.909 377.423 293.159C379.793 293.889 382.893 294.759 381.763 298.169C380.503 301.969 377.743 300.259 375.073 299.459C362.313 295.629 350.203 295.459 337.823 302.409C324.033 310.149 309.013 308.859 295.513 301.459C281.283 293.649 268.163 293.649 254.603 302.179C242.763 309.629 230.333 308.749 218.303 303.089C211.273 299.789 203.883 298.449 196.513 297.209C192.833 296.589 188.733 298.699 185.433 300.809C168.893 311.369 152.383 310.079 135.523 301.549C122.773 295.099 110.383 295.269 97.783 303.149C87.203 309.769 76.023 310.009 63.983 304.769C53.903 300.379 42.833 297.269 31.463 301.579C29.103 302.479 26.483 302.569 25.703 299.689C24.893 296.699 27.343 296.389 29.703 295.389C33.893 293.609 38.033 292.859 42.483 293.029H42.493Z" fill="#7D7D7D" fill-opacity="0.4"/>
<path d="M39.3131 262.419C46.9531 262.339 54.1231 264.449 61.2431 266.929C73.0331 271.039 84.7431 272.239 95.8831 264.989C111.033 255.129 126.733 257.199 141.533 264.609C156.633 272.159 170.053 271.359 183.813 262.059C195.243 254.339 206.933 258.059 218.223 262.939C223.843 265.359 229.163 268.289 235.323 269.459C241.593 270.649 247.563 269.949 252.143 265.869C269.023 250.799 284.823 254.749 300.173 264.769C312.213 272.619 324.233 272.109 336.413 266.399C347.613 261.139 358.923 257.339 371.533 258.509C374.733 258.809 377.683 259.659 380.673 260.589C382.423 261.129 383.423 262.089 383.223 264.219C382.963 267.029 380.943 266.349 379.473 266.239C375.553 265.949 371.653 265.439 367.753 264.939C357.833 263.669 349.373 267.949 340.943 272.109C329.163 277.929 316.853 277.869 304.583 274.889C297.573 273.189 292.243 267.499 285.313 265.059C275.723 261.699 266.733 261.449 258.813 268.739C248.013 278.689 235.963 278.189 223.403 273.149C217.043 270.599 211.193 266.709 204.303 265.529C198.093 264.469 192.073 263.959 186.263 267.839C173.543 276.349 159.853 279.679 144.973 273.879C139.913 271.909 135.003 269.519 129.933 267.579C120.123 263.819 110.653 263.919 101.433 269.819C92.5031 275.529 82.6631 277.609 71.9731 276.459C69.2931 276.169 66.2131 275.949 64.2031 274.959C53.1431 269.509 41.4731 269.859 29.7131 270.029C28.3131 270.049 26.0031 271.159 25.6131 268.499C25.3131 266.459 26.7131 264.939 28.2531 264.009C31.6531 261.939 35.5431 262.489 39.3031 262.399L39.3131 262.419Z" fill="#7D7D7D" fill-opacity="0.4"/>
</svg>
