<svg width="442" height="229" viewBox="0 0 442 229" fill="none" xmlns="http://www.w3.org/2000/svg">
<path d="M200.401 105.273C202.441 98.883 201.731 92.233 202.131 85.693C203.301 66.683 204.661 47.673 205.141 28.643C205.341 20.913 206.471 13.253 206.281 5.52299C206.221 2.77299 207.021 0.712995 209.951 0.132995C212.891 -0.447005 214.761 1.17299 215.831 3.63299C217.431 7.35299 218.131 11.313 218.211 15.383C218.761 42.053 223.331 68.283 226.931 94.613C227.121 96.033 226.891 98.733 230.051 99.953C231.251 91.093 233.751 82.793 235.321 74.353C238.411 57.783 243.421 41.723 247.161 25.343C248.591 19.083 251.241 13.123 251.501 6.54299C251.631 3.173 252.711 -0.317005 257.221 0.0229949C262.211 0.392995 261.181 4.43299 260.671 7.25299C255.941 33.573 254.251 60.283 250.181 86.693C248.981 94.483 249.481 102.543 249.281 110.483C249.251 111.673 248.471 113.483 250.401 113.803C251.851 114.053 252.591 112.723 253.281 111.493C260.061 99.573 265.751 87.123 271.421 74.663C276.991 62.423 282.271 50.063 287.641 37.743C290.961 30.123 294.351 22.543 297.411 14.823C298.661 11.653 300.531 9.29299 303.641 11.123C306.131 12.593 307.371 15.373 305.921 19.113C301.341 30.893 297.101 42.813 293.071 54.793C286.401 74.583 279.991 94.463 273.001 115.753C278.971 112.393 281.311 107.723 284.201 103.993C296.251 88.453 307.601 72.373 319.331 56.583C325.061 48.873 331.411 41.593 336.791 33.653C339.091 30.263 341.711 30.403 344.001 31.663C347.281 33.463 344.551 36.093 343.401 37.843C325.681 64.833 311.701 94.013 294.331 121.203C294.021 121.683 294.041 122.373 293.901 123.013C296.431 124.393 297.271 122.153 298.401 121.093C317.251 103.523 336.111 85.953 354.801 68.213C359.061 64.173 363.901 60.933 368.251 57.063C370.341 55.203 372.171 54.643 374.011 56.613C375.771 58.503 375.231 60.603 373.591 62.613C367.111 70.593 360.821 78.723 354.301 86.673C339.081 105.203 323.761 123.663 308.191 142.493C309.921 143.143 310.821 143.533 312.431 142.493C331.071 130.553 349.801 118.733 368.541 106.943C376.991 101.623 385.551 96.483 394.021 91.183C396.871 89.403 399.631 89.193 401.621 92.033C403.681 94.973 401.621 97.073 399.321 98.833C375.501 117.173 350.901 134.513 327.951 154.003C326.431 155.293 324.681 156.303 322.501 157.813C325.191 158.853 327.141 158.873 329.511 158.123C359.241 148.703 388.941 139.183 419.201 131.513C422.671 130.633 425.621 129.773 427.131 133.343C428.871 137.433 425.071 138.973 422.311 139.903C401.041 147.073 380.571 156.143 360.001 165.043C347.631 170.393 335.611 176.403 323.621 183.303C333.791 183.023 343.971 182.993 354.131 182.423C371.451 181.443 388.741 180.053 406.051 178.983C413.711 178.513 421.401 178.533 429.061 178.093C432.131 177.923 435.741 177.223 436.371 181.033C437.171 185.873 432.351 186.003 429.521 186.383C416.341 188.123 403.291 190.503 390.341 193.463C369.251 198.273 348.181 203.173 327.111 208.073C326.841 208.133 326.701 208.763 326.171 209.763C331.081 210.613 335.751 211.953 340.461 212.153C359.501 212.933 378.451 215.043 397.511 215.633C410.541 216.043 423.531 218.053 436.531 219.493C439.241 219.793 442.261 220.753 441.641 224.313C441.121 227.323 438.171 227.293 435.731 227.263C406.481 226.913 377.231 226.593 347.981 226.143C320.691 225.723 293.431 227.073 266.121 226.503C248.561 226.133 230.921 227.103 213.321 227.423C190.991 227.823 168.641 227.403 146.351 228.073C99.651 229.483 53.051 227.233 6.41104 225.993C4.02104 225.933 0.271045 227.783 0.011045 222.593C-0.218955 217.973 3.19104 218.133 5.77104 217.863C16.541 216.703 27.351 216.293 38.181 215.943C57.261 215.323 76.411 215.233 95.411 212.013C77.971 207.113 60.431 202.873 42.591 199.803C31.161 197.833 19.971 194.593 8.46104 192.803C6.04104 192.423 2.25105 190.263 2.95105 186.403C3.63105 182.623 7.13104 183.573 9.61104 183.873C22.971 185.463 36.261 187.663 49.651 188.873C68.951 190.613 87.991 194.863 107.471 194.713C109.051 194.763 110.641 194.813 113.591 194.913C110.701 193.913 109.121 193.363 107.531 192.813C92.821 187.683 78.091 182.603 63.411 177.393C46.721 171.473 30.151 165.193 13.331 159.663C9.98105 158.563 8.49104 156.173 8.57104 154.233C8.71104 150.773 12.201 151.083 14.891 151.293C25.621 152.113 35.571 156.253 45.931 158.603C65.201 162.983 84.461 167.453 103.731 171.833C105.021 172.123 106.411 171.953 109.321 172.043C88.481 160.223 71.121 145.873 52.511 133.293C44.431 127.833 36.151 122.383 29.321 115.173C27.271 113.013 25.781 110.773 27.881 108.203C30.041 105.553 32.671 106.813 35.091 108.303C45.911 114.963 56.531 121.973 67.631 128.143C81.371 135.783 95.481 142.743 109.471 149.923C110.801 150.603 112.381 151.003 114.261 149.833C105.311 139.193 94.301 131.003 83.921 122.113C76.341 115.623 69.141 108.673 61.701 102.023C57.821 98.553 53.741 95.303 49.801 91.893C47.401 89.813 44.701 86.653 46.361 84.123C48.191 81.333 51.481 83.813 53.981 85.273C81.881 101.523 107.111 121.793 134.501 138.813C135.951 139.713 137.381 140.633 139.811 142.163C137.771 134.973 133.261 130.423 129.741 125.593C117.701 109.073 104.761 93.203 92.661 76.723C87.881 70.213 83.821 63.143 78.751 56.783C77.321 54.993 77.541 52.953 78.821 51.183C80.121 49.383 82.111 49.773 83.801 50.303C87.391 51.423 89.731 54.213 92.021 57.013C112.391 81.933 134.391 105.393 156.491 128.753C156.921 129.213 157.521 129.503 158.441 130.153C159.001 125.913 157.071 122.683 155.761 119.413C146.571 96.573 137.301 73.773 127.951 51.003C125.371 44.723 122.681 38.463 119.551 32.443C117.761 29.003 118.171 26.253 121.181 24.593C124.311 22.863 126.831 25.283 128.521 27.693C129.751 29.443 130.151 31.763 131.041 33.783C144.241 63.813 161.101 91.903 176.911 120.653C179.511 117.313 177.511 114.203 177.161 110.933C175.461 95.363 174.421 79.753 172.181 64.203C170.231 50.663 168.301 37.083 166.571 23.483C166.191 20.473 165.761 17.303 164.471 14.623C162.881 11.333 164.551 9.13299 166.611 7.99299C169.051 6.63299 171.511 8.453 172.761 10.783C173.791 12.693 174.141 14.963 174.831 17.063C183.871 44.613 190.201 72.903 197.701 100.863C198.201 102.743 199.341 103.973 200.351 105.423C201.681 105.783 201.861 106.733 201.491 107.853C201.431 108.043 200.771 108.263 200.681 108.173C199.791 107.313 200.001 106.283 200.371 105.263L200.401 105.273ZM147.131 220.753C174.771 220.203 202.421 221.023 230.061 219.933C254.061 218.983 278.131 219.193 302.161 219.383C307.601 219.433 308.231 217.593 306.991 213.333C304.161 203.603 301.341 193.903 296.511 184.883C284.871 163.163 265.531 151.283 243.191 143.643C223.221 136.813 203.081 136.583 183.101 144.403C175.191 147.503 168.751 152.853 162.011 157.653C141.291 172.413 130.921 193.243 127.841 218.103C127.461 221.193 129.141 221.363 131.511 221.243C136.711 220.983 141.921 220.903 147.131 220.753Z" fill="#7D7D7D" fill-opacity="0.4"/>
</svg>
