<svg width="254" height="451" viewBox="0 0 254 451" fill="none" xmlns="http://www.w3.org/2000/svg">
<g clip-path="url(#clip0_213_69)">
<path d="M122.9 245.048C124.8 256.838 126.99 267.018 131.8 276.468C133.77 280.338 136.8 283.118 139.82 285.998C152.81 298.348 165.75 310.708 183.85 315.568C194.44 318.408 204.98 320.578 215.96 318.188C218.85 317.558 221.39 317.188 221.53 321.588C221.67 325.948 218.94 326.088 215.83 326.478C199.02 328.628 183.19 324.418 168.56 317.148C144.05 304.968 125.34 287.668 118.51 259.208C114.65 243.118 113 227.078 114.47 211.048C115.43 200.548 120 190.268 124.72 180.448C130.47 168.498 138.97 158.578 147.94 149.228C155.74 141.098 165.99 136.078 176.93 133.038C188.72 129.768 200.57 126.878 213.04 128.498C215.46 128.808 217.72 128.098 217.91 131.638C218.12 135.568 214.61 135.088 213.05 134.938C204.71 134.108 196.79 136.258 188.75 137.618C174.63 140.008 162.67 146.278 152.21 156.248C138.5 169.318 129.52 185.098 124.43 202.968C120.38 217.198 119.89 231.898 122.9 245.048Z" fill="#7D7D7D" fill-opacity="0.4"/>
<path d="M215.911 10.3683C217.431 23.0783 215.461 35.7583 215.741 48.4583C215.971 58.7683 215.931 69.0783 215.931 79.3883C215.931 90.5083 215.871 101.628 215.771 112.748C215.741 116.268 212.561 115.748 210.651 115.908C207.551 116.178 208.531 113.068 208.491 111.628C208.251 102.458 208.311 93.2683 208.351 84.0883C208.401 68.8683 208.521 53.6383 208.591 38.4183C208.641 27.5883 208.751 16.7483 208.651 5.9183C208.621 3.2283 209.021 1.14832 212.021 0.868317C215.421 0.548317 214.621 3.50832 215.091 5.33832C215.511 6.97832 215.651 8.68832 215.911 10.3683Z" fill="#7D7D7D" fill-opacity="0.4"/>
<path d="M221.531 353.658C223.671 370.198 223.701 386.828 224.121 403.458C224.461 416.928 225.391 430.408 226.611 443.828C226.951 447.598 224.761 449.338 222.641 449.998C219.521 450.968 219.171 447.728 219.011 445.468C218.241 434.318 217.461 423.158 216.951 411.988C216.391 399.618 215.701 387.218 215.861 374.848C216.001 364.008 212.611 353.558 213.221 342.708C213.341 340.648 212.771 339.038 215.691 338.868C217.981 338.738 219.351 339.168 219.681 341.688C220.211 345.698 220.901 349.678 221.521 353.678L221.531 353.658Z" fill="#7D7D7D" fill-opacity="0.4"/>
<path d="M169.34 330.108C172.94 329.458 175.04 332.818 173.66 336.998C169.28 350.208 164.85 363.398 160.25 376.538C155.64 389.718 152.23 403.248 148.43 416.658C147.43 420.188 146.22 423.698 144.66 427.008C143.76 428.918 142.59 431.768 139.53 430.318C137.05 429.148 137.02 426.898 137.77 424.368C141.24 412.638 144.26 400.758 148.03 389.118C153.76 371.418 159.92 353.858 166.05 336.298C166.82 334.078 167.15 331.378 169.33 330.118L169.34 330.108Z" fill="#7D7D7D" fill-opacity="0.4"/>
<path d="M117.72 294.028C102.7 304.388 86.8102 313.398 71.2402 322.908C59.1102 330.318 47.4602 338.498 35.5702 346.298C33.3902 347.728 30.8202 350.508 28.5302 347.338C26.2802 344.218 28.8702 342.128 31.4602 340.198C50.7502 325.828 71.7402 314.138 92.0802 301.418C97.1902 298.228 102.68 295.508 107.3 291.718C112.17 287.728 115.02 288.898 117.72 294.028Z" fill="#7D7D7D" fill-opacity="0.4"/>
<path d="M74.9208 59.2681C74.2008 57.2381 74.5208 55.3881 76.1808 54.6081C78.5108 53.5081 79.9408 55.1681 81.3608 56.9681C91.9608 70.3981 102.491 83.9081 113.391 97.0981C122.681 108.348 130.291 120.778 139.071 132.388C140.551 134.348 142.411 136.238 139.141 138.698C136.041 141.028 134.481 139.788 132.821 137.218C116.291 111.548 96.5608 88.2981 77.6708 64.4081C76.4508 62.8581 74.5808 61.4681 74.9208 59.2781V59.2681Z" fill="#7D7D7D" fill-opacity="0.4"/>
<path d="M27.0906 118.868C30.9106 119.638 34.7606 122.328 38.6106 124.638C62.5406 138.958 86.9606 152.518 109.541 169.028C111.841 170.708 112.051 172.438 111.731 174.288C111.311 176.708 110.521 178.978 106.911 176.528C92.5206 166.728 78.1106 156.928 63.3406 147.738C52.3006 140.868 40.6606 134.958 29.3206 128.578C26.6306 127.068 23.7506 125.718 23.7706 121.788C23.7706 119.858 24.4706 119.058 27.1006 118.878L27.0906 118.868Z" fill="#7D7D7D" fill-opacity="0.4"/>
<path d="M184.491 334.288C188.211 334.988 191.471 335.038 190.161 339.978C186.951 352.128 184.131 364.368 181.051 376.548C176.321 395.238 171.451 413.878 166.781 432.578C165.991 435.748 165.031 438.338 161.221 437.048C157.651 435.838 159.281 432.928 159.841 430.628C167.511 399.598 175.231 368.578 182.971 337.568C183.281 336.338 184.041 335.218 184.481 334.278L184.491 334.288Z" fill="#7D7D7D" fill-opacity="0.4"/>
<path d="M10.3405 253.438C39.0005 250.648 65.9305 247.388 92.7505 243.188C96.3505 242.628 98.1005 243.318 98.7405 247.408C99.5205 252.308 95.4605 251.638 93.6905 251.718C80.8805 252.348 68.3205 254.758 55.6505 256.308C38.4805 258.408 21.0905 258.658 4.04052 261.998C2.48052 262.308 0.620522 262.538 0.220522 260.008C-0.0894783 258.068 0.410522 256.588 2.22052 255.878C5.36052 254.648 8.53052 253.448 10.3305 253.428L10.3405 253.438Z" fill="#7D7D7D" fill-opacity="0.4"/>
<path d="M142.69 317.268C144.38 318.298 146 318.988 147.23 320.118C148.59 321.368 146.92 322.268 146.39 323.268C141.8 331.938 134.28 338.198 127.97 345.428C118.06 356.798 107.58 367.658 97.3602 378.748C95.1002 381.208 92.8302 383.668 90.7902 386.298C88.7002 388.998 85.7301 391.708 82.9901 389.498C80.1101 387.178 82.3101 383.738 84.6001 381.248C93.8401 371.178 103.12 361.148 112.28 351.008C120.9 341.468 129.37 331.798 137.93 322.198C139.45 320.498 141.1 318.908 142.69 317.258V317.268Z" fill="#7D7D7D" fill-opacity="0.4"/>
<path d="M175.33 120.858C172.34 122.328 171.5 121.488 170.59 119.158C164.52 103.638 158.08 88.2783 153.09 72.3483C149.55 61.0583 145.73 49.8483 141.79 38.6883C140.72 35.6483 140.87 32.7483 143.47 31.5183C146.12 30.2583 147.9 32.5883 148.76 35.2683C150.98 42.1583 153.66 48.9283 155.47 55.9183C159.28 70.6183 165.13 84.5483 170.57 98.6483C173.03 105.008 175.24 111.468 177.85 117.758C179.54 121.838 175.8 120.218 175.32 120.858H175.33Z" fill="#7D7D7D" fill-opacity="0.4"/>
<path d="M59.8502 106.098C61.7802 106.088 63.0802 107.308 64.3102 108.398C79.0402 121.438 94.2602 133.878 109.99 145.698C113.71 148.488 117.24 151.518 121.02 154.228C123.36 155.908 123.82 157.118 121.92 159.738C119.78 162.688 118.52 161.128 116.6 159.858C103.57 151.228 91.5302 141.298 79.3602 131.558C72.1302 125.768 65.6702 119.028 58.6002 113.008C57.1302 111.758 57.1202 110.608 57.1302 109.258C57.1402 107.558 58.9602 107.168 59.8602 106.098H59.8502Z" fill="#7D7D7D" fill-opacity="0.4"/>
<path d="M189.18 118.898C184.84 99.4984 183.73 79.5584 181.44 59.7884C180.71 53.4584 180.11 47.1284 178.73 40.8984C178.14 38.2684 176.99 35.1784 180.75 34.2084C184.73 33.1884 185.13 36.4684 185.56 39.2284C187.95 54.6484 190.49 70.0284 191.52 85.6484C192.04 93.4584 193.5 101.248 195.09 108.938C196.15 114.088 196.29 118.078 189.18 118.888V118.898Z" fill="#7D7D7D" fill-opacity="0.4"/>
<path d="M101.64 191.078C101.28 190.948 100.34 190.578 99.3702 190.268C77.3402 182.988 55.1102 176.258 33.8302 166.878C31.5402 165.868 27.9902 165.488 29.4802 161.558C30.9002 157.808 33.9902 159.128 36.4002 160.118C58.1702 169.048 80.5902 176.148 102.82 183.768C103.81 184.108 107.02 183.578 105.66 186.528C104.88 188.218 105.28 190.938 101.64 191.088V191.078Z" fill="#7D7D7D" fill-opacity="0.4"/>
<path d="M30.361 228.128C45.511 227.428 62.221 225.198 79.071 225.488C83.911 225.568 88.571 224.048 93.571 224.488C97.641 224.848 96.511 227.308 96.781 229.238C97.211 232.308 94.871 232.618 92.671 232.618C80.301 232.618 68.001 233.458 55.671 234.398C45.351 235.188 34.981 235.268 24.701 236.778C21.891 237.188 20.071 235.578 19.861 233.058C19.681 230.888 20.911 229.128 23.671 229.118C25.351 229.118 27.021 228.638 30.341 228.128H30.361Z" fill="#7D7D7D" fill-opacity="0.4"/>
<path d="M124.8 300.998C129.82 307.058 129.61 306.778 123.07 311.828C106.13 324.888 89.4301 338.268 72.5201 351.358C70.6001 352.848 68.1701 356.658 65.3901 352.898C62.8701 349.498 65.7401 347.208 68.3301 345.178C87.1701 330.468 105.98 315.728 124.81 300.998H124.8Z" fill="#7D7D7D" fill-opacity="0.4"/>
<path d="M123.99 390.598C124.35 389.628 124.92 387.648 125.79 385.808C134.89 366.718 145.17 348.188 153.27 328.618C154.43 325.828 155.87 324.218 159.46 325.728C163.36 327.368 161.43 329.978 160.61 331.698C151.2 351.518 141.64 371.258 131.94 390.938C131 392.838 129.89 395.468 126.97 395.248C125.02 395.098 124.19 393.558 123.98 390.608L123.99 390.598Z" fill="#7D7D7D" fill-opacity="0.4"/>
<path d="M44.9507 193.699C48.7507 194.209 53.5207 194.739 58.2507 195.519C70.7807 197.589 83.2507 200.009 95.8207 201.759C99.6607 202.289 99.2607 204.239 99.0907 206.669C98.8607 209.799 97.5807 209.709 94.5307 209.309C77.9507 207.129 61.5307 204.099 45.0507 201.379C42.2407 200.909 40.0307 200.369 39.8007 197.289C39.5907 194.499 41.6607 193.819 44.9507 193.699Z" fill="#7D7D7D" fill-opacity="0.4"/>
<path d="M53.8008 297.218C53.1108 293.148 55.9008 292.128 57.6908 291.418C72.1608 285.718 86.3508 279.368 100.411 272.748C104.141 270.988 105.741 272.748 106.891 275.528C108.251 278.798 105.221 279.038 103.321 279.898C90.0608 285.858 76.8708 291.968 63.4708 297.578C60.4708 298.838 56.3808 300.698 53.7908 297.218H53.8008Z" fill="#7D7D7D" fill-opacity="0.4"/>
<path d="M132.871 92.0287C134.931 92.6587 136.381 93.7487 137.571 95.7587C143.411 105.569 149.331 115.349 155.561 124.919C157.311 127.609 155.401 128.519 154.121 129.279C151.411 130.879 149.261 130.029 147.601 127.109C142.301 117.809 136.801 108.629 131.371 99.4087C130.971 98.7187 130.231 98.1188 130.111 97.3988C129.701 95.0388 131.011 93.4287 132.881 92.0387L132.871 92.0287Z" fill="#7D7D7D" fill-opacity="0.4"/>
<path d="M204.331 342.979C204.001 352.169 203.751 361.369 203.291 370.559C203.181 372.839 202.451 375.169 199.321 375.039C195.551 374.879 195.691 371.869 195.731 369.479C195.891 360.529 196.121 351.569 196.831 342.659C196.951 341.159 195.191 337.739 199.151 337.529C203.081 337.309 204.471 339.329 204.321 342.989L204.331 342.979Z" fill="#7D7D7D" fill-opacity="0.4"/>
<path d="M242.99 80.9587C243.7 97.4387 236.12 110.619 227.65 123.519C219.59 135.799 214.26 148.819 217.36 163.989C217.61 165.189 217.16 166.529 217.34 167.759C217.65 169.849 216.89 171.109 214.83 171.239C212.66 171.379 211.75 170.419 211.24 167.989C207.39 149.769 212.04 133.409 222.43 118.639C231.06 106.379 237.12 93.4487 236.7 78.1887C236.58 73.8187 235.58 69.4687 234.96 65.1187C234.63 62.7687 234.13 60.3687 237.36 59.5587C241.01 58.6487 241.25 62.0287 241.57 63.7487C242.65 69.4987 243.81 75.3087 242.98 80.9587H242.99Z" fill="#7D7D7D" fill-opacity="0.4"/>
<path d="M245.11 374.038C245.82 357.558 238.24 344.378 229.77 331.478C221.71 319.198 216.38 306.178 219.48 291.008C219.73 289.808 219.28 288.468 219.46 287.238C219.77 285.148 219.01 283.888 216.95 283.758C214.78 283.618 213.87 284.578 213.36 287.008C209.51 305.228 214.16 321.588 224.55 336.358C233.18 348.618 239.24 361.548 238.82 376.808C238.7 381.178 237.7 385.528 237.08 389.878C236.75 392.228 236.25 394.628 239.48 395.438C243.13 396.348 243.37 392.968 243.69 391.248C244.77 385.498 245.93 379.688 245.1 374.038H245.11Z" fill="#7D7D7D" fill-opacity="0.4"/>
<path d="M251.961 126.379C252.671 142.859 245.091 156.039 236.621 168.939C228.561 181.219 223.231 194.239 226.331 209.409C226.581 210.609 226.131 211.949 226.311 213.179C226.621 215.269 225.861 216.529 223.801 216.659C221.631 216.799 220.721 215.839 220.211 213.409C216.361 195.189 221.011 178.829 231.401 164.059C240.031 151.799 246.091 138.869 245.671 123.609C245.551 119.239 244.551 114.889 243.931 110.539C243.601 108.189 243.101 105.789 246.331 104.979C249.981 104.069 250.221 107.449 250.541 109.169C251.621 114.919 252.781 120.729 251.951 126.379H251.961Z" fill="#7D7D7D" fill-opacity="0.4"/>
<path d="M252.9 324.958C253.61 308.478 246.03 295.298 237.56 282.398C229.5 270.118 224.17 257.098 227.27 241.928C227.52 240.728 227.07 239.388 227.25 238.158C227.56 236.068 226.8 234.808 224.74 234.678C222.57 234.538 221.66 235.498 221.15 237.928C217.3 256.148 221.95 272.508 232.34 287.278C240.97 299.538 247.03 312.468 246.61 327.728C246.49 332.098 245.49 336.448 244.87 340.798C244.54 343.148 244.04 345.548 247.27 346.358C250.92 347.268 251.16 343.888 251.48 342.168C252.56 336.418 253.72 330.608 252.89 324.958H252.9Z" fill="#7D7D7D" fill-opacity="0.4"/>
<path d="M147.43 223.158L156.06 218.898C157.43 218.218 158.38 216.918 158.6 215.398L159.98 205.878C160.53 202.068 165.21 200.548 167.9 203.308L174.62 210.198C175.69 211.288 177.22 211.788 178.73 211.538L188.21 209.908C192 209.258 194.9 213.238 193.11 216.648L188.63 225.168C187.92 226.518 187.92 228.138 188.63 229.488L193.11 238.008C194.9 241.418 192.01 245.398 188.21 244.748L178.73 243.118C177.22 242.858 175.69 243.358 174.62 244.458L167.9 251.348C165.21 254.108 160.53 252.588 159.98 248.778L158.6 239.258C158.38 237.748 157.43 236.438 156.06 235.758L147.43 231.498C143.98 229.798 143.98 224.868 147.43 223.168V223.158Z" fill="#7D7D7D" fill-opacity="0.4"/>
</g>
<defs>
<clipPath id="clip0_213_69">
<rect width="449.31" height="253.04" fill="white" transform="matrix(0 -1 1 0 0.134766 450.175)"/>
</clipPath>
</defs>
</svg>
