<svg width="405" height="264" viewBox="0 0 405 264" fill="none" xmlns="http://www.w3.org/2000/svg">
<path d="M139.445 195.673C129.795 195.303 120.935 192.153 111.855 189.073C100.425 185.193 88.5747 187.863 77.5847 191.733C69.1747 194.703 62.4247 193.513 56.7947 187.343C50.6347 180.593 42.6947 180.313 34.8647 180.683C28.1747 180.993 22.0147 181.523 15.7547 177.923C12.6147 176.123 8.07474 176.833 4.18474 176.243C2.67474 176.013 0.734737 175.983 0.174737 174.143C-0.415263 172.193 0.554737 170.753 2.09474 169.373C6.34474 165.573 12.1047 164.523 16.2347 166.693C23.9747 170.753 31.1847 168.883 38.7447 167.743C48.0247 166.333 56.7847 168.063 64.0247 174.013C68.3347 177.553 72.6447 178.743 77.6647 177.373C95.1947 172.583 112.625 171.833 130.015 177.983C130.735 178.233 131.645 177.953 133.985 177.863C124.835 173.423 119.355 166.083 110.205 163.993C104.335 162.653 98.4847 162.243 92.6447 162.033C80.0447 161.583 71.1747 156.093 65.6947 144.723C63.6147 140.393 59.1247 138.933 54.8747 138.903C47.8647 138.853 41.2947 136.843 34.5947 135.503C32.3547 135.053 30.0047 133.663 28.8147 131.223C27.2847 128.073 24.3147 126.503 21.2547 126.033C17.2047 125.413 16.1247 123.023 16.6447 119.783C17.2647 115.963 22.1747 116.223 23.1447 116.943C36.5147 126.893 53.1247 122.433 67.5647 127.323C74.3747 129.633 79.7147 133.703 83.9947 139.183C89.1847 145.823 95.6247 149.323 104.135 148.933C115.595 148.403 125.535 152.023 133.675 160.183C135.475 161.993 137.185 162.483 139.015 160.643C141.355 158.293 138.845 157.483 137.635 155.863C134.295 151.373 131.785 146.303 127.545 142.443C120.705 136.213 111.985 134.333 103.525 131.943C94.2247 129.323 86.2047 125.653 83.6247 115.023C81.6747 106.983 75.1947 103.033 67.9947 100.913C61.7147 99.0629 57.6647 95.6029 55.1247 89.7429C53.7647 86.6129 51.6647 83.3529 48.3847 82.5129C44.2147 81.4529 40.0947 79.1329 41.7547 75.5229C43.3147 72.1329 48.5547 70.4729 53.1247 72.2129C57.0847 73.7229 60.6547 76.1529 62.4847 80.0329C65.4547 86.3329 70.3947 89.9629 76.8347 91.7229C86.3047 94.3229 93.4347 99.5929 96.1947 109.273C98.5247 117.433 104.905 120.283 111.915 121.483C127.105 124.083 137.375 133.433 146.295 144.913C147.225 146.113 147.265 148.493 149.425 146.733C150.645 145.743 153.135 145.413 151.205 142.103C148.555 137.573 147.555 132.183 145.155 127.323C142.005 120.943 136.445 118.343 130.665 116.533C118.595 112.763 110.725 107.513 111.355 90.1629C111.575 84.0029 109.175 79.5129 103.835 76.7429C97.6047 73.5029 93.1247 69.3729 91.3647 62.0029C89.9647 56.1729 85.2447 52.2329 80.3147 48.5629C78.4147 47.1429 71.3447 45.7029 77.1847 40.2829C79.4247 38.2029 80.7747 39.5429 82.6247 40.4229C90.8947 44.3429 96.5147 50.9329 100.445 58.8929C102.905 63.8829 105.675 67.3829 111.675 68.6629C120.525 70.5429 127.685 80.3529 128.035 89.4829C128.295 96.1229 129.935 101.623 137.465 103.543C145.625 105.623 151.015 111.813 156.775 117.373C157.585 118.163 158.285 119.183 160.055 118.703C162.085 110.303 157.015 104.353 152.555 98.2229C149.055 93.4029 144.925 89.2129 142.395 83.5029C140.015 78.1529 139.915 72.7829 141.665 68.2629C144.165 61.7929 142.685 55.2629 139.135 51.9629C129.335 42.8629 129.155 31.6229 128.775 20.0129C128.745 19.1229 128.975 18.1629 128.695 17.3629C127.765 14.7229 126.925 11.6029 129.975 10.4029C133.615 8.96293 135.885 11.5529 137.465 14.8229C139.815 19.6729 140.695 24.8329 140.335 30.0729C140.055 34.1029 141.195 37.2629 143.885 40.0329C152.715 49.1329 157.135 59.7229 154.765 72.5629C153.765 77.9729 158.055 80.7129 161.055 83.3529C170.275 91.4729 176.545 100.583 176.475 113.493C176.455 118.003 179.385 121.853 184.375 126.283C183.235 116.793 186.845 109.603 187.185 101.953C187.565 93.5129 182.125 87.0829 177.635 80.7929C171.715 72.5229 172.575 61.9529 177.705 54.9229C181.485 49.7529 180.975 45.6829 178.415 41.3629C173.415 32.9029 171.425 24.3929 175.505 15.0429C176.925 11.7929 174.265 8.91293 174.535 5.70293C174.695 3.84293 173.015 1.04293 175.365 0.412935C177.765 -0.227065 180.885 -0.457065 182.995 2.27293C185.265 5.20293 185.895 8.40293 185.505 12.0029C184.965 16.8529 184.235 21.7229 184.285 26.5729C184.325 30.7629 186.615 34.2829 189.285 37.5729C196.085 45.9829 196.705 54.5129 190.835 63.3529C187.505 68.3729 188.695 72.1329 192.525 76.0529C201.405 85.1229 203.145 96.1729 199.865 107.873C198.095 114.183 198.445 119.963 200.265 126.003C200.605 127.143 200.435 128.403 202.015 128.293C203.145 128.223 204.485 127.853 204.625 126.483C205.555 117.403 210.025 110.213 215.585 103.163C218.985 98.8529 218.045 92.9429 215.865 87.9429C208.815 71.8029 209.845 65.9729 222.195 54.2429C224.725 51.8429 227.005 49.1729 225.375 45.3329C220.605 34.1429 223.395 23.4629 227.515 12.9029C228.075 11.4529 229.275 10.3429 229.355 8.57293C229.455 6.29293 229.595 3.50293 232.995 3.96293C235.905 4.35293 237.515 6.68293 237.365 9.36293C237.075 14.3729 237.605 19.6729 234.555 24.1329C231.035 29.2729 230.565 34.1829 233.015 40.2429C236.675 49.3029 236.825 58.1329 229.215 66.2729C223.995 71.8529 222.595 79.3129 226.245 86.6129C231.335 96.8029 229.985 106.383 224.515 115.863C223.275 118.023 222.215 120.313 221.245 122.603C218.355 129.403 219.795 131.483 226.965 131.163C227.945 131.123 228.975 131.173 229.185 130.133C231.205 119.973 241.505 114.553 243.725 104.323C244.705 99.8229 245.765 95.4229 245.345 90.8929C244.325 79.9329 244.495 69.9529 256.915 64.6429C264.185 61.5329 264.195 53.4529 263.175 47.7529C261.735 39.7029 266.425 35.4229 270.425 30.8329C273.915 26.8329 277.435 23.0829 278.965 17.9729C279.835 15.0529 281.255 13.4829 284.415 14.1129C288.005 14.8329 288.315 17.7029 288.205 20.5029C288.075 23.8529 286.235 26.9029 284.075 28.9829C277.345 35.4729 276.405 43.7729 275.795 52.2429C275.105 61.6929 271.735 69.9129 265.525 77.1129C262.995 80.0429 261.365 83.4329 261.095 87.6829C260.035 104.263 253.615 118.983 244.615 132.713C243.665 134.163 241.325 135.323 243.215 137.313C245.305 139.503 246.845 137.353 248.465 136.143C252.825 132.883 257.265 129.753 261.575 126.433C266.335 122.763 268.565 117.693 268.995 111.803C269.985 97.9929 275.185 90.7329 288.595 87.2629C299.265 84.5029 300.035 75.0529 303.485 67.5229C305.975 62.0929 308.505 57.3829 314.055 54.4329C318.135 52.2729 320.515 48.2529 322.095 43.8529C322.845 41.7729 323.415 39.6829 326.715 40.2229C330.135 40.7929 330.445 43.1929 330.765 45.6029C331.415 50.5529 328.295 53.9629 324.975 56.6929C318.735 61.8329 315.395 68.7029 312.785 75.9329C309.415 85.2429 304.675 92.9929 295.675 98.1729C289.775 101.573 284.845 106.413 283.405 113.973C281.175 125.683 273.465 133.813 264.395 140.843C262.005 142.693 259.685 144.623 257.385 146.473C259.325 150.103 261.715 150.213 265.255 149.153C279.825 144.783 288.865 134.453 295.915 121.773C300.375 113.743 307.245 109.373 316.385 109.723C323.445 109.993 327.295 105.753 330.845 100.963C335.325 94.9029 339.545 89.0529 347.885 87.6829C352.515 86.9229 356.605 84.3229 359.325 79.9829C360.705 77.7729 362.755 76.0129 365.645 78.2629C368.195 80.2529 367.745 82.6729 366.385 84.9429C362.395 91.6129 356.685 96.6429 349.435 99.1329C344.655 100.773 341.565 103.513 339.495 107.743C336.905 113.043 333.275 117.473 328.385 120.683C324.945 122.933 321.255 124.633 316.775 123.533C312.455 122.473 308.855 124.113 307.185 128.273C301.145 143.303 288.885 151.923 275.615 159.613C274.225 160.413 271.315 160.043 272.025 162.703C272.575 164.763 274.965 164.603 276.775 164.743C291.335 165.823 303.425 160.813 313.085 149.903C317.955 144.393 323.965 139.983 331.345 141.763C343.705 144.743 353.075 139.423 362.175 132.723C364.885 130.733 367.465 129.963 370.725 129.533C376.635 128.743 383.125 130.333 388.255 125.123C389.725 123.623 393.715 123.483 395.525 126.553C397.135 129.283 394.795 130.733 393.165 132.273C389.275 135.943 384.335 137.683 379.295 137.353C372.275 136.883 366.765 139.273 361.885 143.853C352.805 152.373 342.825 158.023 329.655 155.523C325.215 154.683 322.825 158.483 320.195 161.363C310.905 171.523 299.935 178.563 285.765 179.433C283.945 179.543 281.195 180.303 281.365 181.323C281.765 183.723 281.545 186.513 285.025 188.043C294.615 192.243 303.615 189.703 311.325 184.753C322.505 177.573 333.315 175.543 345.155 182.013C351.655 185.563 357.065 182.153 361.815 178.783C366.015 175.803 370.145 174.323 375.025 174.923C382.855 175.893 390.495 175.313 398.105 173.273C400.385 172.663 403.455 171.983 404.355 175.423C405.125 178.373 403.215 180.063 400.625 181.153C395.765 183.193 390.665 184.233 385.475 183.743C378.895 183.133 373.455 185.213 368.145 188.933C358.085 195.973 347.395 198.893 335.245 193.853C331.325 192.233 326.555 192.213 322.535 194.813C309.895 202.993 295.725 202.973 281.465 202.643C278.715 202.583 275.945 202.883 273.195 203.023C271.325 202.293 269.465 202.623 267.605 203.093C264.815 202.503 262.015 202.333 259.205 202.893C256.665 201.403 253.065 204.743 250.995 201.093C251.855 181.583 242.385 168.253 223.445 161.213C214.045 157.713 204.115 158.083 194.375 157.303C186.105 156.633 180.145 162.453 174.805 167.303C168.885 172.683 162.585 178.633 161.115 187.293C159.935 194.233 156.325 197.403 149.235 196.183C146.025 195.283 142.775 195.383 139.505 195.743L139.445 195.673Z" fill="#7D7D7D" fill-opacity="0.4"/>
<path d="M266.345 222.593C261.735 223.093 258.215 225.813 254.605 228.353C242.975 236.543 231.565 239.433 216.995 228.733C207.875 222.033 197.285 220.753 186.685 226.703C182.835 228.863 178.775 230.683 174.715 232.413C167.395 235.513 160.365 235.113 152.775 232.143C144.555 228.923 136.765 224.163 127.235 224.403C121.725 224.543 117.415 226.963 112.865 229.063C103.255 233.493 93.2751 235.563 83.2251 232.043C73.3951 228.603 63.5251 227.473 53.2751 227.903C51.5451 227.973 48.8651 229.013 48.9451 225.443C49.0151 222.433 51.1551 222.493 53.2051 222.403C63.7151 221.933 74.2951 221.803 84.2051 225.823C93.0251 229.403 101.405 228.433 109.125 223.893C122.325 216.133 135.605 216.763 148.225 223.773C159.655 230.113 169.685 229.553 180.605 222.993C194.865 214.423 208.905 216.103 222.375 225.583C232.065 232.393 238.885 231.743 251.065 223.503C264.555 214.383 275.005 214.463 288.435 223.833C293.965 227.693 299.195 232.173 306.635 231.553C312.845 231.033 318.435 228.903 323.785 225.743C329.235 222.523 334.635 218.993 341.165 218.313C347.285 217.683 353.225 218.403 358.775 221.263C360.645 222.233 362.505 223.373 361.205 225.923C360.025 228.233 357.995 227.383 356.355 226.713C346.895 222.863 338.185 223.733 329.475 229.383C323.255 233.423 316.475 236.343 308.675 237.033C298.885 237.903 291.135 234.193 284.165 228.203C280.205 224.803 275.815 223.113 270.795 222.613C269.305 222.613 267.815 222.603 266.325 222.593H266.345Z" fill="#7D7D7D" fill-opacity="0.4"/>
<path d="M64.1752 250.672C70.8452 250.602 77.1052 252.442 83.3252 254.612C93.6152 258.202 103.845 259.252 113.565 252.922C126.795 244.312 140.495 246.122 153.415 252.582C166.595 259.172 178.305 258.472 190.325 250.362C200.305 243.622 210.505 246.872 220.365 251.122C225.265 253.242 229.915 255.792 235.295 256.812C240.765 257.852 245.985 257.242 249.975 253.682C264.715 240.522 278.505 243.972 291.905 252.722C302.415 259.582 312.915 259.132 323.545 254.142C333.325 249.552 343.195 246.232 354.205 247.262C356.995 247.522 359.575 248.262 362.185 249.072C363.715 249.542 364.585 250.382 364.415 252.242C364.185 254.692 362.425 254.102 361.135 254.002C357.715 253.752 354.305 253.302 350.905 252.872C342.245 251.762 334.865 255.503 327.505 259.133C317.225 264.213 306.475 264.162 295.765 261.562C289.645 260.072 284.995 255.112 278.945 252.982C270.575 250.042 262.725 249.832 255.805 256.202C246.375 264.892 235.855 264.452 224.895 260.052C219.345 257.822 214.245 254.422 208.225 253.402C202.805 252.482 197.555 252.032 192.485 255.422C181.385 262.852 169.425 265.762 156.445 260.692C152.025 258.972 147.745 256.892 143.315 255.192C134.745 251.912 126.485 252.002 118.435 257.152C110.635 262.142 102.055 263.952 92.7152 262.952C90.3752 262.702 87.6852 262.502 85.9352 261.642C76.2752 256.882 66.0852 257.192 55.8252 257.342C54.6052 257.362 52.5852 258.332 52.2452 256.002C51.9852 254.222 53.2052 252.892 54.5452 252.082C57.5052 250.272 60.9152 250.762 64.1952 250.682L64.1752 250.672Z" fill="#7D7D7D" fill-opacity="0.4"/>
</svg>
