<svg width="558" height="392" viewBox="0 0 558 392" fill="none" xmlns="http://www.w3.org/2000/svg">
<path d="M553.929 317.452C549.279 316.562 544.719 315.252 539.929 315.162C522.199 314.812 504.959 318.712 487.929 322.562C467.549 327.162 447.469 333.152 427.059 337.772C401.339 343.592 375.669 345.122 349.899 338.442C335.399 334.682 321.519 330.192 311.659 317.432C304.969 308.762 301.689 300.162 302.229 291.632C309.479 291.542 316.719 291.442 323.969 291.442C323.969 291.352 323.969 291.262 323.969 291.172C336.409 291.172 348.849 291.142 361.289 291.172C372.229 291.202 383.159 291.462 394.099 291.322C398.899 291.262 404.329 290.972 404.649 284.322C405.239 272.002 406.549 259.462 404.539 247.352C399.329 216.062 385.549 189.422 360.689 168.572C338.719 150.142 312.959 141.882 285.479 138.452C260.089 135.282 236.389 143.342 213.739 153.882C199.689 160.422 188.379 170.952 179.289 183.442C169.989 196.232 160.809 208.972 155.419 224.342C148.699 243.522 149.329 263.022 149.729 282.642C149.829 287.442 151.849 291.252 158.319 290.232C162.349 289.602 166.469 289.502 170.589 289.442C169.799 289.732 169.009 290.042 168.219 290.322C141.479 299.902 115.129 310.962 86.9094 315.862C77.5394 317.492 68.0994 319.262 58.5094 318.382C55.7694 318.132 51.9794 315.812 51.4494 319.862C50.9494 323.742 55.5894 323.092 58.2794 323.862C58.9694 324.062 59.7494 323.892 60.4894 323.942C71.2594 324.652 81.8595 322.712 92.3595 320.982C101.509 319.472 110.399 316.362 119.399 313.952C119.899 312.992 120.759 312.982 121.669 313.072C122.489 312.682 123.279 312.182 124.129 311.922C143.699 305.872 163.059 299.132 181.989 291.402C197.709 284.982 212.789 277.002 228.149 269.712C228.619 268.832 229.429 268.582 230.349 268.552C241.509 262.142 252.549 255.482 264.609 250.792C265.419 249.512 266.909 249.532 268.099 248.962C277.819 243.802 287.849 239.242 298.319 235.932C307.529 233.022 316.889 229.842 326.879 232.122C327.619 232.142 328.359 232.152 329.099 232.172C339.979 233.062 348.849 238.222 356.859 245.212C358.419 246.392 360.009 247.522 361.519 248.772C362.019 249.192 362.289 249.882 362.699 250.492C360.389 251.422 358.669 250.122 356.829 249.572C353.909 249.262 350.999 248.782 348.079 248.662C326.349 247.822 311.229 259.142 300.779 276.602C295.009 286.232 294.249 297.682 299.539 308.402C308.169 325.902 322.009 337.132 341.029 341.822C344.939 342.782 348.959 343.432 352.739 344.772C358.259 346.732 363.899 348.082 369.679 348.402C376.839 348.792 384.029 348.602 391.209 348.652C392.319 348.652 393.429 348.632 394.539 348.622C409.619 346.582 424.879 345.362 439.609 341.392C464.619 334.662 489.539 327.562 515.089 323.212C523.749 321.742 532.409 319.382 541.569 321.572C545.189 322.442 549.209 323.732 553.259 322.822C554.979 322.432 556.859 321.832 557.009 320.182C557.119 318.962 555.549 317.742 553.949 317.432L553.929 317.452ZM363.699 251.452L363.869 251.222L364.009 251.472H363.699V251.452Z" fill="#7D7D7D" fill-opacity="0.4"/>
<path d="M365.339 371.043C356.969 373.063 348.629 375.243 340.279 377.363C339.079 378.773 337.339 378.333 335.819 378.643C328.329 381.693 320.519 383.523 312.539 384.633C290.389 387.703 268.419 387.273 247.259 379.283C239.509 376.353 231.219 373.303 228.059 364.183C226.719 363.403 227.029 361.893 226.539 360.733C224.919 351.783 225.709 342.953 230.359 335.183C240.339 318.473 255.189 309.033 274.799 307.563C276.819 307.413 279.199 307.793 279.929 305.343C280.809 302.393 278.029 301.783 276.259 300.653C258.219 289.193 238.989 289.433 219.539 295.673C195.889 303.263 172.389 311.333 148.329 317.593C147.809 318.563 146.949 318.523 146.049 318.373C110.419 328.743 74.419 336.073 36.979 331.903C35.229 331.713 33.169 331.453 32.659 333.983C32.229 336.123 33.719 336.613 35.279 337.503C36.869 338.413 38.359 338.403 39.969 338.453C60.309 338.983 80.379 337.983 100.629 334.573C118.499 331.553 136.019 327.523 153.299 322.543C175.769 316.073 197.849 308.273 220.179 301.313C235.359 296.583 250.639 294.573 265.929 302.503C263.719 303.133 261.729 303.723 259.719 304.283C248.149 307.493 238.709 314.433 231.099 323.173C225.069 330.093 222.059 338.763 219.889 348.203C217.309 359.423 224.179 374.943 235.469 380.613C248.779 387.313 262.709 391.183 277.749 391.663C292.669 392.143 307.619 392.243 322.119 388.943C337.219 385.503 351.969 380.453 366.809 375.913C368.449 375.413 371.669 375.153 370.999 372.493C370.299 369.693 367.389 370.543 365.329 371.043H365.339Z" fill="#7D7D7D" fill-opacity="0.4"/>
<path d="M262.619 362.672C256.579 360.142 250.849 356.372 249.339 349.102C248.949 347.242 249.179 345.062 246.629 345.192C244.009 345.322 243.679 347.502 243.629 349.672C243.539 354.202 246.479 357.152 249.259 360.052C261.229 372.552 276.929 373.482 292.389 371.972C306.459 370.602 320.459 368.302 334.629 367.552C335.369 367.532 336.109 367.522 336.849 367.502C339.629 366.852 342.349 366.062 345.299 366.162C347.879 366.252 350.069 365.372 348.989 361.952C348.269 361.812 347.549 361.682 346.829 361.542C329.509 362.042 312.259 362.852 295.129 366.032C284.149 368.072 272.989 367.002 262.629 362.672H262.619Z" fill="#7D7D7D" fill-opacity="0.4"/>
<path d="M290.12 279.192C291.92 274.792 291.58 269.802 293.98 265.592C294.26 264.832 294.54 264.072 294.82 263.312C300.12 254.722 308.15 249.372 316.77 244.702C318.49 243.772 320.92 242.882 319.56 240.292C318.33 237.952 316.07 238.802 314.22 239.642C309.69 241.692 305.76 244.712 301.76 247.612C291.29 255.212 285.68 265.382 285.39 278.392C285.35 280.052 285.29 282.012 287.5 282.182C289.28 282.312 289.54 280.592 290.11 279.192H290.12Z" fill="#7D7D7D" fill-opacity="0.4"/>
<path d="M432.66 354.172C417.59 356.912 402.49 359.482 388.1 365.052C386.28 365.752 384.88 366.502 385.5 368.392C386.1 370.232 387.72 370.932 389.83 370.312C395.81 368.572 401.83 366.962 407.84 365.302C408.58 365.242 409.32 365.192 410.06 365.132C410.87 364.762 411.64 364.232 412.5 364.042C419.49 362.472 426.52 361.072 433.47 359.332C434.77 359.012 437.09 358.512 436.6 356.202C436.17 354.182 434.38 353.852 432.66 354.162V354.172Z" fill="#7D7D7D" fill-opacity="0.4"/>
<path d="M96.0989 84.702C101.959 93.072 108.409 101.172 115.189 108.602C121.129 115.112 126.959 121.892 132.899 128.422C145.249 142.012 157.499 155.712 170.049 169.122C171.189 170.342 172.329 171.412 173.989 171.042C179.429 171.162 190.549 160.742 190.909 155.452C191.019 153.852 190.439 152.732 189.219 151.842C165.299 134.352 144.629 113.142 122.459 93.652C112.689 85.062 102.519 76.942 92.4289 68.722C90.6889 67.302 88.4589 65.192 86.1089 67.642C83.6689 70.182 85.9389 71.902 87.2989 74.222C89.6789 78.292 93.4789 80.952 96.0989 84.692V84.702Z" fill="#7D7D7D" fill-opacity="0.4"/>
<path d="M378.809 169.402C387.999 175.782 388.099 175.312 394.269 167.782C409.789 148.842 425.479 130.032 441.079 111.142C450.519 99.7121 459.959 88.2821 469.259 76.7421C470.439 75.2721 472.949 73.3621 470.679 71.2321C468.669 69.3521 466.399 69.5721 463.869 71.5521C450.099 82.3421 437.109 93.9921 424.319 105.922C418.239 111.592 411.859 116.942 405.489 122.282C394.269 131.682 382.349 140.252 372.109 150.812C370.419 152.552 369.619 154.412 369.719 156.752C369.829 163.032 374.579 166.462 378.799 169.392L378.809 169.402ZM443.179 98.8421C443.259 98.8721 443.149 99.4821 443.129 99.8221C443.129 99.8221 443.129 99.8221 443.119 99.8221C443.079 99.6321 443.099 99.3821 442.989 99.2821C442.479 98.8021 442.539 98.6321 443.179 98.8321V98.8421ZM443.099 99.8321C442.519 100.052 441.949 100.272 441.369 100.502C441.189 98.7421 442.199 99.3921 443.099 99.8321Z" fill="#7D7D7D" fill-opacity="0.4"/>
<path d="M424.499 252.142C418.959 251.652 417.669 255.272 417.079 259.362C416.659 262.322 416.849 265.392 417.019 268.402C417.349 274.352 422.449 280.712 426.239 280.092C434.869 278.682 443.619 277.752 452.269 277.092C473.589 275.462 495.009 275.102 516.189 271.942C526.549 270.392 537.019 269.622 547.289 267.282C549.929 266.682 551.599 265.552 551.549 263.282C551.489 260.762 549.409 259.082 546.849 258.832C543.839 258.532 540.769 258.472 537.749 258.612C526.019 259.132 514.309 257.872 502.679 257.062C480.859 255.552 459.089 253.362 438.949 252.212C432.979 252.212 428.709 252.512 424.489 252.142H424.499Z" fill="#7D7D7D" fill-opacity="0.4"/>
<path d="M114.009 282.882C118.869 282.882 123.739 282.712 128.589 282.932C133.229 283.142 135.559 280.212 135.959 276.572C136.409 272.522 136.319 268.382 135.349 264.112C133.899 257.772 131.209 256.462 125.209 258.122C120.439 259.442 115.259 259.242 110.319 260.022C84.2492 264.162 57.7892 263.882 31.6392 267.112C22.4792 268.242 13.2892 269.142 4.12917 270.322C1.94917 270.602 -0.500827 271.382 0.0891732 274.452C0.589173 277.062 2.91917 276.962 4.88917 276.972C27.5392 277.032 49.9692 280.412 72.5192 281.412C86.3192 282.022 100.149 283.502 114.019 282.892L114.009 282.882Z" fill="#7D7D7D" fill-opacity="0.4"/>
<path d="M281.559 130.973C291.289 130.613 292.479 129.283 291.819 119.593C291.739 118.383 291.859 117.163 291.799 115.953C291.359 106.503 291.039 97.0525 290.409 87.6225C288.929 65.6025 287.249 43.6025 285.729 21.5825C285.359 16.1825 284.079 10.8825 284.399 5.39251C284.589 2.26251 282.149 -0.197488 279.309 0.012512C277.359 0.152512 275.729 2.58251 275.889 5.50251C276.259 12.2725 275.119 19.0925 275.089 25.7525C275.009 41.7125 272.069 57.3225 270.929 73.1325C269.919 87.1325 267.619 101.043 267.489 115.143C267.489 115.953 267.489 116.763 267.489 117.573C267.422 126.866 272.112 131.339 281.559 130.993V130.973Z" fill="#7D7D7D" fill-opacity="0.4"/>
</svg>
