<svg width="450" height="298" viewBox="0 0 450 298" fill="none" xmlns="http://www.w3.org/2000/svg">
<path d="M164.937 214.336C200.737 212.806 234.047 223.166 266.937 235.486C285.597 242.476 304.147 249.616 323.597 254.376C354.367 261.906 383.237 258.086 410.567 242.196C413.877 240.276 417.217 238.366 420.347 236.176C422.547 234.636 425.227 234.226 426.627 235.896C428.537 238.166 426.847 241.006 424.747 242.386C418.477 246.506 411.987 250.296 405.537 254.136C380.767 268.866 354.157 275.636 325.247 273.306C301.947 271.436 280.177 263.906 258.537 255.936C221.787 242.396 184.067 234.266 144.767 236.776C115.177 238.666 85.7668 242.306 58.3668 255.116C56.8268 255.836 54.3168 258.006 52.7068 255.796C50.8968 253.296 52.7968 251.096 54.7468 249.236C62.2068 242.126 71.7268 238.376 80.7068 233.996C98.6068 225.266 117.487 219.226 137.227 215.896C146.457 214.346 155.727 214.846 164.927 214.316L164.937 214.336ZM93.8168 236.316C101.907 236.336 109.587 233.696 117.507 232.626C163.777 226.386 208.877 231.286 252.797 247.046C275.677 255.256 298.377 264.056 322.877 266.386C332.887 267.336 342.847 267.236 352.817 265.786C343.717 263.916 334.597 263.066 325.577 261.286C299.907 256.206 276.037 245.726 251.697 236.756C212.967 222.486 173.447 216.386 132.447 223.676C119.037 226.056 106.007 229.886 93.9368 236.446C93.1968 236.586 92.4468 236.716 91.7068 236.856C91.9368 237.076 92.1568 237.456 92.3968 237.466C93.1568 237.506 93.9968 237.496 93.8168 236.316Z" fill="#7D7D7D" fill-opacity="0.4"/>
<path d="M275.247 297.705C252.417 297.665 233.737 292.305 215.747 284.545C200.657 278.035 184.797 274.305 168.897 271.005C149.457 266.965 129.717 264.445 109.727 265.755C105.337 266.045 101.067 267.705 96.6071 267.005C95.1971 266.785 92.8471 268.205 92.6571 265.335C92.5271 263.375 93.7171 262.585 95.6771 262.035C106.577 258.955 117.287 255.315 128.697 254.155C168.087 250.135 205.267 259.435 241.877 272.375C263.547 280.035 285.537 285.915 308.827 284.905C311.047 284.805 314.207 284.195 314.427 287.325C314.597 289.695 312.147 290.595 309.687 291.435C297.527 295.555 285.207 298.375 275.237 297.705H275.247ZM141.967 260.195C147.637 259.945 151.907 261.085 156.227 261.825C179.777 265.875 202.817 271.395 225.067 280.595C243.647 288.275 263.217 292.855 284.397 290.695C276.267 288.795 268.657 287.345 261.227 285.235C236.497 278.205 212.737 267.815 187.147 263.775C172.537 261.475 157.997 258.265 141.957 260.195H141.967Z" fill="#7D7D7D" fill-opacity="0.4"/>
<path d="M363.247 241.356C345.547 241.456 329.437 237.686 313.637 233.086C295.477 227.806 277.777 220.956 259.657 215.536C247.717 211.966 235.447 209.576 222.987 208.076C215.377 207.166 207.697 206.726 200.147 205.426C198.527 205.146 196.097 204.966 196.277 202.366C196.467 199.626 198.467 199.316 200.837 199.296C218.177 199.196 235.237 201.796 251.797 206.396C273.297 212.376 294.357 219.936 315.717 226.486C345.917 235.746 376.417 238.496 407.047 228.666C416.107 225.756 424.987 222.116 433.167 217.046C435.477 215.606 438.117 215.086 439.687 217.826C441.047 220.206 439.047 221.856 437.157 222.856C420.717 231.506 403.787 238.986 384.937 240.006C377.377 240.416 369.877 242.216 363.267 241.336L363.247 241.356Z" fill="#7D7D7D" fill-opacity="0.4"/>
<path d="M204.348 122.766C192.558 124.666 182.378 126.856 172.928 131.666C169.058 133.636 166.278 136.666 163.398 139.686C151.048 152.676 138.688 165.616 133.828 183.716C130.988 194.306 128.818 204.846 131.208 215.826C131.838 218.716 132.208 221.256 127.808 221.396C123.448 221.536 123.308 218.806 122.918 215.696C120.768 198.886 124.978 183.056 132.248 168.426C144.428 143.916 161.728 125.206 190.188 118.376C206.278 114.516 222.318 112.866 238.348 114.336C248.848 115.296 259.128 119.866 268.948 124.586C280.898 130.336 290.818 138.836 300.168 147.806C308.298 155.606 313.318 165.856 316.358 176.796C319.628 188.586 322.518 200.436 320.898 212.906C320.588 215.326 321.298 217.586 317.758 217.776C313.828 217.986 314.308 214.476 314.458 212.916C315.288 204.576 313.138 196.656 311.778 188.616C309.388 174.496 303.118 162.536 293.148 152.076C280.078 138.366 264.298 129.386 246.428 124.296C232.198 120.246 217.498 119.756 204.348 122.766Z" fill="#7D7D7D" fill-opacity="0.4"/>
<path d="M440.367 207.055C427.917 210.025 415.087 209.515 402.507 211.255C392.297 212.665 382.047 213.805 371.797 214.995C360.747 216.275 349.697 217.495 338.637 218.665C335.137 219.035 335.287 215.815 334.907 213.945C334.287 210.895 337.477 211.505 338.907 211.305C347.997 210.015 357.127 209.025 366.247 208.005C381.377 206.315 396.517 204.675 411.647 203.005C422.417 201.815 433.187 200.685 443.937 199.335C446.607 198.995 448.717 199.155 449.337 202.105C450.037 205.445 447.017 204.995 445.257 205.665C443.677 206.275 441.997 206.605 440.357 207.055H440.367Z" fill="#7D7D7D" fill-opacity="0.4"/>
<path d="M96.4675 219.886C79.8675 221.556 63.2475 221.126 46.6175 221.066C33.1375 221.026 19.6475 221.576 6.19753 222.416C2.41753 222.656 0.73753 220.416 0.14753 218.276C-0.73247 215.126 2.51753 214.866 4.77753 214.776C15.9475 214.326 27.1175 213.856 38.2975 213.666C50.6875 213.456 63.0875 213.116 75.4575 213.626C86.2875 214.076 96.8375 210.976 107.658 211.896C109.718 212.066 111.338 211.556 111.428 214.476C111.498 216.766 111.028 218.126 108.498 218.386C104.478 218.796 100.478 219.376 96.4675 219.886Z" fill="#7D7D7D" fill-opacity="0.4"/>
<path d="M119.287 169.205C119.937 172.805 116.577 174.905 112.397 173.525C99.1872 169.145 85.9972 164.715 72.8672 160.115C59.6872 155.505 46.1572 152.095 32.7472 148.295C29.2172 147.295 25.7072 146.085 22.3972 144.525C20.4872 143.625 17.6372 142.455 19.0872 139.395C20.2572 136.915 22.5072 136.885 25.0372 137.635C36.7672 141.105 48.6472 144.125 60.2872 147.895C77.9872 153.625 95.5472 159.785 113.107 165.915C115.327 166.685 118.027 167.015 119.287 169.195V169.205Z" fill="#7D7D7D" fill-opacity="0.4"/>
<path d="M155.368 117.596C145.008 102.576 135.998 86.6862 126.488 71.1162C119.078 58.9862 110.898 47.3362 103.098 35.4462C101.668 33.2662 98.8877 30.6962 102.058 28.4062C105.178 26.1562 107.268 28.7462 109.198 31.3362C123.568 50.6262 135.258 71.6262 147.978 91.9562C151.168 97.0662 153.888 102.556 157.678 107.176C161.668 112.046 160.498 114.896 155.368 117.596Z" fill="#7D7D7D" fill-opacity="0.4"/>
<path d="M390.127 74.7861C392.157 74.0661 394.007 74.3861 394.787 76.0461C395.887 78.3761 394.227 79.8061 392.427 81.2261C378.997 91.8261 365.487 102.356 352.297 113.256C341.047 122.546 328.617 130.156 317.007 138.936C315.047 140.416 313.157 142.276 310.697 139.006C308.367 135.906 309.607 134.346 312.177 132.686C337.847 116.156 361.097 96.4261 384.987 77.5361C386.537 76.3161 387.927 74.4461 390.117 74.7861H390.127Z" fill="#7D7D7D" fill-opacity="0.4"/>
<path d="M330.518 26.9558C329.748 30.7758 327.058 34.6258 324.748 38.4758C310.428 62.4058 296.868 86.8258 280.358 109.406C278.678 111.706 276.948 111.916 275.098 111.596C272.678 111.176 270.408 110.376 272.858 106.776C282.658 92.3858 292.458 77.9758 301.648 63.2058C308.518 52.1658 314.428 40.5258 320.808 29.1858C322.318 26.4958 323.668 23.6158 327.598 23.6358C329.528 23.6358 330.328 24.3358 330.508 26.9658L330.518 26.9558Z" fill="#7D7D7D" fill-opacity="0.4"/>
<path d="M115.107 184.356C114.407 188.076 114.357 191.336 109.417 190.026C97.2675 186.816 85.0275 183.996 72.8475 180.916C54.1575 176.186 35.5175 171.316 16.8175 166.646C13.6475 165.856 11.0575 164.896 12.3475 161.086C13.5575 157.516 16.4675 159.146 18.7675 159.706C49.7975 167.376 80.8175 175.096 111.827 182.836C113.057 183.146 114.178 183.906 115.118 184.346L115.107 184.356Z" fill="#7D7D7D" fill-opacity="0.4"/>
<path d="M195.957 10.2058C198.747 38.8558 202.007 65.7958 206.207 92.6158C206.767 96.2158 206.077 97.9658 201.987 98.6058C197.087 99.3858 197.757 95.3258 197.677 93.5558C197.047 80.7458 194.637 68.1858 193.087 55.5158C190.987 38.3458 190.737 20.9558 187.397 3.90576C187.087 2.34576 186.857 0.485756 189.387 0.085756C191.327 -0.224244 192.807 0.275756 193.517 2.08576C194.747 5.22576 195.947 8.39576 195.967 10.1958L195.957 10.2058Z" fill="#7D7D7D" fill-opacity="0.4"/>
<path d="M132.128 142.555C131.098 144.245 130.408 145.865 129.278 147.095C128.028 148.455 127.128 146.785 126.128 146.255C117.468 141.665 111.198 134.145 103.968 127.835C92.5977 117.925 81.7377 107.445 70.6477 97.2254C68.1877 94.9654 65.7277 92.6954 63.0977 90.6554C60.3977 88.5654 57.6877 85.5954 59.8977 82.8554C62.2177 79.9754 65.6577 82.1754 68.1477 84.4654C78.2177 93.7054 88.2477 102.985 98.3877 112.145C107.928 120.765 117.598 129.235 127.198 137.795C128.898 139.315 130.488 140.965 132.138 142.555H132.128Z" fill="#7D7D7D" fill-opacity="0.4"/>
<path d="M328.537 175.196C327.067 172.206 327.907 171.366 330.237 170.456C345.757 164.386 361.117 157.946 377.047 152.956C388.337 149.416 399.547 145.596 410.707 141.656C413.747 140.586 416.647 140.736 417.877 143.336C419.137 145.986 416.807 147.766 414.127 148.626C407.237 150.846 400.467 153.526 393.477 155.336C378.777 159.146 364.847 164.996 350.747 170.436C344.387 172.896 337.927 175.106 331.637 177.716C327.557 179.406 329.177 175.666 328.537 175.186V175.196Z" fill="#7D7D7D" fill-opacity="0.4"/>
<path d="M343.297 59.7155C343.307 61.6455 342.087 62.9454 341.007 64.1754C327.967 78.9054 315.527 94.1255 303.707 109.855C300.917 113.575 297.887 117.105 295.177 120.885C293.497 123.225 292.287 123.685 289.667 121.785C286.717 119.645 288.277 118.385 289.547 116.465C298.177 103.435 308.107 91.3955 317.847 79.2255C323.637 71.9955 330.377 65.5355 336.397 58.4655C337.647 56.9955 338.797 56.9855 340.147 56.9955C341.847 57.0055 342.237 58.8255 343.307 59.7255L343.297 59.7155Z" fill="#7D7D7D" fill-opacity="0.4"/>
<path d="M330.497 189.045C349.897 184.705 369.837 183.595 389.607 181.305C395.937 180.575 402.267 179.975 408.497 178.595C411.127 178.005 414.217 176.855 415.187 180.615C416.207 184.595 412.927 184.995 410.167 185.425C394.747 187.815 379.367 190.355 363.747 191.385C355.937 191.905 348.147 193.365 340.457 194.955C335.307 196.015 331.317 196.155 330.507 189.045H330.497Z" fill="#7D7D7D" fill-opacity="0.4"/>
<path d="M258.318 101.505C258.448 101.145 258.818 100.205 259.128 99.2354C266.408 77.2054 273.138 54.9754 282.518 33.6954C283.528 31.4054 283.908 27.8554 287.838 29.3454C291.588 30.7654 290.268 33.8554 289.278 36.2654C280.348 58.0354 273.248 80.4554 265.628 102.685C265.288 103.675 265.818 106.885 262.868 105.525C261.178 104.745 258.458 105.145 258.308 101.505H258.318Z" fill="#7D7D7D" fill-opacity="0.4"/>
<path d="M221.258 30.2262C221.958 45.3762 224.188 62.0862 223.898 78.9362C223.818 83.7762 225.338 88.4362 224.898 93.4362C224.528 97.5062 222.078 96.3762 220.148 96.6462C217.078 97.0762 216.768 94.7362 216.768 92.5362C216.768 80.1662 215.928 67.8662 214.988 55.5362C214.198 45.2162 214.118 34.8462 212.608 24.5662C212.198 21.7562 213.808 19.9362 216.328 19.7262C218.498 19.5462 220.258 20.7762 220.268 23.5362C220.268 25.2162 220.748 26.8862 221.258 30.2062V30.2262Z" fill="#7D7D7D" fill-opacity="0.4"/>
<path d="M148.398 124.665C142.338 129.685 142.618 129.475 137.568 122.935C124.508 105.995 111.128 89.2954 98.0377 72.3854C96.5477 70.4654 92.7377 68.0354 96.4977 65.2554C99.8977 62.7354 102.188 65.6054 104.218 68.1954C118.928 87.0354 133.668 105.845 148.398 124.675V124.665Z" fill="#7D7D7D" fill-opacity="0.4"/>
<path d="M58.7977 123.856C59.7677 124.216 61.7477 124.786 63.5877 125.656C82.6777 134.756 101.208 145.036 120.778 153.136C123.568 154.296 125.178 155.736 123.668 159.326C122.028 163.226 119.418 161.296 117.698 160.476C97.8777 151.066 78.1377 141.506 58.4577 131.806C56.5577 130.866 53.9277 129.756 54.1477 126.836C54.2977 124.886 55.8377 124.056 58.7877 123.846L58.7977 123.856Z" fill="#7D7D7D" fill-opacity="0.4"/>
<path d="M255.698 44.816C255.188 48.616 254.658 53.386 253.878 58.116C251.808 70.646 249.388 83.116 247.638 95.686C247.108 99.526 245.158 99.126 242.728 98.956C239.598 98.726 239.688 97.446 240.088 94.396C242.268 77.816 245.298 61.396 248.018 44.916C248.488 42.106 249.028 39.896 252.108 39.666C254.898 39.456 255.578 41.526 255.698 44.816Z" fill="#7D7D7D" fill-opacity="0.4"/>
<path d="M152.177 53.666C156.247 52.976 157.267 55.766 157.977 57.556C163.677 72.026 170.027 86.216 176.647 100.276C178.407 104.006 176.647 105.606 173.867 106.756C170.597 108.116 170.357 105.086 169.497 103.186C163.537 89.926 157.427 76.736 151.817 63.336C150.557 60.336 148.697 56.246 152.177 53.656V53.666Z" fill="#7D7D7D" fill-opacity="0.4"/>
<path d="M357.368 132.736C356.738 134.796 355.648 136.246 353.638 137.436C343.828 143.276 334.048 149.196 324.478 155.426C321.788 157.176 320.878 155.266 320.118 153.986C318.518 151.276 319.368 149.126 322.288 147.466C331.588 142.166 340.768 136.666 349.988 131.236C350.678 130.836 351.278 130.096 351.998 129.976C354.358 129.566 355.968 130.876 357.358 132.746L357.368 132.736Z" fill="#7D7D7D" fill-opacity="0.4"/>
<path d="M106.418 204.196C97.2277 203.866 88.0277 203.616 78.8377 203.156C76.5577 203.046 74.2277 202.316 74.3577 199.186C74.5177 195.416 77.5277 195.556 79.9177 195.596C88.8677 195.756 97.8277 195.986 106.738 196.696C108.238 196.816 111.658 195.056 111.868 199.016C112.088 202.946 110.068 204.336 106.408 204.186L106.418 204.196Z" fill="#7D7D7D" fill-opacity="0.4"/>
</svg>
