<svg width="1434" height="798" viewBox="0 0 1434 798" fill="none" xmlns="http://www.w3.org/2000/svg">
<path d="M1025.15 349.465C1066.73 334.301 1107.56 318.295 1149.04 304.625C1186.46 292.294 1224.6 282.568 1262.38 271.502C1272.92 268.4 1281.34 270.812 1287.47 280.96C1293.95 291.682 1286.63 300.259 1281.55 306.309C1241.04 354.252 1209.05 409.355 1170.49 458.905C1164.94 466.027 1160.22 473.877 1153.78 483.374C1193.82 490.688 1231.9 497.312 1269.88 504.703C1303.28 511.213 1336.53 518.718 1369.9 525.572C1377.85 527.219 1383.31 532.886 1385.72 539.894C1389.15 549.965 1380.87 556.015 1374.87 561.146C1344.28 587.223 1313.2 612.611 1282.47 638.459C1261.73 655.882 1241.33 673.841 1220.62 691.264C1210.46 699.841 1208.72 705.853 1222.95 711.674C1260.28 726.953 1297.75 741.772 1334.16 759.846C1358.22 771.793 1384.85 763.484 1410.26 765.322C1420.31 766.049 1434.19 762.373 1433.96 778.877C1433.74 795.113 1419.86 792.011 1409.85 792.05C1254.51 792.509 1099.13 790.403 943.86 793.888C746.626 798.33 549.467 798.828 352.312 794.654C243.618 792.356 134.958 791.246 26.2256 791.629C21.3978 791.629 16.5702 791.361 11.7423 791.514C1.23446 791.82 1.38352 783.664 0.254437 775.737C-1.43937 764.058 6.47497 766.164 12.2263 765.475C85.7516 756.361 155.741 731.662 226.189 708.993C229.811 707.806 234.424 709.415 235.211 703.403C236.068 696.701 229.641 698.731 227.478 696.089C192.691 653.622 145.787 625.286 112.314 581.288C104.797 571.37 91.9135 568.69 84.3617 557.815C79.3272 550.577 73.05 543.57 76.7848 534.992C80.8041 525.802 88.1569 520.479 99.4459 519.943C159.938 517.033 219.407 505.928 282.039 491.913C270.585 477.936 262.433 463.577 250.726 454.463C206.596 420.115 173.694 373.36 133.721 334.569C120.845 322.086 116.987 309.449 125.733 294.094C135.261 277.36 148.884 287.163 159.991 291.375C230.362 318.065 300.839 344.334 372.776 366.122C385.729 370.028 396.597 363.404 408.983 367.731C417.961 370.871 415.63 357.124 414.96 352.567C404.618 284.368 416.179 215.173 406.405 146.821C403.618 127.445 406.902 105.887 411.853 86.6637C416.341 69.2789 430.391 77.3586 439.545 83.1025C470.838 102.747 496.124 130.777 523.791 155.475C554.545 182.969 586.791 208.204 619.179 233.324C631.56 242.935 636.18 236.617 639.384 226.24C659.319 161.411 685.394 99.3002 709.339 36.1942C711.936 29.3781 714.746 22.3323 717.982 16.0523C729.041 -5.62121 742.672 -5.39146 753.693 17.0097C781.652 73.7591 800.485 134.3 816.335 196.065C820.509 212.378 826.53 228.193 830.066 244.659C834.344 264.532 841.694 262.196 851.857 249.866C878.189 218.007 904.131 185.803 930.96 154.48C951.499 130.509 977.712 113.086 997.719 88.1954C1004.68 79.5413 1015.59 72.7635 1027.33 78.9669C1038.19 84.7108 1039.78 96.1602 1038.84 108.069C1034.36 165.508 1029.34 222.87 1025.56 280.347C1024.09 302.71 1025.27 325.264 1025.25 349.58L1025.15 349.465ZM238.249 392.506C236.261 392.046 232.748 390.744 232.499 391.242C230.934 394.535 233.526 394.88 235.691 395.263C237.747 397.943 239.768 400.662 241.825 403.343C313.751 478.013 385.642 552.683 459.519 629.383C463.471 615.215 465.644 606.867 468.101 598.634C481.38 554.177 481.273 554.368 444.979 530.627C378.563 487.127 312.326 443.358 246.017 399.743C243.428 397.331 240.838 394.957 238.213 392.544L238.249 392.506ZM1191.08 372.134C1122.82 414.294 1058.7 463.309 993.838 511.098C984.354 518.105 986.337 523.658 991.868 531.776C1007.25 554.368 1021.58 577.727 1032.16 606.561C1074.1 551.267 1106.56 492.258 1148.96 441.405C1165.94 420.996 1183.14 400.318 1193.35 374.47C1195.66 374.125 1197.65 373.321 1196.16 370.373C1196.02 370.066 1192.82 371.522 1191.05 372.134H1191.08ZM247.972 355.515C245.488 354.137 242.969 352.529 240.624 355.783C242.149 356.856 243.639 357.966 245.165 359.038C322.394 417.702 403.641 469.359 485.065 520.824C494.964 527.066 498.091 522.892 503.211 514.123C518.96 487.203 533.503 458.982 562.879 438.074C453.634 415.52 348.968 393.272 247.972 355.515ZM662.911 768.921C662.912 767.657 662.913 766.356 662.914 765.092C775.551 765.092 888.188 764.747 1000.79 765.513C1015.17 765.628 1021.13 761.952 1021.47 746.137C1022.99 671.658 1008.31 604.455 966.371 541.579C905.996 451.17 828.534 414.218 727.599 429.343C697.386 433.862 667.173 438.342 636.819 441.712C601.53 445.618 571.379 460.169 550.408 491.301C498.762 567.847 470.681 652.474 476.597 748.588C477.542 764.096 481.584 769.457 496.351 769.227C551.872 768.385 607.391 768.883 662.911 768.883L662.911 768.921ZM439.977 117.604C439.926 176.268 439.132 231.677 440.149 287.048C440.659 313.738 445.392 340.275 446.754 366.965C447.451 381.133 454.476 385.766 465.408 387.566C500.192 393.233 534.262 402.998 569.33 407.402C581.47 408.933 584.739 404.836 587.729 395.186C598.622 360.034 609.125 324.728 620.657 289.844C624.145 279.313 624.045 271.693 614.998 265.375C553.091 222.181 497.936 169.452 439.977 117.604ZM419.57 643.781C390.527 608.82 359.711 572.595 329.853 535.375C319.073 521.934 307.219 518.871 291.704 521.437C235.857 530.742 180.645 544.489 119.194 548.088C170.304 597.754 216.979 645.772 268.593 687.894C272.885 691.379 276.789 692.604 281.831 690.881C330.372 674.224 378.948 657.643 419.57 643.781ZM1048.61 635.395C1093.15 653.929 1137.04 672.156 1180.83 690.498C1185.27 692.336 1188.35 691.991 1190.56 687.052C1199.84 666.489 1218.7 656.571 1233.94 642.901C1268.22 612.19 1303.46 582.743 1340.27 551.152C1273.41 531.776 1207.71 522.471 1142.4 511.021C1132.5 509.298 1127.63 515.808 1122.86 522.968C1098.59 559.614 1074.38 596.299 1048.58 635.357L1048.61 635.395ZM1009.8 119.136C968.051 159.534 932.094 197.674 899.151 239.03C883.443 258.75 860.496 276.135 854.122 298.919C847.499 322.66 866.468 348.661 871.842 374.432C872.902 379.486 873.927 384.541 874.739 389.634C876.682 401.428 881.399 405.602 892.976 400.432C911.442 392.238 930.087 382.894 949.473 379.142C985.013 372.249 998.092 353.486 997.453 313.355C996.478 250.556 1009.52 188.139 1009.8 119.136ZM609.65 415.252C643.449 410.503 674.23 405.985 705.117 402.002C714.241 400.815 718.929 398.556 718.336 386.379C715.895 335.22 720.164 284.215 722.515 233.133C724.939 181.208 730.238 129.283 728.016 70.8872C679.355 185.841 645.745 299.723 609.65 415.29L609.65 415.252ZM853.318 407.823C820.716 301.791 789.777 201.158 758.803 100.526C754.053 134.376 752.533 167.001 751.156 199.627C748.656 258.52 746.013 317.376 744.01 376.27C743.719 384.503 740.444 395.186 755.352 396.412C786.34 399.016 817.543 399.169 853.318 407.785L853.318 407.823ZM906.55 425.399C923.537 445.618 940.098 464.496 955.7 484.255C963.466 494.096 968.719 495.015 979.269 486.935C1020.51 455.42 1062.53 424.978 1104.8 395.071C1141.81 368.879 1179.53 343.913 1216.97 318.41C1110.27 346.478 1008.6 389.864 906.586 425.399H906.55ZM166.399 762.411C166.539 764.288 166.68 766.164 166.82 768.04C253.365 768.04 339.911 767.657 426.456 768.385C442.181 768.5 449.922 766.049 448.768 746.175C447.089 717.801 446.581 689.12 452.532 663.157C357.012 696.28 261.705 729.365 166.399 762.45L166.399 762.411ZM1273.45 764.9C1195.32 727.489 1122.25 696.51 1047.98 667.714C1047.96 693.83 1049.5 719.026 1047.38 743.84C1045.84 761.76 1050.91 766.356 1066.46 765.398C1132.92 761.263 1199.44 763.905 1273.45 764.9Z" fill="#7D7D7D" fill-opacity="0.4"/>
</svg>
