<svg width="419" height="230" viewBox="0 0 419 230" fill="none" xmlns="http://www.w3.org/2000/svg">
<g clip-path="url(#clip0_214_266)">
<path d="M331.22 213.01C322.53 209.94 313.43 208.57 304.51 206.48C296.96 204.71 289.37 203.14 281.71 201.46C282.01 200.71 282.05 200.29 282.24 200.19C296.44 193.17 310.04 184.95 324.64 178.73C326.67 177.86 328.3 176.78 327.37 174.48C326.52 172.38 324.76 171.54 322.24 172.16C319.55 172.82 316.73 173.01 313.96 173.31C304.02 174.4 294.08 175.42 284.14 176.52C280.43 176.93 276.74 177.48 272.21 178.07C275.73 172.88 278.64 168.45 281.68 164.12C288.27 154.74 294.96 145.42 301.54 136.03C302.62 134.49 304.21 132.74 302.28 130.84C300.72 129.31 299.35 130.18 297.6 131.24C290.1 135.76 282.38 139.93 274.78 144.29C267.95 148.21 261.17 152.21 253.56 156.64C255.72 150.83 254.99 145.53 256.31 140.44C258.34 132.62 257.99 124.41 260.02 116.54C261.24 111.79 261.82 106.86 262.6 102C262.85 100.48 262.85 98.7401 260.96 98.3001C259.48 97.9601 258.19 97.9301 256.83 99.6901C249.24 109.5 241.33 119.06 233.98 129.08C230.82 133.39 228.27 138.31 223.56 142.35C222.36 133.93 221.27 126.07 220.11 118.23C218.98 110.59 217.75 102.96 216.62 95.3201C216.4 93.8301 215.94 92.6601 214.26 92.5301C212.48 92.3801 211.64 93.2601 211.13 95.0301C209.48 100.8 207.49 106.48 205.87 112.26C203.38 121.18 201.11 130.15 198.58 139.72C192.26 131.15 187.29 122.56 182.16 114.08C178.94 108.75 176.11 103.19 173 97.7901C171.9 95.8901 170.34 94.4101 167.82 95.2201C165.66 95.9201 166.6 97.9001 166.74 99.0701C167.62 106.73 168.88 114.35 169.79 122.01C170.82 130.74 171.65 139.49 172.47 148.24C172.68 150.48 171.8 151.44 169.56 149.96C158.55 142.67 147.53 135.41 136.52 128.11C133.43 126.06 130.39 123.94 127.32 121.86C125.95 120.93 124.21 120.78 123.13 121.65C122.17 122.42 122.46 123.93 123.39 125.24C128.18 132 132.52 139.04 136.6 146.25C141.57 155.05 146.3 163.99 152.5 172.62C141.7 171.63 131.73 169.79 121.78 167.69C113.91 166.03 105.93 164.93 97.9697 163.71C96.8897 163.54 95.1997 162.77 94.7397 164.95C94.3697 166.72 95.1297 167.36 96.5997 168.32C111.27 177.92 124.78 189.05 138.58 200.38C137.18 200.83 135.97 201.34 134.71 201.61C119.58 204.91 104.43 208.12 89.3197 211.51C87.1097 212.01 83.3697 211.66 83.3897 214.61C83.4097 217.74 87.3397 217.43 89.6497 218.47C89.8897 218.58 90.2597 218.39 90.5397 218.47C96.8097 219.95 103.09 221.41 109.35 222.94C117.84 225.01 126.32 227.13 135 229.28C134.98 229.31 134.95 229.34 134.93 229.38L144.29 228.45C144.29 228.31 144.26 228.16 144.23 228C143.81 225.81 141.93 225.65 140.09 225.22C125.93 221.89 111.8 218.44 96.7197 214.8C103.16 213.41 108.83 212.24 114.47 210.96C123.39 208.94 132.3 206.84 141.22 204.77C143.06 204.34 145.24 204.53 145.64 201.85C146.02 199.28 144.32 197.99 142.64 196.7C132.15 188.61 121.65 180.53 111.16 172.44C110.61 172.01 110.1 171.52 109.97 170.3C117.74 171.72 125.49 173.19 133.27 174.53C140.39 175.76 147.53 176.85 154.66 177.97C156.17 178.21 157.57 178.19 158.7 176.71C160 174.99 158.75 173.83 158.03 172.67C150.29 160.31 142.79 147.8 135.88 134.95C135.54 134.59 134.77 134.21 135.29 133.74C135.8 133.27 136.58 133.45 137.01 134.19C148.45 141.16 159.73 148.39 170.65 156.14C172.39 157.37 174.13 159.01 176.34 157.94C178.84 156.73 177.81 154.14 177.63 152.23C176.29 138.6 174.77 125 173.32 111.38C173.24 110.64 173.3 109.88 173.29 109.17C174.16 108.91 174.42 109.52 174.67 109.99C181.13 122.46 189.65 133.67 196.44 145.93C197.24 147.38 197.71 149.77 200.14 149.16C202.28 148.62 202.09 146.36 202.52 144.69C205.88 131.68 209.2 118.67 212.53 105.65C212.92 105.67 213.3 105.69 213.68 105.72C214.77 112.89 215.88 120.05 216.94 127.22C217.93 133.91 218.76 140.63 219.87 147.3C220.12 148.78 220.25 150.78 222.29 151.31C224.67 151.92 225.48 149.87 226.39 148.47C235.27 134.83 245.14 121.92 255.44 109.34C255.84 109.09 255.91 108.11 256.58 108.63C256.77 108.78 256.4 109.66 256.29 110.2C254.31 123.75 252.34 137.3 250.34 150.85C250.03 152.93 249.69 155.01 249.22 157.05C248.66 159.5 250.56 160.65 251.89 161.9C253.41 163.33 255 162.06 256.37 161.17C267.46 153.94 278.8 147.13 290.57 141.05C290.97 140.85 291.37 140.65 291.76 140.45C291.88 140.04 292.11 139.66 292.55 139.96C292.66 140.04 292.44 140.62 292.37 140.97C292.12 141.23 291.86 141.48 291.61 141.74C283.83 153.02 276.08 164.32 268.24 175.55C266.81 177.59 265.14 179.54 266.71 182.06C268.29 184.59 270.91 183.4 272.94 182.98C285.66 180.4 298.62 180.12 311.44 178.25C311.67 180.14 310.37 180.18 309.54 180.63C298.64 186.41 287.74 192.18 276.83 197.94C275.5 198.64 274.09 199.22 273.15 200.48C271.11 203.21 271.71 204.83 275.15 205.29C288.9 207.13 302.27 210.87 315.87 213.44C317.17 213.69 318.41 214.27 319.89 214.77C305.73 218.08 291.8 221.3 277.89 224.6C276.03 225.04 273.84 225.42 273.44 227.81C273.44 227.82 273.44 227.83 273.44 227.84L280.73 228.9C280.73 228.9 280.64 228.83 280.59 228.79C283.66 227.99 285.99 227.26 288.38 226.78C302.37 223.98 315.97 219.16 330.36 218.4C332.36 218.29 333.53 217.21 333.76 215.54C333.97 214.03 332.63 213.5 331.19 212.99L331.22 213.01Z" fill="#7D7D7D" fill-opacity="0.4"/>
<path d="M77.6197 209.74C76.8297 214.33 73.2997 216.82 68.6797 216.05C64.2797 215.32 61.9597 212.2 62.7197 208.05C63.5297 203.63 67.3397 200.63 71.3597 201.26C75.8097 201.96 78.3697 205.42 77.6297 209.73L77.6197 209.74Z" fill="#7D7D7D" fill-opacity="0.4"/>
<path d="M39.4699 204.75C40.1999 200.59 41.4199 197.57 45.9499 198.18C50.0399 198.73 53.1399 202.9 52.4699 206.79C51.7799 210.8 48.0599 212.74 43.2099 212.02C37.7999 211.21 39.4699 207.4 39.4699 204.76V204.75Z" fill="#7D7D7D" fill-opacity="0.4"/>
<path d="M29.2903 204.089C28.2403 207.989 25.3603 208.659 21.8403 208.559C17.8303 208.449 17.7003 205.129 17.3903 202.709C17.0503 200.089 21.5403 197.049 24.2703 197.559C27.8203 198.219 29.5903 200.319 29.3003 204.089H29.2903Z" fill="#7D7D7D" fill-opacity="0.4"/>
<path d="M4.44986 195.89C6.93986 196.55 9.34986 197.72 8.50986 200.52C7.85986 202.67 5.83986 203.93 2.99986 203.62C-0.700138 203.22 0.129862 199.97 0.00986233 198.33C-0.120138 196.62 2.31986 195.53 4.44986 195.88V195.89Z" fill="#7D7D7D" fill-opacity="0.4"/>
<path d="M88.1397 164.441C86.3097 168.721 82.2997 170.341 77.9797 168.521C73.8697 166.791 72.3197 163.231 74.0197 159.361C75.8297 155.241 80.2297 153.211 83.9897 154.751C88.1597 156.451 89.8497 160.421 88.1297 164.441H88.1397Z" fill="#7D7D7D" fill-opacity="0.4"/>
<path d="M52.1693 150.79C53.8393 146.91 55.7194 144.25 59.9894 145.89C63.8394 147.37 65.8993 152.14 64.3493 155.77C62.7593 159.52 58.6894 160.54 54.1294 158.72C49.0494 156.69 51.5593 153.36 52.1693 150.79Z" fill="#7D7D7D" fill-opacity="0.4"/>
<path d="M42.4192 147.791C40.4992 151.341 37.5492 151.331 34.1392 150.421C30.2692 149.391 30.9092 146.131 31.1592 143.701C31.4292 141.071 36.5092 139.151 39.0392 140.281C42.3392 141.741 43.5792 144.191 42.4192 147.791Z" fill="#7D7D7D" fill-opacity="0.4"/>
<path d="M20.1396 134.08C22.4096 135.3 24.4796 136.99 23.0196 139.52C21.8896 141.47 19.6396 142.22 16.9496 141.27C13.4396 140.03 14.9996 137.05 15.2596 135.44C15.5296 133.74 18.1596 133.25 20.1496 134.08H20.1396Z" fill="#7D7D7D" fill-opacity="0.4"/>
<path d="M117.64 121.431C114 124.341 109.71 123.871 106.76 120.231C103.95 116.761 104.28 112.891 107.6 110.291C111.14 107.521 115.97 107.801 118.56 110.941C121.43 114.411 121.05 118.701 117.64 121.441V121.431Z" fill="#7D7D7D" fill-opacity="0.4"/>
<path d="M92.3902 92.4001C95.7002 89.7701 98.6102 88.3101 101.6 91.7701C104.29 94.8901 103.86 100.07 100.77 102.54C97.5902 105.09 93.5302 104.07 90.3702 100.31C86.8602 96.1201 90.6402 94.3701 92.3902 92.4001Z" fill="#7D7D7D" fill-opacity="0.4"/>
<path d="M85.2095 85.1599C81.8395 87.3899 79.2395 85.9799 76.6695 83.5699C73.7395 80.8299 75.8495 78.2599 77.2195 76.2399C78.6995 74.0499 84.0795 74.7599 85.7795 76.9399C87.9995 79.7899 87.9295 82.5399 85.2095 85.1599Z" fill="#7D7D7D" fill-opacity="0.4"/>
<path d="M72.0498 62.5403C73.4798 64.6903 74.4998 67.1603 72.0098 68.7003C70.0998 69.8803 67.7498 69.4903 65.8298 67.3703C63.3198 64.6203 66.1097 62.7303 67.0897 61.4303C68.1297 60.0603 70.6798 60.8703 72.0398 62.5403H72.0498Z" fill="#7D7D7D" fill-opacity="0.4"/>
<path d="M164.27 83.5698C159.77 84.7898 156.03 82.6398 154.77 78.1198C153.58 73.8198 155.42 70.3998 159.51 69.3398C163.86 68.2098 168.18 70.3998 169.31 74.3098C170.55 78.6298 168.49 82.4198 164.27 83.5698Z" fill="#7D7D7D" fill-opacity="0.4"/>
<path d="M152.7 46.8797C156.78 45.7797 160.04 45.6197 161.39 49.9797C162.61 53.9197 160.15 58.4897 156.33 59.5297C152.4 60.5997 149.08 58.0497 147.69 53.3397C146.14 48.0997 150.3 47.9997 152.7 46.8897V46.8797Z" fill="#7D7D7D" fill-opacity="0.4"/>
<path d="M149.01 37.3697C145.03 38.0697 143.21 35.7397 141.81 32.4997C140.22 28.8197 143.18 27.2997 145.24 25.9997C147.47 24.5897 152.12 27.3797 152.81 30.0597C153.71 33.5597 152.55 36.0497 149.01 37.3697Z" fill="#7D7D7D" fill-opacity="0.4"/>
<path d="M145.97 11.3899C146.42 13.9299 146.37 16.5999 143.48 17.0199C141.25 17.3399 139.26 16.0399 138.34 13.3399C137.14 9.80995 140.44 9.19994 141.87 8.39994C143.37 7.55994 145.39 9.31995 145.97 11.3899Z" fill="#7D7D7D" fill-opacity="0.4"/>
<path d="M213.38 77.6592C208.79 76.8892 206.28 73.3592 207.04 68.7392C207.76 64.3292 210.86 61.9992 215.02 62.7492C219.45 63.5492 222.45 67.3392 221.84 71.3592C221.16 75.8092 217.7 78.3892 213.39 77.6592H213.38Z" fill="#7D7D7D" fill-opacity="0.4"/>
<path d="M218.239 39.4893C222.409 40.1993 225.429 41.4093 224.839 45.9393C224.299 50.0293 220.149 53.1493 216.249 52.4893C212.229 51.8193 210.279 48.1093 210.989 43.2493C211.779 37.8393 215.599 39.4993 218.239 39.4893Z" fill="#7D7D7D" fill-opacity="0.4"/>
<path d="M218.869 29.3092C214.969 28.2792 214.289 25.3992 214.369 21.8692C214.469 17.8592 217.789 17.7192 220.209 17.3992C222.829 17.0492 225.879 21.5292 225.379 24.2592C224.729 27.8092 222.639 29.5892 218.869 29.3092Z" fill="#7D7D7D" fill-opacity="0.4"/>
<path d="M226.98 4.43966C226.33 6.93966 225.16 9.33966 222.36 8.50966C220.2 7.86966 218.94 5.85966 219.24 3.01966C219.63 -0.690337 222.88 0.139663 224.51 0.009663C226.22 -0.130337 227.32 2.30966 226.98 4.43966Z" fill="#7D7D7D" fill-opacity="0.4"/>
<path d="M262.65 89.1999C258.5 87.0799 257.18 82.9599 259.29 78.7799C261.3 74.7999 264.97 73.5099 268.7 75.4699C272.68 77.5599 274.4 82.0899 272.6 85.7399C270.61 89.7799 266.54 91.1899 262.65 89.1999Z" fill="#7D7D7D" fill-opacity="0.4"/>
<path d="M278.78 54.2694C282.54 56.2094 285.06 58.2694 283.13 62.4094C281.38 66.1494 276.49 67.8694 272.97 66.0694C269.34 64.2194 268.6 60.0894 270.74 55.6694C273.12 50.7494 276.26 53.4794 278.79 54.2694H278.78Z" fill="#7D7D7D" fill-opacity="0.4"/>
<path d="M282.45 44.7596C279.04 42.5996 279.26 39.6496 280.4 36.3096C281.7 32.5196 284.91 33.3896 287.32 33.8096C289.92 34.2596 291.48 39.4596 290.19 41.9096C288.5 45.0996 285.97 46.1696 282.46 44.7596H282.45Z" fill="#7D7D7D" fill-opacity="0.4"/>
<path d="M297.68 23.4796C296.31 25.6596 294.47 27.6096 292.05 25.9696C290.19 24.7096 289.59 22.4096 290.73 19.7896C292.21 16.3696 295.07 18.1396 296.67 18.5096C298.35 18.8896 298.66 21.5496 297.69 23.4796H297.68Z" fill="#7D7D7D" fill-opacity="0.4"/>
<path d="M305.7 127.35C302.7 123.78 303.08 119.48 306.65 116.45C310.05 113.56 313.929 113.8 316.609 117.06C319.469 120.53 319.29 125.37 316.22 128.04C312.82 130.99 308.52 130.71 305.7 127.36V127.35Z" fill="#7D7D7D" fill-opacity="0.4"/>
<path d="M334.13 101.429C336.84 104.669 338.36 107.549 334.97 110.619C331.91 113.389 326.729 113.069 324.179 110.049C321.559 106.929 322.48 102.839 326.17 99.5994C330.28 95.9894 332.11 99.7294 334.13 101.429Z" fill="#7D7D7D" fill-opacity="0.4"/>
<path d="M341.209 94.0799C338.909 90.7599 340.249 88.1299 342.599 85.4999C345.269 82.5099 347.889 84.5599 349.939 85.8799C352.159 87.3099 351.579 92.6999 349.439 94.4499C346.639 96.7299 343.899 96.7299 341.209 94.0699V94.0799Z" fill="#7D7D7D" fill-opacity="0.4"/>
<path d="M363.509 80.3996C361.399 81.8796 358.949 82.9596 357.349 80.5096C356.119 78.6296 356.469 76.2696 358.529 74.2996C361.229 71.7296 363.169 74.4696 364.499 75.4196C365.889 76.4296 365.149 78.9996 363.509 80.3996Z" fill="#7D7D7D" fill-opacity="0.4"/>
<path d="M336.31 172.489C335.21 167.959 337.46 164.269 342.01 163.139C346.34 162.059 349.71 163.999 350.66 168.109C351.67 172.489 349.37 176.749 345.43 177.769C341.07 178.899 337.34 176.739 336.31 172.489Z" fill="#7D7D7D" fill-opacity="0.4"/>
<path d="M373.3 161.9C374.29 166.01 374.37 169.27 369.97 170.51C366 171.63 361.5 169.04 360.56 165.2C359.6 161.24 362.24 157.99 366.98 156.72C372.26 155.31 372.25 159.47 373.29 161.9H373.3Z" fill="#7D7D7D" fill-opacity="0.4"/>
<path d="M382.91 158.459C382.32 154.469 384.7 152.709 387.97 151.389C391.69 149.899 393.13 152.899 394.38 154.989C395.73 157.259 392.82 161.829 390.12 162.449C386.6 163.249 384.14 162.029 382.91 158.459Z" fill="#7D7D7D" fill-opacity="0.4"/>
<path d="M408.96 156.12C406.41 156.51 403.74 156.38 403.4 153.48C403.14 151.25 404.49 149.29 407.22 148.44C410.78 147.33 411.3 150.65 412.07 152.1C412.87 153.62 411.06 155.59 408.97 156.12H408.96Z" fill="#7D7D7D" fill-opacity="0.4"/>
<path d="M339.88 215.67C340.17 211.02 343.41 208.16 348.09 208.43C352.55 208.68 355.19 211.53 354.88 215.74C354.55 220.22 351.09 223.61 347.03 223.42C342.53 223.21 339.61 220.04 339.88 215.68V215.67Z" fill="#7D7D7D" fill-opacity="0.4"/>
<path d="M378.339 216.499C378.069 220.719 377.179 223.85 372.609 223.74C368.489 223.63 364.949 219.829 365.189 215.889C365.439 211.829 368.929 209.499 373.829 209.689C379.289 209.909 378.049 213.879 378.329 216.509L378.339 216.499Z" fill="#7D7D7D" fill-opacity="0.4"/>
<path d="M388.529 216.06C389.149 212.07 391.939 211.09 395.449 210.81C399.439 210.49 399.929 213.78 400.509 216.15C401.129 218.72 396.989 222.22 394.229 222.01C390.629 221.73 388.639 219.84 388.529 216.06Z" fill="#7D7D7D" fill-opacity="0.4"/>
<path d="M414.119 221.52C411.569 221.14 409.049 220.23 409.589 217.35C409.999 215.14 411.869 213.67 414.729 213.67C418.459 213.67 417.979 216.99 418.279 218.6C418.599 220.29 416.279 221.64 414.129 221.52H414.119Z" fill="#7D7D7D" fill-opacity="0.4"/>
</g>
<defs>
<clipPath id="clip0_214_266">
<rect width="418.3" height="229.37" fill="white"/>
</clipPath>
</defs>
</svg>
