<svg width="450" height="254" viewBox="0 0 450 254" fill="none" xmlns="http://www.w3.org/2000/svg">
<g clip-path="url(#clip0_213_98)">
<path d="M205.127 122.766C193.337 124.666 183.157 126.856 173.707 131.666C169.837 133.636 167.057 136.666 164.177 139.686C151.827 152.676 139.467 165.616 134.607 183.716C131.767 194.306 129.597 204.846 131.987 215.826C132.617 218.716 132.987 221.256 128.587 221.396C124.227 221.536 124.087 218.806 123.697 215.696C121.547 198.886 125.757 183.056 133.027 168.426C145.207 143.916 162.507 125.206 190.967 118.376C207.057 114.516 223.097 112.866 239.127 114.336C249.627 115.296 259.907 119.866 269.727 124.586C281.677 130.336 291.597 138.836 300.947 147.806C309.077 155.606 314.097 165.856 317.137 176.796C320.407 188.586 323.297 200.436 321.677 212.906C321.367 215.326 322.077 217.586 318.537 217.776C314.607 217.986 315.087 214.476 315.237 212.916C316.067 204.576 313.917 196.656 312.557 188.616C310.167 174.496 303.897 162.536 293.927 152.076C280.857 138.366 265.077 129.386 247.207 124.296C232.977 120.246 218.277 119.756 205.127 122.766Z" fill="#7D7D7D" fill-opacity="0.4"/>
<path d="M439.806 215.776C427.096 217.296 414.416 215.326 401.716 215.606C391.406 215.836 381.097 215.796 370.787 215.796C359.667 215.796 348.547 215.736 337.427 215.636C333.907 215.606 334.427 212.426 334.267 210.516C333.997 207.416 337.107 208.396 338.547 208.356C347.717 208.116 356.906 208.176 366.086 208.216C381.306 208.266 396.536 208.386 411.757 208.456C422.587 208.506 433.427 208.616 444.257 208.516C446.947 208.486 449.026 208.886 449.306 211.886C449.626 215.286 446.666 214.486 444.836 214.956C443.196 215.376 441.486 215.516 439.806 215.776Z" fill="#7D7D7D" fill-opacity="0.4"/>
<path d="M96.5165 221.396C79.9765 223.536 63.3465 223.566 46.7165 223.986C33.2465 224.326 19.7665 225.256 6.34654 226.476C2.57654 226.816 0.836543 224.626 0.176543 222.506C-0.793457 219.386 2.44654 219.036 4.70654 218.876C15.8565 218.106 27.0165 217.326 38.1865 216.816C50.5565 216.256 62.9565 215.566 75.3265 215.726C86.1665 215.866 96.6165 212.476 107.467 213.086C109.527 213.206 111.137 212.636 111.307 215.556C111.437 217.846 111.007 219.216 108.487 219.546C104.477 220.076 100.497 220.766 96.4965 221.386L96.5165 221.396Z" fill="#7D7D7D" fill-opacity="0.4"/>
<path d="M120.067 169.205C120.717 172.805 117.357 174.905 113.177 173.525C99.9667 169.145 86.7767 164.715 73.6367 160.115C60.4567 155.505 46.9267 152.095 33.5167 148.295C29.9867 147.295 26.4767 146.085 23.1667 144.525C21.2567 143.625 18.4067 142.455 19.8567 139.395C21.0267 136.915 23.2767 136.885 25.8067 137.635C37.5367 141.105 49.4167 144.125 61.0567 147.895C78.7567 153.625 96.3167 159.785 113.877 165.915C116.097 166.685 118.797 167.015 120.057 169.195L120.067 169.205Z" fill="#7D7D7D" fill-opacity="0.4"/>
<path d="M156.147 117.585C145.787 102.565 136.777 86.6754 127.267 71.1054C119.857 58.9754 111.677 47.3254 103.877 35.4354C102.447 33.2554 99.667 30.6854 102.837 28.3954C105.957 26.1454 108.047 28.7354 109.977 31.3254C124.347 50.6154 136.037 71.6054 148.757 91.9454C151.947 97.0554 154.667 102.545 158.457 107.165C162.447 112.035 161.277 114.885 156.147 117.585Z" fill="#7D7D7D" fill-opacity="0.4"/>
<path d="M390.907 74.7861C392.937 74.0661 394.787 74.3861 395.567 76.0461C396.667 78.3761 395.007 79.8061 393.207 81.2261C379.777 91.8261 366.267 102.356 353.077 113.256C341.827 122.546 329.397 130.156 317.787 138.936C315.827 140.416 313.937 142.276 311.477 139.006C309.147 135.906 310.387 134.346 312.957 132.686C338.627 116.156 361.877 96.4261 385.767 77.5361C387.317 76.3161 388.707 74.4461 390.897 74.7861H390.907Z" fill="#7D7D7D" fill-opacity="0.4"/>
<path d="M331.307 26.9558C330.537 30.7758 327.847 34.6258 325.537 38.4758C311.217 62.4058 297.657 86.8258 281.147 109.406C279.467 111.706 277.737 111.916 275.887 111.596C273.467 111.176 271.197 110.386 273.647 106.776C283.447 92.3858 293.247 77.9758 302.437 63.2058C309.307 52.1658 315.217 40.5258 321.597 29.1858C323.107 26.4958 324.457 23.6158 328.387 23.6358C330.317 23.6358 331.117 24.3358 331.297 26.9658L331.307 26.9558Z" fill="#7D7D7D" fill-opacity="0.4"/>
<path d="M115.887 184.356C115.187 188.076 115.137 191.336 110.197 190.026C98.0468 186.816 85.8068 183.996 73.6268 180.916C54.9368 176.186 36.2968 171.316 17.5968 166.646C14.4268 165.856 11.8368 164.896 13.1268 161.086C14.3368 157.516 17.2468 159.146 19.5468 159.706C50.5768 167.376 81.5968 175.096 112.607 182.836C113.837 183.146 114.957 183.906 115.897 184.346L115.887 184.356Z" fill="#7D7D7D" fill-opacity="0.4"/>
<path d="M196.737 10.2058C199.527 38.8658 202.787 65.7958 206.987 92.6158C207.547 96.2158 206.857 97.9658 202.767 98.6058C197.867 99.3858 198.537 95.3258 198.457 93.5558C197.827 80.7458 195.417 68.1858 193.867 55.5158C191.767 38.3458 191.517 20.9558 188.177 3.90576C187.867 2.34576 187.637 0.485756 190.167 0.085756C192.107 -0.224244 193.587 0.275756 194.297 2.08576C195.527 5.22576 196.727 8.39576 196.747 10.1958L196.737 10.2058Z" fill="#7D7D7D" fill-opacity="0.4"/>
<path d="M132.907 142.555C131.877 144.245 131.187 145.865 130.057 147.095C128.807 148.455 127.907 146.785 126.907 146.255C118.237 141.665 111.977 134.145 104.747 127.835C93.377 117.925 82.517 107.445 71.427 97.2254C68.967 94.9654 66.507 92.6954 63.877 90.6554C61.177 88.5654 58.467 85.5954 60.677 82.8554C62.997 79.9754 66.437 82.1754 68.927 84.4654C78.997 93.7054 89.027 102.985 99.167 112.145C108.707 120.765 118.377 129.235 127.977 137.795C129.677 139.315 131.267 140.965 132.917 142.555H132.907Z" fill="#7D7D7D" fill-opacity="0.4"/>
<path d="M329.316 175.196C327.846 172.206 328.686 171.366 331.016 170.456C346.536 164.386 361.896 157.946 377.826 152.956C389.116 149.416 400.326 145.596 411.486 141.656C414.526 140.586 417.426 140.736 418.656 143.336C419.916 145.986 417.586 147.766 414.906 148.626C408.016 150.846 401.246 153.526 394.256 155.336C379.556 159.146 365.626 164.996 351.526 170.436C345.166 172.896 338.706 175.106 332.416 177.716C328.336 179.406 329.956 175.666 329.316 175.186V175.196Z" fill="#7D7D7D" fill-opacity="0.4"/>
<path d="M344.077 59.7155C344.087 61.6455 342.867 62.9454 341.777 64.1754C328.737 78.9054 316.297 94.1255 304.477 109.855C301.687 113.575 298.657 117.105 295.947 120.885C294.267 123.225 293.057 123.685 290.437 121.785C287.487 119.645 289.047 118.385 290.317 116.465C298.947 103.435 308.877 91.3955 318.617 79.2255C324.407 71.9955 331.147 65.5355 337.167 58.4655C338.417 56.9955 339.567 56.9855 340.917 56.9955C342.617 57.0055 343.007 58.8255 344.077 59.7255V59.7155Z" fill="#7D7D7D" fill-opacity="0.4"/>
<path d="M331.276 189.045C350.676 184.705 370.616 183.595 390.386 181.305C396.716 180.575 403.046 179.975 409.276 178.595C411.906 178.005 414.996 176.855 415.966 180.615C416.986 184.595 413.706 184.995 410.946 185.425C395.526 187.815 380.146 190.355 364.526 191.385C356.716 191.905 348.926 193.365 341.236 194.955C336.086 196.015 332.096 196.155 331.286 189.045H331.276Z" fill="#7D7D7D" fill-opacity="0.4"/>
<path d="M259.097 101.505C259.227 101.145 259.597 100.205 259.907 99.2354C267.187 77.2054 273.917 54.9754 283.297 33.6954C284.307 31.4054 284.687 27.8554 288.617 29.3454C292.367 30.7654 291.047 33.8554 290.057 36.2654C281.127 58.0354 274.027 80.4554 266.407 102.685C266.067 103.675 266.597 106.885 263.647 105.525C261.957 104.745 259.237 105.145 259.087 101.505H259.097Z" fill="#7D7D7D" fill-opacity="0.4"/>
<path d="M222.047 30.2262C222.747 45.3762 224.977 62.0862 224.687 78.9362C224.607 83.7762 226.127 88.4362 225.687 93.4362C225.327 97.5062 222.867 96.3762 220.937 96.6462C217.867 97.0762 217.557 94.7362 217.557 92.5362C217.557 80.1662 216.717 67.8662 215.777 55.5362C214.987 45.2162 214.907 34.8462 213.397 24.5662C212.987 21.7562 214.597 19.9362 217.117 19.7262C219.287 19.5462 221.047 20.7762 221.057 23.5362C221.057 25.2162 221.537 26.8862 222.047 30.2062V30.2262Z" fill="#7D7D7D" fill-opacity="0.4"/>
<path d="M149.177 124.665C143.117 129.685 143.397 129.475 138.347 122.935C125.287 105.995 111.907 89.2954 98.817 72.3854C97.327 70.4654 93.517 68.0354 97.277 65.2554C100.677 62.7354 102.967 65.6054 104.997 68.1954C119.707 87.0354 134.447 105.845 149.177 124.675V124.665Z" fill="#7D7D7D" fill-opacity="0.4"/>
<path d="M59.577 123.856C60.547 124.216 62.527 124.786 64.367 125.656C83.457 134.756 101.987 145.036 121.557 153.136C124.347 154.296 125.957 155.736 124.447 159.326C122.807 163.226 120.197 161.296 118.477 160.476C98.657 151.066 78.917 141.506 59.237 131.806C57.337 130.866 54.707 129.756 54.927 126.836C55.077 124.886 56.617 124.056 59.567 123.846L59.577 123.856Z" fill="#7D7D7D" fill-opacity="0.4"/>
<path d="M256.476 44.816C255.966 48.616 255.436 53.386 254.656 58.116C252.586 70.646 250.166 83.116 248.416 95.686C247.886 99.526 245.936 99.126 243.506 98.956C240.376 98.726 240.466 97.446 240.866 94.396C243.046 77.816 246.076 61.396 248.796 44.916C249.266 42.106 249.806 39.896 252.886 39.666C255.676 39.456 256.356 41.526 256.476 44.816Z" fill="#7D7D7D" fill-opacity="0.4"/>
<path d="M152.956 53.666C157.026 52.976 158.046 55.766 158.756 57.556C164.456 72.026 170.806 86.216 177.426 100.276C179.186 104.006 177.426 105.606 174.646 106.756C171.376 108.116 171.136 105.086 170.276 103.186C164.316 89.926 158.206 76.736 152.596 63.336C151.336 60.336 149.476 56.246 152.956 53.656V53.666Z" fill="#7D7D7D" fill-opacity="0.4"/>
<path d="M358.147 132.736C357.517 134.796 356.427 136.246 354.417 137.436C344.607 143.276 334.827 149.196 325.257 155.426C322.567 157.176 321.657 155.266 320.897 153.986C319.297 151.276 320.147 149.126 323.067 147.466C332.367 142.166 341.547 136.666 350.767 131.236C351.457 130.836 352.057 130.096 352.777 129.976C355.137 129.566 356.747 130.876 358.137 132.746L358.147 132.736Z" fill="#7D7D7D" fill-opacity="0.4"/>
<path d="M107.196 204.196C98.0061 203.866 88.8061 203.616 79.6161 203.156C77.3361 203.046 75.0061 202.316 75.1361 199.186C75.2961 195.416 78.3061 195.556 80.6961 195.596C89.6461 195.756 98.6061 195.986 107.516 196.696C109.016 196.816 112.436 195.056 112.646 199.016C112.866 202.946 110.846 204.336 107.186 204.186L107.196 204.196Z" fill="#7D7D7D" fill-opacity="0.4"/>
<path d="M369.216 242.856C352.736 243.566 339.556 235.985 326.656 227.515C314.376 219.455 301.356 214.126 286.186 217.226C284.986 217.476 283.646 217.026 282.416 217.206C280.326 217.516 279.066 216.756 278.936 214.696C278.796 212.526 279.756 211.616 282.186 211.106C300.406 207.256 316.766 211.905 331.536 222.295C343.796 230.925 356.726 236.986 371.986 236.566C376.356 236.446 380.706 235.446 385.056 234.826C387.406 234.496 389.806 233.996 390.616 237.226C391.526 240.876 388.146 241.115 386.426 241.435C380.676 242.515 374.866 243.676 369.216 242.846V242.856Z" fill="#7D7D7D" fill-opacity="0.4"/>
<path d="M76.1368 244.976C92.6168 245.686 105.797 238.106 118.697 229.636C130.977 221.576 143.997 216.246 159.167 219.346C160.367 219.596 161.707 219.146 162.937 219.326C165.027 219.636 166.287 218.876 166.417 216.816C166.557 214.646 165.597 213.736 163.167 213.226C144.947 209.376 128.587 214.026 113.817 224.416C101.557 233.046 88.6268 239.106 73.3668 238.686C68.9968 238.566 64.6468 237.566 60.2968 236.946C57.9468 236.616 55.5468 236.116 54.7368 239.346C53.8268 242.996 57.2068 243.236 58.9268 243.556C64.6768 244.636 70.4868 245.796 76.1368 244.966V244.976Z" fill="#7D7D7D" fill-opacity="0.4"/>
<path d="M323.796 251.826C307.316 252.536 294.136 244.956 281.236 236.486C268.956 228.426 255.936 223.096 240.766 226.196C239.566 226.446 238.226 225.996 236.996 226.176C234.906 226.486 233.646 225.726 233.516 223.666C233.376 221.496 234.336 220.586 236.766 220.076C254.986 216.226 271.346 220.876 286.116 231.266C298.376 239.896 311.306 245.956 326.566 245.536C330.936 245.416 335.286 244.416 339.636 243.796C341.986 243.466 344.386 242.966 345.196 246.196C346.106 249.846 342.726 250.086 341.006 250.406C335.256 251.486 329.446 252.646 323.796 251.816V251.826Z" fill="#7D7D7D" fill-opacity="0.4"/>
<path d="M125.217 252.766C141.697 253.476 154.877 245.896 167.777 237.426C180.057 229.366 193.077 224.036 208.247 227.136C209.447 227.386 210.787 226.936 212.017 227.116C214.107 227.426 215.367 226.666 215.497 224.606C215.637 222.436 214.677 221.526 212.247 221.016C194.027 217.166 177.667 221.816 162.897 232.206C150.637 240.836 137.707 246.896 122.447 246.476C118.077 246.356 113.727 245.356 109.377 244.736C107.027 244.406 104.627 243.906 103.817 247.136C102.907 250.786 106.287 251.026 108.007 251.346C113.757 252.426 119.567 253.586 125.217 252.756V252.766Z" fill="#7D7D7D" fill-opacity="0.4"/>
<path d="M227.016 147.296L231.276 155.926C231.956 157.296 233.256 158.246 234.776 158.466L244.296 159.846C248.106 160.396 249.626 165.076 246.866 167.766L239.976 174.486C238.886 175.556 238.386 177.086 238.636 178.596L240.266 188.076C240.916 191.866 236.936 194.766 233.526 192.976L225.006 188.496C223.656 187.786 222.036 187.786 220.686 188.496L212.166 192.976C208.756 194.766 204.776 191.876 205.426 188.076L207.056 178.596C207.316 177.086 206.816 175.556 205.716 174.486L198.826 167.766C196.066 165.076 197.586 160.396 201.396 159.846L210.916 158.466C212.426 158.246 213.736 157.296 214.416 155.926L218.676 147.296C220.376 143.846 225.306 143.846 227.006 147.296H227.016Z" fill="#7D7D7D" fill-opacity="0.4"/>
</g>
<defs>
<clipPath id="clip0_213_98">
<rect width="449.31" height="253.04" fill="white"/>
</clipPath>
</defs>
</svg>
