<svg width="449" height="511" viewBox="0 0 449 511" fill="none" xmlns="http://www.w3.org/2000/svg">
<path fill-rule="evenodd" clip-rule="evenodd" d="M236.701 34.25C236.279 186.93 234.777 364.373 233.86 369.848C232.485 378.056 224.933 393.178 217.986 401.631C211.759 409.208 203.285 415.714 192.704 421.041C181.495 426.684 175.209 428 159.453 428C147.755 428 144.831 427.658 138.098 425.505C116.548 418.615 99.2323 402.912 90.2203 382.091C85.7803 371.833 84.4243 363.174 85.0503 349.089C85.6153 336.393 86.7343 332.153 92.9593 319.143C97.6613 309.313 109.074 296.66 119.17 290.082C135.432 279.487 154.322 275.894 174.796 279.5C179.471 280.323 183.409 280.998 183.546 280.999C183.683 280.999 183.796 262.128 183.796 239.061V197.123L179.214 196.435C176.694 196.058 165.781 195.991 154.964 196.288C126.502 197.07 112.475 200.485 88.2963 212.52C57.4693 227.865 33.2023 251.482 17.8603 281.072C-6.63974 328.323 -5.90074 382.773 19.8743 429.5C27.1603 442.708 33.6683 451.004 47.7573 465.046C70.6263 487.838 94.8513 500.953 127.456 508.193C140.98 511.197 176.688 511.481 189.796 508.69C223.829 501.443 249.135 487.836 272.796 464.061C279.671 457.152 287.911 447.811 291.108 443.302C303.33 426.062 312.106 405.564 316.926 383C319.162 372.531 319.169 372.198 319.266 270.799C319.32 214.864 319.616 168.847 319.923 168.539C320.231 168.232 322.474 169.501 324.908 171.359C336.691 180.356 362.191 193.684 378.413 199.323C396.991 205.781 424.708 210.939 441.057 210.98L448.818 211L448.557 169.75L448.296 128.5L439.109 127.853C407.404 125.622 378.655 112.049 356.057 88.645C333.394 65.173 323.098 41.978 319.261 5.75L318.652 0H277.724H236.796L236.701 34.25Z" fill="var(--dark-text)"/>
</svg>
